<svg version="1.1" viewBox="0.0 0.0 652.9291338582677 627.6509186351706" fill="none" stroke="none" stroke-linecap="square" stroke-miterlimit="10" xmlns:xlink="http://www.w3.org/1999/xlink" xmlns="http://www.w3.org/2000/svg"><clipPath id="p.0"><path d="m0 0l652.92914 0l0 627.65094l-652.92914 0l0 -627.65094z" clip-rule="nonzero"/></clipPath><g clip-path="url(#p.0)"><path fill="#000000" fill-opacity="0.0" d="m0 0l652.92914 0l0 627.65094l-652.92914 0z" fill-rule="evenodd"/><defs><radialGradient id="p.1" gradientUnits="userSpaceOnUse" gradientTransform="matrix(12.606326819729322 0.0 0.0 12.606326819729322 0.0 0.0)" spreadMethod="pad" cx="32.11948931022979" cy="30.707585448237744" fx="32.11948931022979" fy="30.707585448237744" r="12.606327056884766"><stop offset="0.0" stop-color="#f2f2f2"/><stop offset="1.0" stop-color="#a6a6a6"/></radialGradient></defs><path fill="url(#p.1)" d="m316.86154 254.81064l176.09448 0l0 264.59842l-176.09448 0z" fill-rule="evenodd"/><path stroke="#000000" stroke-width="1.0" stroke-linejoin="round" stroke-linecap="butt" d="m316.86154 254.81064l176.09448 0l0 264.59842l-176.09448 0z" fill-rule="evenodd"/><path fill="#000000" d="m328.52576 385.02985l0 -12.921875l7.890625 0l0 1.546875l-6.078125 0l0 3.84375l5.40625 0l0 1.5l-5.40625 0l0 4.484375l6.546875 0l0 1.546875l-8.359375 0zm10.543335 -9.421875q0.59375 -0.15625 1.578125 -0.3125q0.984375 -0.171875 2.28125 -0.171875q1.15625 0 1.921875 0.328125q0.765625 0.328125 1.21875 0.921875q0.453125 0.578125 0.640625 1.40625q0.1875 0.8125 0.1875 1.796875l0 5.453125l-1.734375 0l0 -5.078125q0 -0.890625 -0.125 -1.515625q-0.125 -0.640625 -0.40625 -1.03125q-0.265625 -0.390625 -0.734375 -0.5625q-0.46875 -0.1875 -1.15625 -0.1875q-0.28125 0 -0.578125 0.015625q-0.296875 0.015625 -0.578125 0.046875q-0.265625 0.03125 -0.484375 0.078125q-0.203125 0.03125 -0.296875 0.046875l0 8.1875l-1.734375 0l0 -9.421875zm14.286835 -0.484375q0.21875 0 0.5 0.03125q0.296875 0.03125 0.578125 0.078125q0.28125 0.046875 0.515625 0.09375q0.234375 0.046875 0.34375 0.078125l-0.296875 1.515625q-0.203125 -0.078125 -0.6875 -0.171875q-0.46875 -0.109375 -1.21875 -0.109375q-0.484375 0 -0.96875 0.109375q-0.46875 0.09375 -0.609375 0.125l0 8.15625l-1.734375 0l0 -9.296875q0.609375 -0.21875 1.515625 -0.40625q0.921875 -0.203125 2.0625 -0.203125zm5.357544 9.90625l-1.734375 0l0 -9.703125l1.734375 0l0 9.703125zm-0.890625 -11.453125q-0.453125 0 -0.78125 -0.3125q-0.328125 -0.3125 -0.328125 -0.828125q0 -0.515625 0.328125 -0.828125q0.328125 -0.3125 0.78125 -0.3125q0.46875 0 0.796875 0.3125q0.328125 0.3125 0.328125 0.828125q0 0.515625 -0.328125 0.828125q-0.328125 0.3125 -0.796875 0.3125zm8.079407 11.671875q-1.171875 0 -2.0625 -0.359375q-0.875 -0.375 -1.484375 -1.046875q-0.609375 -0.671875 -0.90625 -1.59375q-0.296875 -0.9375 -0.296875 -2.046875q0 -1.125 0.328125 -2.046875q0.328125 -0.9375 0.921875 -1.609375q0.59375 -0.6875 1.453125 -1.0625q0.875 -0.390625 1.9375 -0.390625q0.65625 0 1.3125 0.109375q0.65625 0.109375 1.25 0.34375l-0.390625 1.484375q-0.390625 -0.1875 -0.90625 -0.296875q-0.515625 -0.109375 -1.09375 -0.109375q-1.453125 0 -2.234375 0.921875q-0.765625 0.90625 -0.765625 2.65625q0 0.78125 0.171875 1.4375q0.171875 0.640625 0.546875 1.109375q0.390625 0.46875 0.984375 0.71875q0.609375 0.25 1.46875 0.25q0.6875 0 1.25 -0.125q0.5625 -0.125 0.875 -0.28125l0.234375 1.453125q-0.140625 0.09375 -0.421875 0.1875q-0.28125 0.078125 -0.640625 0.140625q-0.34375 0.0625 -0.75 0.109375q-0.40625 0.046875 -0.78125 0.046875zm4.472046 -0.21875l0 -14.171875l1.734375 -0.3125l0 4.96875q0.484375 -0.1875 1.03125 -0.28125q0.546875 -0.109375 1.09375 -0.109375q1.15625 0 1.921875 0.328125q0.765625 0.328125 1.21875 0.921875q0.453125 0.578125 0.640625 1.40625q0.1875 0.8125 0.1875 1.796875l0 5.453125l-1.734375 0l0 -5.078125q0 -0.890625 -0.125 -1.515625q-0.125 -0.640625 -0.40625 -1.03125q-0.265625 -0.390625 -0.734375 -0.5625q-0.46875 -0.1875 -1.15625 -0.1875q-0.28125 0 -0.578125 0.046875q-0.296875 0.03125 -0.578125 0.078125q-0.265625 0.046875 -0.484375 0.109375q-0.203125 0.046875 -0.296875 0.078125l0 8.0625l-1.734375 0zm10.65271 -9.421875q0.59375 -0.15625 1.5625 -0.3125q0.984375 -0.171875 2.265625 -0.171875q0.9375 0 1.5625 0.25q0.640625 0.25 1.078125 0.734375q0.125 -0.09375 0.40625 -0.25q0.28125 -0.171875 0.6875 -0.328125q0.421875 -0.15625 0.921875 -0.28125q0.5 -0.125 1.078125 -0.125q1.125 0 1.828125 0.328125q0.703125 0.328125 1.109375 0.921875q0.40625 0.59375 0.546875 1.421875q0.140625 0.8125 0.140625 1.78125l0 5.453125l-1.734375 0l0 -5.078125q0 -0.859375 -0.09375 -1.46875q-0.078125 -0.609375 -0.3125 -1.015625q-0.234375 -0.421875 -0.640625 -0.609375q-0.390625 -0.203125 -1.03125 -0.203125q-0.875 0 -1.453125 0.234375q-0.5625 0.234375 -0.765625 0.421875q0.15625 0.484375 0.21875 1.0625q0.078125 0.578125 0.078125 1.203125l0 5.453125l-1.734375 0l0 -5.078125q0 -0.859375 -0.09375 -1.46875q-0.09375 -0.609375 -0.328125 -1.015625q-0.234375 -0.421875 -0.640625 -0.609375q-0.390625 -0.203125 -1.0 -0.203125q-0.265625 0 -0.5625 0.015625q-0.296875 0.015625 -0.578125 0.046875q-0.265625 0.03125 -0.5 0.078125q-0.21875 0.03125 -0.28125 0.046875l0 8.1875l-1.734375 0l0 -9.421875zm15.516174 4.59375q0 -1.296875 0.375 -2.25q0.375 -0.96875 0.984375 -1.59375q0.609375 -0.640625 1.40625 -0.953125q0.8125 -0.3125 1.65625 -0.3125q1.953125 0 3.0 1.21875q1.046875 1.21875 1.046875 3.71875q0 0.109375 0 0.296875q0 0.171875 -0.015625 0.3125l-6.640625 0q0.109375 1.515625 0.875 2.296875q0.765625 0.78125 2.390625 0.78125q0.90625 0 1.53125 -0.15625q0.625 -0.15625 0.9375 -0.296875l0.25 1.453125q-0.3125 0.15625 -1.109375 0.34375q-0.796875 0.1875 -1.796875 0.1875q-1.265625 0 -2.203125 -0.375q-0.921875 -0.390625 -1.515625 -1.0625q-0.59375 -0.671875 -0.890625 -1.59375q-0.28125 -0.921875 -0.28125 -2.015625zm6.65625 -0.953125q0.015625 -1.171875 -0.59375 -1.921875q-0.59375 -0.765625 -1.65625 -0.765625q-0.609375 0 -1.0625 0.234375q-0.453125 0.234375 -0.78125 0.609375q-0.3125 0.375 -0.484375 0.859375q-0.171875 0.484375 -0.234375 0.984375l4.8125 0zm4.319458 -3.640625q0.59375 -0.15625 1.578125 -0.3125q0.984375 -0.171875 2.28125 -0.171875q1.15625 0 1.921875 0.328125q0.765625 0.328125 1.21875 0.921875q0.453125 0.578125 0.640625 1.40625q0.1875 0.8125 0.1875 1.796875l0 5.453125l-1.734375 0l0 -5.078125q0 -0.890625 -0.125 -1.515625q-0.125 -0.640625 -0.40625 -1.03125q-0.265625 -0.390625 -0.734375 -0.5625q-0.46875 -0.1875 -1.15625 -0.1875q-0.28125 0 -0.578125 0.015625q-0.296875 0.015625 -0.578125 0.046875q-0.265625 0.03125 -0.484375 0.078125q-0.203125 0.03125 -0.296875 0.046875l0 8.1875l-1.734375 0l0 -9.421875zm12.318085 -0.28125l3.6875 0l0 1.453125l-3.6875 0l0 4.484375q0 0.71875 0.109375 1.203125q0.125 0.46875 0.34375 0.75q0.21875 0.265625 0.546875 0.375q0.34375 0.109375 0.796875 0.109375q0.78125 0 1.25 -0.171875q0.484375 -0.171875 0.671875 -0.25l0.328125 1.4375q-0.25 0.125 -0.90625 0.3125q-0.65625 0.203125 -1.5 0.203125q-0.984375 0 -1.625 -0.25q-0.640625 -0.25 -1.03125 -0.75q-0.390625 -0.515625 -0.5625 -1.25q-0.15625 -0.734375 -0.15625 -1.703125l0 -8.65625l1.734375 -0.296875l0 3.0zm18.090668 8.140625l0 1.5625l-7.78125 0l0 -12.921875l1.8125 0l0 11.359375l5.96875 0zm5.0732117 0.3125q0.609375 0 1.078125 -0.03125q0.484375 -0.03125 0.796875 -0.09375l0 -2.890625q-0.1875 -0.09375 -0.609375 -0.15625q-0.40625 -0.078125 -1.015625 -0.078125q-0.390625 0 -0.828125 0.0625q-0.4375 0.046875 -0.796875 0.234375q-0.359375 0.171875 -0.609375 0.484375q-0.234375 0.296875 -0.234375 0.8125q0 0.921875 0.59375 1.296875q0.59375 0.359375 1.625 0.359375zm-0.15625 -8.6875q1.046875 0 1.765625 0.265625q0.71875 0.265625 1.15625 0.765625q0.4375 0.5 0.625 1.1875q0.1875 0.671875 0.1875 1.484375l0 6.0625q-0.21875 0.046875 -0.625 0.109375q-0.40625 0.0625 -0.90625 0.109375q-0.5 0.0625 -1.09375 0.109375q-0.578125 0.046875 -1.15625 0.046875q-0.828125 0 -1.515625 -0.171875q-0.6875 -0.15625 -1.203125 -0.515625q-0.5 -0.375 -0.78125 -0.96875q-0.28125 -0.59375 -0.28125 -1.4375q0 -0.796875 0.328125 -1.375q0.328125 -0.578125 0.890625 -0.9375q0.5625 -0.359375 1.296875 -0.515625q0.75 -0.171875 1.578125 -0.171875q0.265625 0 0.53125 0.03125q0.28125 0.015625 0.53125 0.0625q0.265625 0.046875 0.4375 0.09375q0.1875 0.03125 0.265625 0.046875l0 -0.484375q0 -0.421875 -0.09375 -0.84375q-0.09375 -0.421875 -0.34375 -0.75q-0.234375 -0.328125 -0.65625 -0.515625q-0.40625 -0.203125 -1.078125 -0.203125q-0.859375 0 -1.515625 0.125q-0.640625 0.125 -0.953125 0.25l-0.203125 -1.4375q0.328125 -0.140625 1.109375 -0.28125q0.796875 -0.140625 1.703125 -0.140625zm5.1929626 11.75q0.203125 0.09375 0.53125 0.171875q0.328125 0.09375 0.640625 0.09375q1.03125 0 1.609375 -0.46875q0.578125 -0.453125 1.03125 -1.484375q-1.171875 -2.234375 -2.1875 -4.734375q-1.015625 -2.515625 -1.6875 -5.09375l1.875 0q0.203125 0.84375 0.484375 1.8125q0.296875 0.96875 0.640625 2.0q0.359375 1.015625 0.765625 2.046875q0.421875 1.03125 0.859375 1.984375q0.71875 -1.96875 1.234375 -3.890625q0.515625 -1.921875 0.984375 -3.953125l1.796875 0q-0.671875 2.75 -1.5 5.28125q-0.8125 2.515625 -1.765625 4.71875q-0.375 0.84375 -0.78125 1.4375q-0.390625 0.609375 -0.875 1.0q-0.484375 0.40625 -1.09375 0.578125q-0.609375 0.1875 -1.375 0.1875q-0.203125 0 -0.4375 -0.03125q-0.21875 -0.015625 -0.4375 -0.0625q-0.203125 -0.046875 -0.390625 -0.109375q-0.171875 -0.046875 -0.25 -0.09375l0.328125 -1.390625zm9.865906 -6.640625q0 -1.296875 0.375 -2.25q0.375 -0.96875 0.984375 -1.59375q0.609375 -0.640625 1.40625 -0.953125q0.8125 -0.3125 1.65625 -0.3125q1.953125 0 3.0 1.21875q1.046875 1.21875 1.046875 3.71875q0 0.109375 0 0.296875q0 0.171875 -0.015625 0.3125l-6.640625 0q0.109375 1.515625 0.875 2.296875q0.765625 0.78125 2.390625 0.78125q0.90625 0 1.53125 -0.15625q0.625 -0.15625 0.9375 -0.296875l0.25 1.453125q-0.3125 0.15625 -1.109375 0.34375q-0.796875 0.1875 -1.796875 0.1875q-1.265625 0 -2.203125 -0.375q-0.921875 -0.390625 -1.515625 -1.0625q-0.59375 -0.671875 -0.890625 -1.59375q-0.28125 -0.921875 -0.28125 -2.015625zm6.65625 -0.953125q0.015625 -1.171875 -0.59375 -1.921875q-0.59375 -0.765625 -1.65625 -0.765625q-0.609375 0 -1.0625 0.234375q-0.453125 0.234375 -0.78125 0.609375q-0.3125 0.375 -0.484375 0.859375q-0.171875 0.484375 -0.234375 0.984375l4.8125 0zm7.897583 -4.125q0.21875 0 0.5 0.03125q0.296875 0.03125 0.578125 0.078125q0.28125 0.046875 0.515625 0.09375q0.234375 0.046875 0.34375 0.078125l-0.296875 1.515625q-0.203125 -0.078125 -0.6875 -0.171875q-0.46875 -0.109375 -1.21875 -0.109375q-0.484375 0 -0.96875 0.109375q-0.46875 0.09375 -0.609375 0.125l0 8.15625l-1.734375 0l0 -9.296875q0.609375 -0.21875 1.515625 -0.40625q0.921875 -0.203125 2.0625 -0.203125zm5.8731995 8.65625q1.0625 0 1.578125 -0.28125q0.515625 -0.28125 0.515625 -0.890625q0 -0.640625 -0.515625 -1.015625q-0.5 -0.375 -1.65625 -0.828125q-0.5625 -0.234375 -1.078125 -0.46875q-0.5 -0.234375 -0.875 -0.546875q-0.375 -0.3125 -0.609375 -0.765625q-0.21875 -0.453125 -0.21875 -1.09375q0 -1.296875 0.953125 -2.046875q0.953125 -0.75 2.59375 -0.75q0.40625 0 0.8125 0.046875q0.421875 0.046875 0.765625 0.109375q0.359375 0.0625 0.625 0.140625q0.28125 0.0625 0.4375 0.125l-0.328125 1.5q-0.28125 -0.15625 -0.875 -0.3125q-0.59375 -0.15625 -1.4375 -0.15625q-0.71875 0 -1.265625 0.296875q-0.546875 0.28125 -0.546875 0.890625q0 0.3125 0.125 0.5625q0.125 0.234375 0.375 0.4375q0.25 0.203125 0.625 0.375q0.375 0.15625 0.890625 0.34375q0.6875 0.265625 1.234375 0.515625q0.546875 0.25 0.921875 0.59375q0.390625 0.328125 0.59375 0.8125q0.203125 0.46875 0.203125 1.15625q0 1.34375 -1.0 2.03125q-1.0 0.6875 -2.84375 0.6875q-1.28125 0 -2.015625 -0.21875q-0.734375 -0.203125 -0.984375 -0.3125l0.3125 -1.5q0.296875 0.109375 0.953125 0.34375q0.65625 0.21875 1.734375 0.21875z" fill-rule="nonzero"/><path fill="#000000" d="m360.63885 395.7836q0.46875 -0.109375 1.234375 -0.234375q0.78125 -0.140625 1.796875 -0.140625q0.90625 0 1.5 0.265625q0.609375 0.25 0.96875 0.71875q0.359375 0.453125 0.5 1.09375q0.15625 0.640625 0.15625 1.421875l0 4.28125l-1.359375 0l0 -3.984375q0 -0.703125 -0.09375 -1.203125q-0.09375 -0.5 -0.328125 -0.796875q-0.21875 -0.3125 -0.578125 -0.453125q-0.359375 -0.140625 -0.90625 -0.140625q-0.21875 0 -0.453125 0.015625q-0.234375 0.015625 -0.453125 0.046875q-0.203125 0.015625 -0.375 0.046875q-0.171875 0.015625 -0.25 0.03125l0 6.4375l-1.359375 0l0 -7.40625zm14.47522 7.1875q-0.46875 0.109375 -1.234375 0.234375q-0.765625 0.140625 -1.78125 0.140625q-0.875 0 -1.484375 -0.25q-0.59375 -0.265625 -0.96875 -0.734375q-0.359375 -0.46875 -0.53125 -1.09375q-0.15625 -0.640625 -0.15625 -1.421875l0 -4.28125l1.375 0l0 3.984375q0 1.390625 0.4375 2.0q0.4375 0.59375 1.484375 0.59375q0.21875 0 0.453125 0q0.234375 -0.015625 0.4375 -0.03125q0.203125 -0.03125 0.359375 -0.046875q0.171875 -0.03125 0.25 -0.0625l0 -6.4375l1.359375 0l0 7.40625zm2.3502197 -7.1875q0.46875 -0.109375 1.234375 -0.234375q0.78125 -0.140625 1.78125 -0.140625q0.734375 0 1.234375 0.203125q0.5 0.1875 0.84375 0.578125q0.09375 -0.078125 0.3125 -0.203125q0.21875 -0.140625 0.546875 -0.265625q0.328125 -0.125 0.71875 -0.21875q0.390625 -0.09375 0.84375 -0.09375q0.890625 0 1.4375 0.265625q0.5625 0.25 0.875 0.71875q0.3125 0.46875 0.421875 1.109375q0.109375 0.640625 0.109375 1.40625l0 4.28125l-1.359375 0l0 -3.984375q0 -0.671875 -0.0625 -1.15625q-0.0625 -0.484375 -0.25 -0.796875q-0.1875 -0.328125 -0.5 -0.484375q-0.3125 -0.15625 -0.8125 -0.15625q-0.6875 0 -1.140625 0.1875q-0.4375 0.171875 -0.609375 0.328125q0.125 0.375 0.171875 0.828125q0.0625 0.453125 0.0625 0.953125l0 4.28125l-1.359375 0l0 -3.984375q0 -0.671875 -0.078125 -1.15625q-0.0625 -0.484375 -0.25 -0.796875q-0.1875 -0.328125 -0.5 -0.484375q-0.3125 -0.15625 -0.796875 -0.15625q-0.203125 0 -0.4375 0.015625q-0.234375 0.015625 -0.453125 0.046875q-0.203125 0.015625 -0.390625 0.046875q-0.171875 0.015625 -0.234375 0.03125l0 6.4375l-1.359375 0l0 -7.40625zm12.197205 3.609375q0 -1.015625 0.28125 -1.765625q0.296875 -0.75 0.78125 -1.25q0.484375 -0.5 1.109375 -0.75q0.640625 -0.25 1.296875 -0.25q1.546875 0 2.359375 0.96875q0.828125 0.953125 0.828125 2.921875q0 0.078125 0 0.21875q0 0.140625 -0.015625 0.265625l-5.21875 0q0.078125 1.1875 0.671875 1.796875q0.609375 0.609375 1.890625 0.609375q0.71875 0 1.203125 -0.125q0.5 -0.125 0.75 -0.234375l0.1875 1.140625q-0.25 0.125 -0.875 0.265625q-0.625 0.15625 -1.40625 0.15625q-1.0 0 -1.734375 -0.296875q-0.71875 -0.296875 -1.1875 -0.828125q-0.46875 -0.53125 -0.703125 -1.25q-0.21875 -0.734375 -0.21875 -1.59375zm5.234375 -0.75q0.015625 -0.921875 -0.46875 -1.515625q-0.46875 -0.59375 -1.3125 -0.59375q-0.46875 0 -0.828125 0.1875q-0.359375 0.1875 -0.609375 0.484375q-0.25 0.28125 -0.390625 0.671875q-0.125 0.375 -0.171875 0.765625l3.78125 0zm6.192871 -3.234375q0.171875 0 0.390625 0.03125q0.234375 0.015625 0.453125 0.046875q0.234375 0.03125 0.40625 0.078125q0.1875 0.03125 0.28125 0.0625l-0.234375 1.1875q-0.171875 -0.0625 -0.546875 -0.140625q-0.359375 -0.078125 -0.953125 -0.078125q-0.375 0 -0.75 0.078125q-0.375 0.078125 -0.5 0.109375l0 6.40625l-1.359375 0l0 -7.296875q0.484375 -0.171875 1.203125 -0.328125q0.71875 -0.15625 1.609375 -0.15625zm4.2042236 7.78125l-1.359375 0l0 -7.625l1.359375 0l0 7.625zm-0.6875 -9.0q-0.359375 0 -0.625 -0.234375q-0.25 -0.25 -0.25 -0.65625q0 -0.40625 0.25 -0.640625q0.265625 -0.25 0.625 -0.25q0.375 0 0.625 0.25q0.25 0.234375 0.25 0.640625q0 0.40625 -0.25 0.65625q-0.25 0.234375 -0.625 0.234375zm6.3486633 9.171875q-0.921875 0 -1.625 -0.28125q-0.6875 -0.296875 -1.171875 -0.828125q-0.46875 -0.53125 -0.703125 -1.25q-0.234375 -0.734375 -0.234375 -1.609375q0 -0.875 0.25 -1.609375q0.265625 -0.734375 0.734375 -1.265625q0.46875 -0.53125 1.140625 -0.828125q0.6875 -0.3125 1.515625 -0.3125q0.515625 0 1.03125 0.09375q0.515625 0.078125 0.984375 0.265625l-0.3125 1.171875q-0.296875 -0.15625 -0.703125 -0.234375q-0.40625 -0.09375 -0.859375 -0.09375q-1.140625 0 -1.75 0.71875q-0.609375 0.71875 -0.609375 2.09375q0 0.609375 0.140625 1.125q0.140625 0.515625 0.4375 0.890625q0.296875 0.359375 0.765625 0.5625q0.46875 0.1875 1.140625 0.1875q0.546875 0 0.984375 -0.09375q0.4375 -0.109375 0.6875 -0.21875l0.1875 1.140625q-0.109375 0.078125 -0.328125 0.140625q-0.21875 0.0625 -0.5 0.109375q-0.28125 0.0625 -0.59375 0.09375q-0.3125 0.03125 -0.609375 0.03125zm9.4664 -1.15625q0.484375 0 0.859375 -0.015625q0.375 -0.03125 0.625 -0.078125l0 -2.28125q-0.15625 -0.0625 -0.484375 -0.109375q-0.328125 -0.0625 -0.796875 -0.0625q-0.296875 0 -0.65625 0.046875q-0.34375 0.046875 -0.625 0.1875q-0.28125 0.125 -0.46875 0.375q-0.1875 0.234375 -0.1875 0.640625q0 0.734375 0.46875 1.015625q0.46875 0.28125 1.265625 0.28125zm-0.109375 -6.828125q0.8125 0 1.375 0.21875q0.5625 0.203125 0.90625 0.59375q0.34375 0.390625 0.484375 0.921875q0.15625 0.53125 0.15625 1.1875l0 4.765625q-0.171875 0.015625 -0.484375 0.078125q-0.3125 0.046875 -0.71875 0.09375q-0.390625 0.046875 -0.859375 0.078125q-0.453125 0.03125 -0.90625 0.03125q-0.640625 0 -1.1875 -0.140625q-0.546875 -0.125 -0.953125 -0.40625q-0.390625 -0.28125 -0.609375 -0.75q-0.21875 -0.46875 -0.21875 -1.125q0 -0.640625 0.25 -1.09375q0.265625 -0.453125 0.703125 -0.734375q0.4375 -0.28125 1.015625 -0.40625q0.59375 -0.125 1.25 -0.125q0.203125 0 0.421875 0.015625q0.21875 0.015625 0.40625 0.0625q0.203125 0.03125 0.34375 0.0625q0.15625 0.03125 0.21875 0.046875l0 -0.390625q0 -0.328125 -0.078125 -0.65625q-0.078125 -0.328125 -0.265625 -0.578125q-0.1875 -0.265625 -0.515625 -0.421875q-0.328125 -0.15625 -0.859375 -0.15625q-0.671875 0 -1.1875 0.09375q-0.5 0.09375 -0.75 0.203125l-0.15625 -1.125q0.265625 -0.125 0.875 -0.234375q0.625 -0.109375 1.34375 -0.109375zm7.9943542 0.03125q0.171875 0 0.390625 0.03125q0.234375 0.015625 0.453125 0.046875q0.234375 0.03125 0.40625 0.078125q0.1875 0.03125 0.28125 0.0625l-0.234375 1.1875q-0.171875 -0.0625 -0.546875 -0.140625q-0.359375 -0.078125 -0.953125 -0.078125q-0.375 0 -0.75 0.078125q-0.375 0.078125 -0.5 0.109375l0 6.40625l-1.359375 0l0 -7.296875q0.484375 -0.171875 1.203125 -0.328125q0.71875 -0.15625 1.609375 -0.15625zm5.657318 0q0.171875 0 0.390625 0.03125q0.234375 0.015625 0.453125 0.046875q0.234375 0.03125 0.40625 0.078125q0.1875 0.03125 0.28125 0.0625l-0.234375 1.1875q-0.171875 -0.0625 -0.546875 -0.140625q-0.359375 -0.078125 -0.953125 -0.078125q-0.375 0 -0.75 0.078125q-0.375 0.078125 -0.5 0.109375l0 6.40625l-1.359375 0l0 -7.296875q0.484375 -0.171875 1.203125 -0.328125q0.71875 -0.15625 1.609375 -0.15625zm5.4229736 6.796875q0.484375 0 0.859375 -0.015625q0.375 -0.03125 0.625 -0.078125l0 -2.28125q-0.15625 -0.0625 -0.484375 -0.109375q-0.328125 -0.0625 -0.796875 -0.0625q-0.296875 0 -0.65625 0.046875q-0.34375 0.046875 -0.625 0.1875q-0.28125 0.125 -0.46875 0.375q-0.1875 0.234375 -0.1875 0.640625q0 0.734375 0.46875 1.015625q0.46875 0.28125 1.265625 0.28125zm-0.109375 -6.828125q0.8125 0 1.375 0.21875q0.5625 0.203125 0.90625 0.59375q0.34375 0.390625 0.484375 0.921875q0.15625 0.53125 0.15625 1.1875l0 4.765625q-0.171875 0.015625 -0.484375 0.078125q-0.3125 0.046875 -0.71875 0.09375q-0.390625 0.046875 -0.859375 0.078125q-0.453125 0.03125 -0.90625 0.03125q-0.640625 0 -1.1875 -0.140625q-0.546875 -0.125 -0.953125 -0.40625q-0.390625 -0.28125 -0.609375 -0.75q-0.21875 -0.46875 -0.21875 -1.125q0 -0.640625 0.25 -1.09375q0.265625 -0.453125 0.703125 -0.734375q0.4375 -0.28125 1.015625 -0.40625q0.59375 -0.125 1.25 -0.125q0.203125 0 0.421875 0.015625q0.21875 0.015625 0.40625 0.0625q0.203125 0.03125 0.34375 0.0625q0.15625 0.03125 0.21875 0.046875l0 -0.390625q0 -0.328125 -0.078125 -0.65625q-0.078125 -0.328125 -0.265625 -0.578125q-0.1875 -0.265625 -0.515625 -0.421875q-0.328125 -0.15625 -0.859375 -0.15625q-0.671875 0 -1.1875 0.09375q-0.5 0.09375 -0.75 0.203125l-0.15625 -1.125q0.265625 -0.125 0.875 -0.234375q0.625 -0.109375 1.34375 -0.109375zm4.0711975 9.234375q0.15625 0.078125 0.40625 0.140625q0.265625 0.0625 0.515625 0.0625q0.8125 0 1.265625 -0.359375q0.453125 -0.359375 0.8125 -1.15625q-0.921875 -1.765625 -1.71875 -3.734375q-0.796875 -1.96875 -1.328125 -4.0l1.46875 0q0.15625 0.65625 0.375 1.421875q0.234375 0.765625 0.515625 1.578125q0.28125 0.796875 0.59375 1.609375q0.328125 0.796875 0.6875 1.546875q0.546875 -1.53125 0.953125 -3.046875q0.421875 -1.515625 0.78125 -3.109375l1.40625 0q-0.515625 2.15625 -1.171875 4.140625q-0.640625 1.984375 -1.390625 3.71875q-0.296875 0.65625 -0.609375 1.125q-0.3125 0.484375 -0.703125 0.796875q-0.375 0.3125 -0.859375 0.453125q-0.46875 0.140625 -1.0625 0.140625q-0.15625 0 -0.34375 -0.015625q-0.171875 -0.015625 -0.34375 -0.0625q-0.171875 -0.03125 -0.3125 -0.078125q-0.125 -0.046875 -0.1875 -0.078125l0.25 -1.09375z" fill-rule="nonzero"/><defs><radialGradient id="p.2" gradientUnits="userSpaceOnUse" gradientTransform="matrix(9.941517700843983 0.0 0.0 9.941517700843983 0.0 0.0)" spreadMethod="pad" cx="40.72907092376694" cy="15.466055346767918" fx="40.72907092376694" fy="15.466055346767918" r="9.94151782989502"><stop offset="0.0" stop-color="#f2f2f2"/><stop offset="1.0" stop-color="#a6a6a6"/></radialGradient></defs><path fill="url(#p.2)" d="m316.86154 108.85843l176.09448 0l0 89.79527l-176.09448 0z" fill-rule="evenodd"/><path stroke="#000000" stroke-width="1.0" stroke-linejoin="round" stroke-linecap="butt" d="m316.86154 108.85843l176.09448 0l0 89.79527l-176.09448 0z" fill-rule="evenodd"/><path fill="#000000" d="m353.26978 150.3948q2.828125 0 2.828125 -1.953125q0 -0.59375 -0.25 -1.015625q-0.25 -0.421875 -0.6875 -0.71875q-0.421875 -0.3125 -0.96875 -0.53125q-0.546875 -0.234375 -1.171875 -0.453125q-0.703125 -0.234375 -1.34375 -0.546875q-0.625 -0.3125 -1.09375 -0.734375q-0.46875 -0.421875 -0.734375 -1.0q-0.265625 -0.578125 -0.265625 -1.390625q0 -1.703125 1.15625 -2.65625q1.15625 -0.953125 3.1875 -0.953125q1.171875 0 2.125 0.265625q0.96875 0.25 1.421875 0.546875l-0.578125 1.46875q-0.40625 -0.234375 -1.1875 -0.46875q-0.765625 -0.234375 -1.78125 -0.234375q-0.53125 0 -0.984375 0.109375q-0.4375 0.109375 -0.78125 0.34375q-0.328125 0.21875 -0.53125 0.5625q-0.1875 0.34375 -0.1875 0.8125q0 0.515625 0.203125 0.875q0.203125 0.359375 0.578125 0.625q0.375 0.265625 0.859375 0.5q0.5 0.21875 1.09375 0.4375q0.84375 0.34375 1.546875 0.6875q0.703125 0.328125 1.203125 0.796875q0.515625 0.453125 0.796875 1.109375q0.28125 0.640625 0.28125 1.546875q0 1.703125 -1.25 2.625q-1.234375 0.90625 -3.484375 0.90625q-0.765625 0 -1.40625 -0.109375q-0.640625 -0.09375 -1.15625 -0.234375q-0.5 -0.140625 -0.859375 -0.296875q-0.359375 -0.15625 -0.578125 -0.28125l0.546875 -1.484375q0.421875 0.234375 1.296875 0.546875q0.890625 0.296875 2.15625 0.296875zm10.096985 0.03125q0.609375 0 1.078125 -0.03125q0.484375 -0.03125 0.796875 -0.09375l0 -2.890625q-0.1875 -0.09375 -0.609375 -0.15625q-0.40625 -0.078125 -1.015625 -0.078125q-0.390625 0 -0.828125 0.0625q-0.4375 0.046875 -0.796875 0.234375q-0.359375 0.171875 -0.609375 0.484375q-0.234375 0.296875 -0.234375 0.8125q0 0.921875 0.59375 1.296875q0.59375 0.359375 1.625 0.359375zm-0.15625 -8.6875q1.046875 0 1.765625 0.265625q0.71875 0.265625 1.15625 0.765625q0.4375 0.5 0.625 1.1875q0.1875 0.671875 0.1875 1.484375l0 6.0625q-0.21875 0.046875 -0.625 0.109375q-0.40625 0.0625 -0.90625 0.109375q-0.5 0.0625 -1.09375 0.109375q-0.578125 0.046875 -1.15625 0.046875q-0.828125 0 -1.515625 -0.171875q-0.6875 -0.15625 -1.203125 -0.515625q-0.5 -0.375 -0.78125 -0.96875q-0.28125 -0.59375 -0.28125 -1.4375q0 -0.796875 0.328125 -1.375q0.328125 -0.578125 0.890625 -0.9375q0.5625 -0.359375 1.296875 -0.515625q0.75 -0.171875 1.578125 -0.171875q0.265625 0 0.53125 0.03125q0.28125 0.015625 0.53125 0.0625q0.265625 0.046875 0.4375 0.09375q0.1875 0.03125 0.265625 0.046875l0 -0.484375q0 -0.421875 -0.09375 -0.84375q-0.09375 -0.421875 -0.34375 -0.75q-0.234375 -0.328125 -0.65625 -0.515625q-0.40625 -0.203125 -1.078125 -0.203125q-0.859375 0 -1.515625 0.125q-0.640625 0.125 -0.953125 0.25l-0.203125 -1.4375q0.328125 -0.140625 1.109375 -0.28125q0.796875 -0.140625 1.703125 -0.140625zm6.6135864 0.515625q0.59375 -0.15625 1.5625 -0.3125q0.984375 -0.171875 2.265625 -0.171875q0.9375 0 1.5625 0.25q0.640625 0.25 1.078125 0.734375q0.125 -0.09375 0.40625 -0.25q0.28125 -0.171875 0.6875 -0.328125q0.421875 -0.15625 0.921875 -0.28125q0.5 -0.125 1.078125 -0.125q1.125 0 1.828125 0.328125q0.703125 0.328125 1.109375 0.921875q0.40625 0.59375 0.546875 1.421875q0.140625 0.8125 0.140625 1.78125l0 5.453125l-1.734375 0l0 -5.078125q0 -0.859375 -0.09375 -1.46875q-0.078125 -0.609375 -0.3125 -1.015625q-0.234375 -0.421875 -0.640625 -0.609375q-0.390625 -0.203125 -1.03125 -0.203125q-0.875 0 -1.453125 0.234375q-0.5625 0.234375 -0.765625 0.421875q0.15625 0.484375 0.21875 1.0625q0.078125 0.578125 0.078125 1.203125l0 5.453125l-1.734375 0l0 -5.078125q0 -0.859375 -0.09375 -1.46875q-0.09375 -0.609375 -0.328125 -1.015625q-0.234375 -0.421875 -0.640625 -0.609375q-0.390625 -0.203125 -1.0 -0.203125q-0.265625 0 -0.5625 0.015625q-0.296875 0.015625 -0.578125 0.046875q-0.265625 0.03125 -0.5 0.078125q-0.21875 0.03125 -0.28125 0.046875l0 8.1875l-1.734375 0l0 -9.421875zm22.797394 4.59375q0 -1.703125 -0.84375 -2.609375q-0.84375 -0.921875 -2.234375 -0.921875q-0.796875 0 -1.234375 0.0625q-0.4375 0.046875 -0.6875 0.125l0 6.125q0.3125 0.25 0.90625 0.5q0.59375 0.234375 1.3125 0.234375q0.734375 0 1.265625 -0.265625q0.53125 -0.265625 0.859375 -0.734375q0.34375 -0.484375 0.5 -1.125q0.15625 -0.640625 0.15625 -1.390625zm1.796875 0q0 1.09375 -0.296875 2.03125q-0.28125 0.9375 -0.84375 1.609375q-0.546875 0.671875 -1.359375 1.046875q-0.8125 0.359375 -1.859375 0.359375q-0.84375 0 -1.484375 -0.21875q-0.640625 -0.21875 -0.953125 -0.421875l0 3.875l-1.734375 0l0 -12.859375q0.609375 -0.140625 1.53125 -0.3125q0.921875 -0.1875 2.140625 -0.1875q1.109375 0 2.0 0.359375q0.90625 0.34375 1.53125 1.0q0.640625 0.65625 0.984375 1.609375q0.34375 0.9375 0.34375 2.109375zm5.363556 5.015625q-1.609375 -0.03125 -2.28125 -0.6875q-0.671875 -0.65625 -0.671875 -2.03125l0 -11.640625l1.734375 -0.3125l0 11.671875q0 0.421875 0.078125 0.703125q0.078125 0.28125 0.234375 0.453125q0.171875 0.15625 0.453125 0.25q0.28125 0.078125 0.6875 0.140625l-0.234375 1.453125zm1.6400146 -5.015625q0 -1.296875 0.375 -2.25q0.375 -0.96875 0.984375 -1.59375q0.609375 -0.640625 1.40625 -0.953125q0.8125 -0.3125 1.65625 -0.3125q1.953125 0 3.0 1.21875q1.046875 1.21875 1.046875 3.71875q0 0.109375 0 0.296875q0 0.171875 -0.015625 0.3125l-6.640625 0q0.109375 1.515625 0.875 2.296875q0.765625 0.78125 2.390625 0.78125q0.90625 0 1.53125 -0.15625q0.625 -0.15625 0.9375 -0.296875l0.25 1.453125q-0.3125 0.15625 -1.109375 0.34375q-0.796875 0.1875 -1.796875 0.1875q-1.265625 0 -2.203125 -0.375q-0.921875 -0.390625 -1.515625 -1.0625q-0.59375 -0.671875 -0.890625 -1.59375q-0.28125 -0.921875 -0.28125 -2.015625zm6.65625 -0.953125q0.015625 -1.171875 -0.59375 -1.921875q-0.59375 -0.765625 -1.65625 -0.765625q-0.609375 0 -1.0625 0.234375q-0.453125 0.234375 -0.78125 0.609375q-0.3125 0.375 -0.484375 0.859375q-0.171875 0.484375 -0.234375 0.984375l4.8125 0zm17.37909 -7.140625l0 1.5625l-4.078125 0l0 11.359375l-1.8125 0l0 -11.359375l-4.0625 0l0 -1.5625l9.953125 0zm4.232025 11.671875q0.609375 0 1.078125 -0.03125q0.484375 -0.03125 0.796875 -0.09375l0 -2.890625q-0.1875 -0.09375 -0.609375 -0.15625q-0.40625 -0.078125 -1.015625 -0.078125q-0.390625 0 -0.828125 0.0625q-0.4375 0.046875 -0.796875 0.234375q-0.359375 0.171875 -0.609375 0.484375q-0.234375 0.296875 -0.234375 0.8125q0 0.921875 0.59375 1.296875q0.59375 0.359375 1.625 0.359375zm-0.15625 -8.6875q1.046875 0 1.765625 0.265625q0.71875 0.265625 1.15625 0.765625q0.4375 0.5 0.625 1.1875q0.1875 0.671875 0.1875 1.484375l0 6.0625q-0.21875 0.046875 -0.625 0.109375q-0.40625 0.0625 -0.90625 0.109375q-0.5 0.0625 -1.09375 0.109375q-0.578125 0.046875 -1.15625 0.046875q-0.828125 0 -1.515625 -0.171875q-0.6875 -0.15625 -1.203125 -0.515625q-0.5 -0.375 -0.78125 -0.96875q-0.28125 -0.59375 -0.28125 -1.4375q0 -0.796875 0.328125 -1.375q0.328125 -0.578125 0.890625 -0.9375q0.5625 -0.359375 1.296875 -0.515625q0.75 -0.171875 1.578125 -0.171875q0.265625 0 0.53125 0.03125q0.28125 0.015625 0.53125 0.0625q0.265625 0.046875 0.4375 0.09375q0.1875 0.03125 0.265625 0.046875l0 -0.484375q0 -0.421875 -0.09375 -0.84375q-0.09375 -0.421875 -0.34375 -0.75q-0.234375 -0.328125 -0.65625 -0.515625q-0.40625 -0.203125 -1.078125 -0.203125q-0.859375 0 -1.515625 0.125q-0.640625 0.125 -0.953125 0.25l-0.203125 -1.4375q0.328125 -0.140625 1.109375 -0.28125q0.796875 -0.140625 1.703125 -0.140625zm8.347961 0.671875q0.3125 -0.21875 0.953125 -0.4375q0.640625 -0.21875 1.484375 -0.21875q1.046875 0 1.859375 0.375q0.8125 0.375 1.359375 1.046875q0.5625 0.671875 0.84375 1.609375q0.296875 0.921875 0.296875 2.046875q0 1.171875 -0.34375 2.109375q-0.34375 0.9375 -0.984375 1.59375q-0.625 0.65625 -1.53125 1.015625q-0.890625 0.34375 -2.0 0.34375q-1.21875 0 -2.15625 -0.171875q-0.921875 -0.15625 -1.515625 -0.328125l0 -13.890625l1.734375 -0.3125l0 5.21875zm0 7.75q0.25 0.078125 0.71875 0.140625q0.484375 0.0625 1.203125 0.0625q1.390625 0 2.234375 -0.921875q0.84375 -0.921875 0.84375 -2.609375q0 -0.75 -0.15625 -1.40625q-0.15625 -0.65625 -0.5 -1.125q-0.328125 -0.484375 -0.859375 -0.75q-0.53125 -0.265625 -1.265625 -0.265625q-0.71875 0 -1.3125 0.25q-0.59375 0.234375 -0.90625 0.484375l0 6.140625zm12.1604 1.703125q-1.609375 -0.03125 -2.28125 -0.6875q-0.671875 -0.65625 -0.671875 -2.03125l0 -11.640625l1.734375 -0.3125l0 11.671875q0 0.421875 0.078125 0.703125q0.078125 0.28125 0.234375 0.453125q0.171875 0.15625 0.453125 0.25q0.28125 0.078125 0.6875 0.140625l-0.234375 1.453125zm1.6400452 -5.015625q0 -1.296875 0.375 -2.25q0.375 -0.96875 0.984375 -1.59375q0.609375 -0.640625 1.40625 -0.953125q0.8125 -0.3125 1.65625 -0.3125q1.953125 0 3.0 1.21875q1.046875 1.21875 1.046875 3.71875q0 0.109375 0 0.296875q0 0.171875 -0.015625 0.3125l-6.640625 0q0.109375 1.515625 0.875 2.296875q0.765625 0.78125 2.390625 0.78125q0.90625 0 1.53125 -0.15625q0.625 -0.15625 0.9375 -0.296875l0.25 1.453125q-0.3125 0.15625 -1.109375 0.34375q-0.796875 0.1875 -1.796875 0.1875q-1.265625 0 -2.203125 -0.375q-0.921875 -0.390625 -1.515625 -1.0625q-0.59375 -0.671875 -0.890625 -1.59375q-0.28125 -0.921875 -0.28125 -2.015625zm6.65625 -0.953125q0.015625 -1.171875 -0.59375 -1.921875q-0.59375 -0.765625 -1.65625 -0.765625q-0.609375 0 -1.0625 0.234375q-0.453125 0.234375 -0.78125 0.609375q-0.3125 0.375 -0.484375 0.859375q-0.171875 0.484375 -0.234375 0.984375l4.8125 0z" fill-rule="nonzero"/><path fill="#000000" d="m377.9939 164.75793q0 1.3125 -0.40625 2.296875q-0.40625 0.96875 -1.15625 1.609375q-0.75 0.625 -1.796875 0.953125q-1.03125 0.3125 -2.28125 0.3125q-0.609375 0 -1.359375 -0.0625q-0.734375 -0.046875 -1.328125 -0.1875l0 -9.859375q0.59375 -0.140625 1.328125 -0.1875q0.75 -0.0625 1.359375 -0.0625q1.25 0 2.28125 0.328125q1.046875 0.3125 1.796875 0.953125q0.75 0.625 1.15625 1.609375q0.40625 0.96875 0.40625 2.296875zm-5.515625 3.921875q2.015625 0 3.015625 -1.03125q1.0 -1.03125 1.0 -2.890625q0 -1.875 -1.0 -2.90625q-1.0 -1.03125 -3.015625 -1.03125q-0.609375 0 -0.9375 0.015625q-0.328125 0.015625 -0.453125 0.03125l0 7.765625q0.125 0.015625 0.453125 0.03125q0.328125 0.015625 0.9375 0.015625zm9.916473 0.171875q0.484375 0 0.859375 -0.015625q0.375 -0.03125 0.625 -0.078125l0 -2.28125q-0.15625 -0.0625 -0.484375 -0.109375q-0.328125 -0.0625 -0.796875 -0.0625q-0.296875 0 -0.65625 0.046875q-0.34375 0.046875 -0.625 0.1875q-0.28125 0.125 -0.46875 0.375q-0.1875 0.234375 -0.1875 0.640625q0 0.734375 0.46875 1.015625q0.46875 0.28125 1.265625 0.28125zm-0.109375 -6.828125q0.8125 0 1.375 0.21875q0.5625 0.203125 0.90625 0.59375q0.34375 0.390625 0.484375 0.921875q0.15625 0.53125 0.15625 1.1875l0 4.765625q-0.171875 0.015625 -0.484375 0.078125q-0.3125 0.046875 -0.71875 0.09375q-0.390625 0.046875 -0.859375 0.078125q-0.453125 0.03125 -0.90625 0.03125q-0.640625 0 -1.1875 -0.140625q-0.546875 -0.125 -0.953125 -0.40625q-0.390625 -0.28125 -0.609375 -0.75q-0.21875 -0.46875 -0.21875 -1.125q0 -0.640625 0.25 -1.09375q0.265625 -0.453125 0.703125 -0.734375q0.4375 -0.28125 1.015625 -0.40625q0.59375 -0.125 1.25 -0.125q0.203125 0 0.421875 0.015625q0.21875 0.015625 0.40625 0.0625q0.203125 0.03125 0.34375 0.0625q0.15625 0.03125 0.21875 0.046875l0 -0.390625q0 -0.328125 -0.078125 -0.65625q-0.078125 -0.328125 -0.265625 -0.578125q-0.1875 -0.265625 -0.515625 -0.421875q-0.328125 -0.15625 -0.859375 -0.15625q-0.671875 0 -1.1875 0.09375q-0.5 0.09375 -0.75 0.203125l-0.15625 -1.125q0.265625 -0.125 0.875 -0.234375q0.625 -0.109375 1.34375 -0.109375zm6.4631042 0.1875l2.875 0l0 1.140625l-2.875 0l0 3.53125q0 0.5625 0.078125 0.9375q0.09375 0.375 0.265625 0.59375q0.171875 0.203125 0.4375 0.296875q0.265625 0.078125 0.625 0.078125q0.609375 0 0.984375 -0.125q0.375 -0.140625 0.515625 -0.203125l0.265625 1.125q-0.203125 0.109375 -0.71875 0.25q-0.515625 0.15625 -1.171875 0.15625q-0.78125 0 -1.28125 -0.1875q-0.5 -0.203125 -0.8125 -0.59375q-0.3125 -0.40625 -0.4375 -0.984375q-0.125 -0.578125 -0.125 -1.34375l0 -6.796875l1.375 -0.234375l0 2.359375zm7.18869 6.640625q0.484375 0 0.859375 -0.015625q0.375 -0.03125 0.625 -0.078125l0 -2.28125q-0.15625 -0.0625 -0.484375 -0.109375q-0.328125 -0.0625 -0.796875 -0.0625q-0.296875 0 -0.65625 0.046875q-0.34375 0.046875 -0.625 0.1875q-0.28125 0.125 -0.46875 0.375q-0.1875 0.234375 -0.1875 0.640625q0 0.734375 0.46875 1.015625q0.46875 0.28125 1.265625 0.28125zm-0.109375 -6.828125q0.8125 0 1.375 0.21875q0.5625 0.203125 0.90625 0.59375q0.34375 0.390625 0.484375 0.921875q0.15625 0.53125 0.15625 1.1875l0 4.765625q-0.171875 0.015625 -0.484375 0.078125q-0.3125 0.046875 -0.71875 0.09375q-0.390625 0.046875 -0.859375 0.078125q-0.453125 0.03125 -0.90625 0.03125q-0.640625 0 -1.1875 -0.140625q-0.546875 -0.125 -0.953125 -0.40625q-0.390625 -0.28125 -0.609375 -0.75q-0.21875 -0.46875 -0.21875 -1.125q0 -0.640625 0.25 -1.09375q0.265625 -0.453125 0.703125 -0.734375q0.4375 -0.28125 1.015625 -0.40625q0.59375 -0.125 1.25 -0.125q0.203125 0 0.421875 0.015625q0.21875 0.015625 0.40625 0.0625q0.203125 0.03125 0.34375 0.0625q0.15625 0.03125 0.21875 0.046875l0 -0.390625q0 -0.328125 -0.078125 -0.65625q-0.078125 -0.328125 -0.265625 -0.578125q-0.1875 -0.265625 -0.515625 -0.421875q-0.328125 -0.15625 -0.859375 -0.15625q-0.671875 0 -1.1875 0.09375q-0.5 0.09375 -0.75 0.203125l-0.15625 -1.125q0.265625 -0.125 0.875 -0.234375q0.625 -0.109375 1.34375 -0.109375zm5.2756042 7.8125l0 -10.15625l6.125 0l0 1.21875l-4.703125 0l0 3.0625l4.171875 0l0 1.203125l-4.171875 0l0 4.671875l-1.421875 0zm10.178528 -7.78125q0.171875 0 0.390625 0.03125q0.234375 0.015625 0.453125 0.046875q0.234375 0.03125 0.40625 0.078125q0.1875 0.03125 0.28125 0.0625l-0.234375 1.1875q-0.171875 -0.0625 -0.546875 -0.140625q-0.359375 -0.078125 -0.953125 -0.078125q-0.375 0 -0.75 0.078125q-0.375 0.078125 -0.5 0.109375l0 6.40625l-1.359375 0l0 -7.296875q0.484375 -0.171875 1.203125 -0.328125q0.71875 -0.15625 1.609375 -0.15625zm5.422943 6.796875q0.484375 0 0.859375 -0.015625q0.375 -0.03125 0.625 -0.078125l0 -2.28125q-0.15625 -0.0625 -0.484375 -0.109375q-0.328125 -0.0625 -0.796875 -0.0625q-0.296875 0 -0.65625 0.046875q-0.34375 0.046875 -0.625 0.1875q-0.28125 0.125 -0.46875 0.375q-0.1875 0.234375 -0.1875 0.640625q0 0.734375 0.46875 1.015625q0.46875 0.28125 1.265625 0.28125zm-0.109375 -6.828125q0.8125 0 1.375 0.21875q0.5625 0.203125 0.90625 0.59375q0.34375 0.390625 0.484375 0.921875q0.15625 0.53125 0.15625 1.1875l0 4.765625q-0.171875 0.015625 -0.484375 0.078125q-0.3125 0.046875 -0.71875 0.09375q-0.390625 0.046875 -0.859375 0.078125q-0.453125 0.03125 -0.90625 0.03125q-0.640625 0 -1.1875 -0.140625q-0.546875 -0.125 -0.953125 -0.40625q-0.390625 -0.28125 -0.609375 -0.75q-0.21875 -0.46875 -0.21875 -1.125q0 -0.640625 0.25 -1.09375q0.265625 -0.453125 0.703125 -0.734375q0.4375 -0.28125 1.015625 -0.40625q0.59375 -0.125 1.25 -0.125q0.203125 0 0.421875 0.015625q0.21875 0.015625 0.40625 0.0625q0.203125 0.03125 0.34375 0.0625q0.15625 0.03125 0.21875 0.046875l0 -0.390625q0 -0.328125 -0.078125 -0.65625q-0.078125 -0.328125 -0.265625 -0.578125q-0.1875 -0.265625 -0.515625 -0.421875q-0.328125 -0.15625 -0.859375 -0.15625q-0.671875 0 -1.1875 0.09375q-0.5 0.09375 -0.75 0.203125l-0.15625 -1.125q0.265625 -0.125 0.875 -0.234375q0.625 -0.109375 1.34375 -0.109375zm5.1818542 0.40625q0.46875 -0.109375 1.234375 -0.234375q0.78125 -0.140625 1.78125 -0.140625q0.734375 0 1.234375 0.203125q0.5 0.1875 0.84375 0.578125q0.09375 -0.078125 0.3125 -0.203125q0.21875 -0.140625 0.546875 -0.265625q0.328125 -0.125 0.71875 -0.21875q0.390625 -0.09375 0.84375 -0.09375q0.890625 0 1.4375 0.265625q0.5625 0.25 0.875 0.71875q0.3125 0.46875 0.421875 1.109375q0.109375 0.640625 0.109375 1.40625l0 4.28125l-1.359375 0l0 -3.984375q0 -0.671875 -0.0625 -1.15625q-0.0625 -0.484375 -0.25 -0.796875q-0.1875 -0.328125 -0.5 -0.484375q-0.3125 -0.15625 -0.8125 -0.15625q-0.6875 0 -1.140625 0.1875q-0.4375 0.171875 -0.609375 0.328125q0.125 0.375 0.171875 0.828125q0.0625 0.453125 0.0625 0.953125l0 4.28125l-1.359375 0l0 -3.984375q0 -0.671875 -0.078125 -1.15625q-0.0625 -0.484375 -0.25 -0.796875q-0.1875 -0.328125 -0.5 -0.484375q-0.3125 -0.15625 -0.796875 -0.15625q-0.203125 0 -0.4375 0.015625q-0.234375 0.015625 -0.453125 0.046875q-0.203125 0.015625 -0.390625 0.046875q-0.171875 0.015625 -0.234375 0.03125l0 6.4375l-1.359375 0l0 -7.40625zm12.197205 3.609375q0 -1.015625 0.28125 -1.765625q0.296875 -0.75 0.78125 -1.25q0.484375 -0.5 1.109375 -0.75q0.640625 -0.25 1.296875 -0.25q1.546875 0 2.359375 0.96875q0.828125 0.953125 0.828125 2.921875q0 0.078125 0 0.21875q0 0.140625 -0.015625 0.265625l-5.21875 0q0.078125 1.1875 0.671875 1.796875q0.609375 0.609375 1.890625 0.609375q0.71875 0 1.203125 -0.125q0.5 -0.125 0.75 -0.234375l0.1875 1.140625q-0.25 0.125 -0.875 0.265625q-0.625 0.15625 -1.40625 0.15625q-1.0 0 -1.734375 -0.296875q-0.71875 -0.296875 -1.1875 -0.828125q-0.46875 -0.53125 -0.703125 -1.25q-0.21875 -0.734375 -0.21875 -1.59375zm5.234375 -0.75q0.015625 -0.921875 -0.46875 -1.515625q-0.46875 -0.59375 -1.3125 -0.59375q-0.46875 0 -0.828125 0.1875q-0.359375 0.1875 -0.609375 0.484375q-0.25 0.28125 -0.390625 0.671875q-0.125 0.375 -0.171875 0.765625l3.78125 0z" fill-rule="nonzero"/><defs><radialGradient id="p.3" gradientUnits="userSpaceOnUse" gradientTransform="matrix(11.873996279586658 0.0 0.0 11.873996279586658 0.0 0.0)" spreadMethod="pad" cx="16.15458263179773" cy="32.60237029782219" fx="16.15458263179773" fy="32.60237029782219" r="11.87399673461914"><stop offset="0.0" stop-color="#f2f2f2"/><stop offset="1.0" stop-color="#a6a6a6"/></radialGradient></defs><path fill="url(#p.3)" d="m143.0793 254.82121l97.480316 0l0 264.5984l-97.480316 0z" fill-rule="evenodd"/><path stroke="#000000" stroke-width="1.0" stroke-linejoin="round" stroke-linecap="butt" d="m143.0793 254.82121l97.480316 0l0 264.5984l-97.480316 0z" fill-rule="evenodd"/><path fill="#000000" d="m163.95056 360.9779q2.734375 0 4.1875 1.046875q1.46875 1.03125 1.46875 3.078125q0 1.125 -0.40625 1.921875q-0.390625 0.78125 -1.15625 1.28125q-0.75 0.484375 -1.828125 0.71875q-1.078125 0.21875 -2.453125 0.21875l-1.421875 0l0 4.796875l-1.8125 0l0 -12.75q0.765625 -0.171875 1.703125 -0.234375q0.9375 -0.078125 1.71875 -0.078125zm0.15625 1.59375q-1.15625 0 -1.765625 0.046875l0 5.078125l1.359375 0q0.921875 0 1.671875 -0.109375q0.75 -0.125 1.265625 -0.40625q0.515625 -0.296875 0.78125 -0.796875q0.28125 -0.515625 0.28125 -1.296875q0 -0.75 -0.296875 -1.234375q-0.28125 -0.484375 -0.78125 -0.765625q-0.484375 -0.296875 -1.140625 -0.40625q-0.65625 -0.109375 -1.375 -0.109375zm6.5112915 6.640625q0 -1.296875 0.375 -2.25q0.375 -0.96875 0.984375 -1.59375q0.609375 -0.640625 1.40625 -0.953125q0.8125 -0.3125 1.65625 -0.3125q1.953125 0 3.0 1.21875q1.046875 1.21875 1.046875 3.71875q0 0.109375 0 0.296875q0 0.171875 -0.015625 0.3125l-6.640625 0q0.109375 1.515625 0.875 2.296875q0.765625 0.78125 2.390625 0.78125q0.90625 0 1.53125 -0.15625q0.625 -0.15625 0.9375 -0.296875l0.25 1.453125q-0.3125 0.15625 -1.109375 0.34375q-0.796875 0.1875 -1.796875 0.1875q-1.265625 0 -2.203125 -0.375q-0.921875 -0.390625 -1.515625 -1.0625q-0.59375 -0.671875 -0.890625 -1.59375q-0.28125 -0.921875 -0.28125 -2.015625zm6.65625 -0.953125q0.015625 -1.171875 -0.59375 -1.921875q-0.59375 -0.765625 -1.65625 -0.765625q-0.609375 0 -1.0625 0.234375q-0.453125 0.234375 -0.78125 0.609375q-0.3125 0.375 -0.484375 0.859375q-0.171875 0.484375 -0.234375 0.984375l4.8125 0zm11.053848 0.953125q0 -1.703125 -0.84375 -2.609375q-0.84375 -0.921875 -2.234375 -0.921875q-0.796875 0 -1.234375 0.0625q-0.4375 0.046875 -0.6875 0.125l0 6.125q0.3125 0.25 0.90625 0.5q0.59375 0.234375 1.3125 0.234375q0.734375 0 1.265625 -0.265625q0.53125 -0.265625 0.859375 -0.734375q0.34375 -0.484375 0.5 -1.125q0.15625 -0.640625 0.15625 -1.390625zm1.796875 0q0 1.09375 -0.296875 2.03125q-0.28125 0.9375 -0.84375 1.609375q-0.546875 0.671875 -1.359375 1.046875q-0.8125 0.359375 -1.859375 0.359375q-0.84375 0 -1.484375 -0.21875q-0.640625 -0.21875 -0.953125 -0.421875l0 3.875l-1.734375 0l0 -12.859375q0.609375 -0.140625 1.53125 -0.3125q0.921875 -0.1875 2.140625 -0.1875q1.109375 0 2.0 0.359375q0.90625 0.34375 1.53125 1.0q0.640625 0.65625 0.984375 1.609375q0.34375 0.9375 0.34375 2.109375zm4.0666656 -4.875l3.6875 0l0 1.453125l-3.6875 0l0 4.484375q0 0.71875 0.109375 1.203125q0.125 0.46875 0.34375 0.75q0.21875 0.265625 0.546875 0.375q0.34375 0.109375 0.796875 0.109375q0.78125 0 1.25 -0.171875q0.484375 -0.171875 0.671875 -0.25l0.328125 1.4375q-0.25 0.125 -0.90625 0.3125q-0.65625 0.203125 -1.5 0.203125q-0.984375 0 -1.625 -0.25q-0.640625 -0.25 -1.03125 -0.75q-0.390625 -0.515625 -0.5625 -1.25q-0.15625 -0.734375 -0.15625 -1.703125l0 -8.65625l1.734375 -0.296875l0 3.0zm7.624817 9.703125l-1.734375 0l0 -9.703125l1.734375 0l0 9.703125zm-0.890625 -11.453125q-0.453125 0 -0.78125 -0.3125q-0.328125 -0.3125 -0.328125 -0.828125q0 -0.515625 0.328125 -0.828125q0.328125 -0.3125 0.78125 -0.3125q0.46875 0 0.796875 0.3125q0.328125 0.3125 0.328125 0.828125q0 0.515625 -0.328125 0.828125q-0.328125 0.3125 -0.796875 0.3125zm10.141907 3.796875q-0.328125 -0.25 -0.921875 -0.484375q-0.59375 -0.25 -1.296875 -0.25q-0.75 0 -1.28125 0.265625q-0.53125 0.265625 -0.875 0.75q-0.328125 0.46875 -0.484375 1.125q-0.140625 0.65625 -0.140625 1.40625q0 1.6875 0.828125 2.609375q0.84375 0.921875 2.25 0.921875q0.703125 0 1.171875 -0.0625q0.484375 -0.0625 0.75 -0.140625l0 -6.140625zm0 -6.515625l1.734375 -0.3125l0 14.203125q-0.59375 0.171875 -1.53125 0.328125q-0.9375 0.171875 -2.140625 0.171875q-1.125 0 -2.03125 -0.34375q-0.890625 -0.359375 -1.53125 -1.015625q-0.625 -0.65625 -0.96875 -1.59375q-0.34375 -0.9375 -0.34375 -2.109375q0 -1.125 0.28125 -2.046875q0.296875 -0.9375 0.859375 -1.609375q0.5625 -0.671875 1.359375 -1.046875q0.8125 -0.375 1.859375 -0.375q0.84375 0 1.484375 0.21875q0.640625 0.21875 0.96875 0.4375l0 -4.90625zm4.1760406 9.34375q0 -1.296875 0.375 -2.25q0.375 -0.96875 0.984375 -1.59375q0.609375 -0.640625 1.40625 -0.953125q0.8125 -0.3125 1.65625 -0.3125q1.953125 0 3.0 1.21875q1.046875 1.21875 1.046875 3.71875q0 0.109375 0 0.296875q0 0.171875 -0.015625 0.3125l-6.640625 0q0.109375 1.515625 0.875 2.296875q0.765625 0.78125 2.390625 0.78125q0.90625 0 1.53125 -0.15625q0.625 -0.15625 0.9375 -0.296875l0.25 1.453125q-0.3125 0.15625 -1.109375 0.34375q-0.796875 0.1875 -1.796875 0.1875q-1.265625 0 -2.203125 -0.375q-0.921875 -0.390625 -1.515625 -1.0625q-0.59375 -0.671875 -0.890625 -1.59375q-0.28125 -0.921875 -0.28125 -2.015625zm6.65625 -0.953125q0.015625 -1.171875 -0.59375 -1.921875q-0.59375 -0.765625 -1.65625 -0.765625q-0.609375 0 -1.0625 0.234375q-0.453125 0.234375 -0.78125 0.609375q-0.3125 0.375 -0.484375 0.859375q-0.171875 0.484375 -0.234375 0.984375l4.8125 0z" fill-rule="nonzero"/><path fill="#000000" d="m179.0945 383.11853l0 1.5625l-4.078125 0l0 11.359375l-1.8125 0l0 -11.359375l-4.0625 0l0 -1.5625l9.953125 0zm4.2320404 11.671875q0.609375 0 1.078125 -0.03125q0.484375 -0.03125 0.796875 -0.09375l0 -2.890625q-0.1875 -0.09375 -0.609375 -0.15625q-0.40625 -0.078125 -1.015625 -0.078125q-0.390625 0 -0.828125 0.0625q-0.4375 0.046875 -0.796875 0.234375q-0.359375 0.171875 -0.609375 0.484375q-0.234375 0.296875 -0.234375 0.8125q0 0.921875 0.59375 1.296875q0.59375 0.359375 1.625 0.359375zm-0.15625 -8.6875q1.046875 0 1.765625 0.265625q0.71875 0.265625 1.15625 0.765625q0.4375 0.5 0.625 1.1875q0.1875 0.671875 0.1875 1.484375l0 6.0625q-0.21875 0.046875 -0.625 0.109375q-0.40625 0.0625 -0.90625 0.109375q-0.5 0.0625 -1.09375 0.109375q-0.578125 0.046875 -1.15625 0.046875q-0.828125 0 -1.515625 -0.171875q-0.6875 -0.15625 -1.203125 -0.515625q-0.5 -0.375 -0.78125 -0.96875q-0.28125 -0.59375 -0.28125 -1.4375q0 -0.796875 0.328125 -1.375q0.328125 -0.578125 0.890625 -0.9375q0.5625 -0.359375 1.296875 -0.515625q0.75 -0.171875 1.578125 -0.171875q0.265625 0 0.53125 0.03125q0.28125 0.015625 0.53125 0.0625q0.265625 0.046875 0.4375 0.09375q0.1875 0.03125 0.265625 0.046875l0 -0.484375q0 -0.421875 -0.09375 -0.84375q-0.09375 -0.421875 -0.34375 -0.75q-0.234375 -0.328125 -0.65625 -0.515625q-0.40625 -0.203125 -1.078125 -0.203125q-0.859375 0 -1.515625 0.125q-0.640625 0.125 -0.953125 0.25l-0.203125 -1.4375q0.328125 -0.140625 1.109375 -0.28125q0.796875 -0.140625 1.703125 -0.140625zm8.347946 0.671875q0.3125 -0.21875 0.953125 -0.4375q0.640625 -0.21875 1.484375 -0.21875q1.046875 0 1.859375 0.375q0.8125 0.375 1.359375 1.046875q0.5625 0.671875 0.84375 1.609375q0.296875 0.921875 0.296875 2.046875q0 1.171875 -0.34375 2.109375q-0.34375 0.9375 -0.984375 1.59375q-0.625 0.65625 -1.53125 1.015625q-0.890625 0.34375 -2.0 0.34375q-1.21875 0 -2.15625 -0.171875q-0.921875 -0.15625 -1.515625 -0.328125l0 -13.890625l1.734375 -0.3125l0 5.21875zm0 7.75q0.25 0.078125 0.71875 0.140625q0.484375 0.0625 1.203125 0.0625q1.390625 0 2.234375 -0.921875q0.84375 -0.921875 0.84375 -2.609375q0 -0.75 -0.15625 -1.40625q-0.15625 -0.65625 -0.5 -1.125q-0.328125 -0.484375 -0.859375 -0.75q-0.53125 -0.265625 -1.265625 -0.265625q-0.71875 0 -1.3125 0.25q-0.59375 0.234375 -0.90625 0.484375l0 6.140625zm12.160416 1.703125q-1.609375 -0.03125 -2.28125 -0.6875q-0.671875 -0.65625 -0.671875 -2.03125l0 -11.640625l1.734375 -0.3125l0 11.671875q0 0.421875 0.078125 0.703125q0.078125 0.28125 0.234375 0.453125q0.171875 0.15625 0.453125 0.25q0.28125 0.078125 0.6875 0.140625l-0.234375 1.453125zm1.6400299 -5.015625q0 -1.296875 0.375 -2.25q0.375 -0.96875 0.984375 -1.59375q0.609375 -0.640625 1.40625 -0.953125q0.8125 -0.3125 1.65625 -0.3125q1.953125 0 3.0 1.21875q1.046875 1.21875 1.046875 3.71875q0 0.109375 0 0.296875q0 0.171875 -0.015625 0.3125l-6.640625 0q0.109375 1.515625 0.875 2.296875q0.765625 0.78125 2.390625 0.78125q0.90625 0 1.53125 -0.15625q0.625 -0.15625 0.9375 -0.296875l0.25 1.453125q-0.3125 0.15625 -1.109375 0.34375q-0.796875 0.1875 -1.796875 0.1875q-1.265625 0 -2.203125 -0.375q-0.921875 -0.390625 -1.515625 -1.0625q-0.59375 -0.671875 -0.890625 -1.59375q-0.28125 -0.921875 -0.28125 -2.015625zm6.65625 -0.953125q0.015625 -1.171875 -0.59375 -1.921875q-0.59375 -0.765625 -1.65625 -0.765625q-0.609375 0 -1.0625 0.234375q-0.453125 0.234375 -0.78125 0.609375q-0.3125 0.375 -0.484375 0.859375q-0.171875 0.484375 -0.234375 0.984375l4.8125 0z" fill-rule="nonzero"/><path fill="#000000" d="m165.80579 409.12228q0 1.3125 -0.40625 2.296875q-0.40625 0.96875 -1.15625 1.609375q-0.75 0.625 -1.796875 0.953125q-1.03125 0.3125 -2.28125 0.3125q-0.609375 0 -1.359375 -0.0625q-0.734375 -0.046875 -1.328125 -0.1875l0 -9.859375q0.59375 -0.140625 1.328125 -0.1875q0.75 -0.0625 1.359375 -0.0625q1.25 0 2.28125 0.328125q1.046875 0.3125 1.796875 0.953125q0.75 0.625 1.15625 1.609375q0.40625 0.96875 0.40625 2.296875zm-5.515625 3.921875q2.015625 0 3.015625 -1.03125q1.0 -1.03125 1.0 -2.890625q0 -1.875 -1.0 -2.90625q-1.0 -1.03125 -3.015625 -1.03125q-0.609375 0 -0.9375 0.015625q-0.328125 0.015625 -0.453125 0.03125l0 7.765625q0.125 0.015625 0.453125 0.03125q0.328125 0.015625 0.9375 0.015625zm9.916489 0.171875q0.484375 0 0.859375 -0.015625q0.375 -0.03125 0.625 -0.078125l0 -2.28125q-0.15625 -0.0625 -0.484375 -0.109375q-0.328125 -0.0625 -0.796875 -0.0625q-0.296875 0 -0.65625 0.046875q-0.34375 0.046875 -0.625 0.1875q-0.28125 0.125 -0.46875 0.375q-0.1875 0.234375 -0.1875 0.640625q0 0.734375 0.46875 1.015625q0.46875 0.28125 1.265625 0.28125zm-0.109375 -6.828125q0.8125 0 1.375 0.21875q0.5625 0.203125 0.90625 0.59375q0.34375 0.390625 0.484375 0.921875q0.15625 0.53125 0.15625 1.1875l0 4.765625q-0.171875 0.015625 -0.484375 0.078125q-0.3125 0.046875 -0.71875 0.09375q-0.390625 0.046875 -0.859375 0.078125q-0.453125 0.03125 -0.90625 0.03125q-0.640625 0 -1.1875 -0.140625q-0.546875 -0.125 -0.953125 -0.40625q-0.390625 -0.28125 -0.609375 -0.75q-0.21875 -0.46875 -0.21875 -1.125q0 -0.640625 0.25 -1.09375q0.265625 -0.453125 0.703125 -0.734375q0.4375 -0.28125 1.015625 -0.40625q0.59375 -0.125 1.25 -0.125q0.203125 0 0.421875 0.015625q0.21875 0.015625 0.40625 0.0625q0.203125 0.03125 0.34375 0.0625q0.15625 0.03125 0.21875 0.046875l0 -0.390625q0 -0.328125 -0.078125 -0.65625q-0.078125 -0.328125 -0.265625 -0.578125q-0.1875 -0.265625 -0.515625 -0.421875q-0.328125 -0.15625 -0.859375 -0.15625q-0.671875 0 -1.1875 0.09375q-0.5 0.09375 -0.75 0.203125l-0.15625 -1.125q0.265625 -0.125 0.875 -0.234375q0.625 -0.109375 1.34375 -0.109375zm6.463089 0.1875l2.875 0l0 1.140625l-2.875 0l0 3.53125q0 0.5625 0.078125 0.9375q0.09375 0.375 0.265625 0.59375q0.171875 0.203125 0.4375 0.296875q0.265625 0.078125 0.625 0.078125q0.609375 0 0.984375 -0.125q0.375 -0.140625 0.515625 -0.203125l0.265625 1.125q-0.203125 0.109375 -0.71875 0.25q-0.515625 0.15625 -1.171875 0.15625q-0.78125 0 -1.28125 -0.1875q-0.5 -0.203125 -0.8125 -0.59375q-0.3125 -0.40625 -0.4375 -0.984375q-0.125 -0.578125 -0.125 -1.34375l0 -6.796875l1.375 -0.234375l0 2.359375zm7.1887054 6.640625q0.484375 0 0.859375 -0.015625q0.375 -0.03125 0.625 -0.078125l0 -2.28125q-0.15625 -0.0625 -0.484375 -0.109375q-0.328125 -0.0625 -0.796875 -0.0625q-0.296875 0 -0.65625 0.046875q-0.34375 0.046875 -0.625 0.1875q-0.28125 0.125 -0.46875 0.375q-0.1875 0.234375 -0.1875 0.640625q0 0.734375 0.46875 1.015625q0.46875 0.28125 1.265625 0.28125zm-0.109375 -6.828125q0.8125 0 1.375 0.21875q0.5625 0.203125 0.90625 0.59375q0.34375 0.390625 0.484375 0.921875q0.15625 0.53125 0.15625 1.1875l0 4.765625q-0.171875 0.015625 -0.484375 0.078125q-0.3125 0.046875 -0.71875 0.09375q-0.390625 0.046875 -0.859375 0.078125q-0.453125 0.03125 -0.90625 0.03125q-0.640625 0 -1.1875 -0.140625q-0.546875 -0.125 -0.953125 -0.40625q-0.390625 -0.28125 -0.609375 -0.75q-0.21875 -0.46875 -0.21875 -1.125q0 -0.640625 0.25 -1.09375q0.265625 -0.453125 0.703125 -0.734375q0.4375 -0.28125 1.015625 -0.40625q0.59375 -0.125 1.25 -0.125q0.203125 0 0.421875 0.015625q0.21875 0.015625 0.40625 0.0625q0.203125 0.03125 0.34375 0.0625q0.15625 0.03125 0.21875 0.046875l0 -0.390625q0 -0.328125 -0.078125 -0.65625q-0.078125 -0.328125 -0.265625 -0.578125q-0.1875 -0.265625 -0.515625 -0.421875q-0.328125 -0.15625 -0.859375 -0.15625q-0.671875 0 -1.1875 0.09375q-0.5 0.09375 -0.75 0.203125l-0.15625 -1.125q0.265625 -0.125 0.875 -0.234375q0.625 -0.109375 1.34375 -0.109375zm8.150589 -3.5625q0.609375 0 1.03125 0.09375q0.4375 0.078125 0.625 0.15625l-0.25 1.171875q-0.1875 -0.09375 -0.515625 -0.171875q-0.3125 -0.078125 -0.78125 -0.078125q-0.953125 0 -1.34375 0.53125q-0.375 0.515625 -0.375 1.390625l0 0.65625l2.9375 0l0 1.140625l-2.9375 0l0 6.484375l-1.359375 0l0 -8.3125q0 -1.46875 0.71875 -2.265625q0.71875 -0.796875 2.25 -0.796875zm5.5010834 3.59375q0.171875 0 0.390625 0.03125q0.234375 0.015625 0.453125 0.046875q0.234375 0.03125 0.40625 0.078125q0.1875 0.03125 0.28125 0.0625l-0.234375 1.1875q-0.171875 -0.0625 -0.546875 -0.140625q-0.359375 -0.078125 -0.953125 -0.078125q-0.375 0 -0.75 0.078125q-0.375 0.078125 -0.5 0.109375l0 6.40625l-1.359375 0l0 -7.296875q0.484375 -0.171875 1.203125 -0.328125q0.71875 -0.15625 1.609375 -0.15625zm5.4229584 6.796875q0.484375 0 0.859375 -0.015625q0.375 -0.03125 0.625 -0.078125l0 -2.28125q-0.15625 -0.0625 -0.484375 -0.109375q-0.328125 -0.0625 -0.796875 -0.0625q-0.296875 0 -0.65625 0.046875q-0.34375 0.046875 -0.625 0.1875q-0.28125 0.125 -0.46875 0.375q-0.1875 0.234375 -0.1875 0.640625q0 0.734375 0.46875 1.015625q0.46875 0.28125 1.265625 0.28125zm-0.109375 -6.828125q0.8125 0 1.375 0.21875q0.5625 0.203125 0.90625 0.59375q0.34375 0.390625 0.484375 0.921875q0.15625 0.53125 0.15625 1.1875l0 4.765625q-0.171875 0.015625 -0.484375 0.078125q-0.3125 0.046875 -0.71875 0.09375q-0.390625 0.046875 -0.859375 0.078125q-0.453125 0.03125 -0.90625 0.03125q-0.640625 0 -1.1875 -0.140625q-0.546875 -0.125 -0.953125 -0.40625q-0.390625 -0.28125 -0.609375 -0.75q-0.21875 -0.46875 -0.21875 -1.125q0 -0.640625 0.25 -1.09375q0.265625 -0.453125 0.703125 -0.734375q0.4375 -0.28125 1.015625 -0.40625q0.59375 -0.125 1.25 -0.125q0.203125 0 0.421875 0.015625q0.21875 0.015625 0.40625 0.0625q0.203125 0.03125 0.34375 0.0625q0.15625 0.03125 0.21875 0.046875l0 -0.390625q0 -0.328125 -0.078125 -0.65625q-0.078125 -0.328125 -0.265625 -0.578125q-0.1875 -0.265625 -0.515625 -0.421875q-0.328125 -0.15625 -0.859375 -0.15625q-0.671875 0 -1.1875 0.09375q-0.5 0.09375 -0.75 0.203125l-0.15625 -1.125q0.265625 -0.125 0.875 -0.234375q0.625 -0.109375 1.34375 -0.109375zm5.181839 0.40625q0.46875 -0.109375 1.234375 -0.234375q0.78125 -0.140625 1.78125 -0.140625q0.734375 0 1.234375 0.203125q0.5 0.1875 0.84375 0.578125q0.09375 -0.078125 0.3125 -0.203125q0.21875 -0.140625 0.546875 -0.265625q0.328125 -0.125 0.71875 -0.21875q0.390625 -0.09375 0.84375 -0.09375q0.890625 0 1.4375 0.265625q0.5625 0.25 0.875 0.71875q0.3125 0.46875 0.421875 1.109375q0.109375 0.640625 0.109375 1.40625l0 4.28125l-1.359375 0l0 -3.984375q0 -0.671875 -0.0625 -1.15625q-0.0625 -0.484375 -0.25 -0.796875q-0.1875 -0.328125 -0.5 -0.484375q-0.3125 -0.15625 -0.8125 -0.15625q-0.6875 0 -1.140625 0.1875q-0.4375 0.171875 -0.609375 0.328125q0.125 0.375 0.171875 0.828125q0.0625 0.453125 0.0625 0.953125l0 4.28125l-1.359375 0l0 -3.984375q0 -0.671875 -0.078125 -1.15625q-0.0625 -0.484375 -0.25 -0.796875q-0.1875 -0.328125 -0.5 -0.484375q-0.3125 -0.15625 -0.796875 -0.15625q-0.203125 0 -0.4375 0.015625q-0.234375 0.015625 -0.453125 0.046875q-0.203125 0.015625 -0.390625 0.046875q-0.171875 0.015625 -0.234375 0.03125l0 6.4375l-1.359375 0l0 -7.40625zm12.197205 3.609375q0 -1.015625 0.28125 -1.765625q0.296875 -0.75 0.78125 -1.25q0.484375 -0.5 1.109375 -0.75q0.640625 -0.25 1.296875 -0.25q1.546875 0 2.359375 0.96875q0.828125 0.953125 0.828125 2.921875q0 0.078125 0 0.21875q0 0.140625 -0.015625 0.265625l-5.21875 0q0.078125 1.1875 0.671875 1.796875q0.609375 0.609375 1.890625 0.609375q0.71875 0 1.203125 -0.125q0.5 -0.125 0.75 -0.234375l0.1875 1.140625q-0.25 0.125 -0.875 0.265625q-0.625 0.15625 -1.40625 0.15625q-1.0 0 -1.734375 -0.296875q-0.71875 -0.296875 -1.1875 -0.828125q-0.46875 -0.53125 -0.703125 -1.25q-0.21875 -0.734375 -0.21875 -1.59375zm5.234375 -0.75q0.015625 -0.921875 -0.46875 -1.515625q-0.46875 -0.59375 -1.3125 -0.59375q-0.46875 0 -0.828125 0.1875q-0.359375 0.1875 -0.609375 0.484375q-0.25 0.28125 -0.390625 0.671875q-0.125 0.375 -0.171875 0.765625l3.78125 0z" fill-rule="nonzero"/><path fill="#e6b8af" d="m265.06924 254.80853l27.275574 0l0 264.59845l-27.275574 0z" fill-rule="evenodd"/><path stroke="#000000" stroke-width="1.0" stroke-linejoin="round" stroke-linecap="butt" d="m265.06924 254.80853l27.275574 0l0 264.59845l-27.275574 0z" fill-rule="evenodd"/><path fill="#c9daf8" d="m143.06561 205.11035l97.480316 0l0 42.992126l-97.480316 0z" fill-rule="evenodd"/><path stroke="#000000" stroke-width="1.0" stroke-linejoin="round" stroke-linecap="butt" d="m143.06561 205.11035l97.480316 0l0 42.992126l-97.480316 0z" fill-rule="evenodd"/><path fill="#d9d2e9" d="m316.86154 214.9638l176.09448 0l0 23.527557l-176.09448 0z" fill-rule="evenodd"/><path stroke="#000000" stroke-width="1.0" stroke-linejoin="round" stroke-linecap="butt" d="m316.86154 214.9638l176.09448 0l0 23.527557l-176.09448 0z" fill-rule="evenodd"/><path fill="#d0e0e3" d="m255.50652 108.85827l54.803146 0l0 89.79528l-54.803146 0z" fill-rule="evenodd"/><path stroke="#000000" stroke-width="1.0" stroke-linejoin="round" stroke-linecap="butt" d="m255.50652 108.85827l54.803146 0l0 89.79528l-54.803146 0z" fill-rule="evenodd"/><path fill="#000000" fill-opacity="0.0" d="m262.61032 468.66318l0 -163.08661l29.73227 0l0 163.08661z" fill-rule="evenodd"/><path fill="#000000" d="m275.42468 416.87607q0 -2.140625 0.828125 -3.28125q0.8125 -1.15625 2.421875 -1.15625q0.875 0 1.5 0.3125q0.625 0.3125 1.015625 0.90625q0.375 0.59375 0.5625 1.453125q0.171875 0.84375 0.171875 1.90625l0 1.125l3.765625 0l0 1.421875l-10.015625 0q-0.140625 -0.59375 -0.1875 -1.328125q-0.0625 -0.75 -0.0625 -1.359375zm1.25 -0.125q0 0.90625 0.046875 1.390625l3.984375 0l0 -1.0625q0 -0.734375 -0.09375 -1.3125q-0.09375 -0.59375 -0.3125 -1.0q-0.234375 -0.40625 -0.625 -0.625q-0.40625 -0.21875 -1.015625 -0.21875q-0.59375 0 -0.96875 0.234375q-0.390625 0.21875 -0.609375 0.609375q-0.234375 0.390625 -0.3125 0.90625q-0.09375 0.515625 -0.09375 1.078125zm5.21875 -5.1135864q-1.015625 0 -1.765625 -0.28125q-0.75 -0.296875 -1.25 -0.78125q-0.5 -0.484375 -0.75 -1.109375q-0.25 -0.640625 -0.25 -1.296875q0 -1.546875 0.96875 -2.359375q0.953125 -0.828125 2.921875 -0.828125q0.078125 0 0.21875 0q0.140625 0 0.265625 0.015625l0 5.21875q1.1875 -0.078125 1.796875 -0.671875q0.609375 -0.609375 0.609375 -1.890625q0 -0.71875 -0.125 -1.203125q-0.125 -0.5 -0.234375 -0.75l1.140625 -0.1875q0.125 0.25 0.265625 0.875q0.15625 0.625 0.15625 1.40625q0 1.0 -0.296875 1.734375q-0.296875 0.71875 -0.828125 1.1875q-0.53125 0.46875 -1.25 0.703125q-0.734375 0.21875 -1.59375 0.21875zm-0.75 -5.234375q-0.921875 -0.015625 -1.515625 0.46875q-0.59375 0.46875 -0.59375 1.3125q0 0.46875 0.1875 0.828125q0.1875 0.359375 0.484375 0.609375q0.28125 0.25 0.671875 0.390625q0.375 0.125 0.765625 0.171875l0 -3.78125zm0.75 -8.677246q-1.328125 0 -2.046875 0.671875q-0.71875 0.65625 -0.71875 1.75q0 0.625 0.046875 0.96875q0.03125 0.34375 0.09375 0.546875l4.8125 0q0.203125 -0.25 0.390625 -0.71875q0.1875 -0.46875 0.1875 -1.03125q0 -0.578125 -0.203125 -1.0q-0.21875 -0.421875 -0.59375 -0.6875q-0.375 -0.265625 -0.875 -0.375q-0.5 -0.125 -1.09375 -0.125zm0 -1.421875q0.859375 0 1.59375 0.234375q0.734375 0.21875 1.265625 0.671875q0.53125 0.4375 0.828125 1.078125q0.28125 0.625 0.28125 1.453125q0 0.65625 -0.171875 1.171875q-0.171875 0.5 -0.34375 0.75l3.0625 0l0 1.359375l-10.109375 0q-0.109375 -0.484375 -0.25 -1.203125q-0.140625 -0.734375 -0.140625 -1.6875q0 -0.875 0.28125 -1.578125q0.28125 -0.703125 0.796875 -1.203125q0.5 -0.5 1.25 -0.765625q0.734375 -0.28125 1.65625 -0.28125zm-3.828125 -3.1950684l0 -2.875l1.140625 0l0 2.875l3.53125 0q0.5625 0 0.9375 -0.078125q0.375 -0.09375 0.59375 -0.265625q0.203125 -0.171875 0.296875 -0.4375q0.078125 -0.265625 0.078125 -0.625q0 -0.609375 -0.125 -0.984375q-0.140625 -0.375 -0.203125 -0.515625l1.125 -0.265625q0.109375 0.203125 0.25 0.71875q0.15625 0.515625 0.15625 1.171875q0 0.78125 -0.1875 1.28125q-0.203125 0.5 -0.59375 0.8125q-0.40625 0.3125 -0.984375 0.4375q-0.578125 0.125 -1.34375 0.125l-6.796875 0l-0.234375 -1.375l2.359375 0zm7.625 -5.96994l0 1.359375l-7.625 0l0 -1.359375l7.625 0zm-9.0 0.6875q0 0.359375 -0.234375 0.625q-0.25 0.25 -0.65625 0.25q-0.40625 0 -0.640625 -0.25q-0.25 -0.265625 -0.25 -0.625q0 -0.375 0.25 -0.625q0.234375 -0.25 0.640625 -0.25q0.40625 0 0.65625 0.25q0.234375 0.25 0.234375 0.625zm2.984375 -7.9580383q-0.203125 0.25 -0.390625 0.71875q-0.1875 0.46875 -0.1875 1.015625q0 0.59375 0.21875 1.015625q0.203125 0.40625 0.578125 0.671875q0.375 0.265625 0.890625 0.390625q0.515625 0.109375 1.09375 0.109375q1.328125 0 2.0625 -0.65625q0.71875 -0.65625 0.71875 -1.765625q0 -0.546875 -0.046875 -0.921875q-0.046875 -0.375 -0.109375 -0.578125l-4.828125 0zm-5.125 0l-0.234375 -1.359375l11.15625 0q0.125 0.46875 0.25 1.203125q0.140625 0.71875 0.140625 1.671875q0 0.890625 -0.265625 1.59375q-0.28125 0.703125 -0.796875 1.203125q-0.515625 0.484375 -1.25 0.765625q-0.75 0.265625 -1.671875 0.265625q-0.875 0 -1.609375 -0.21875q-0.734375 -0.234375 -1.25 -0.671875q-0.53125 -0.4375 -0.828125 -1.078125q-0.296875 -0.640625 -0.296875 -1.453125q0 -0.671875 0.171875 -1.171875q0.171875 -0.5 0.34375 -0.75l-3.859375 0zm7.34375 -3.2888184q-1.015625 0 -1.765625 -0.28125q-0.75 -0.296875 -1.25 -0.78125q-0.5 -0.484375 -0.75 -1.109375q-0.25 -0.640625 -0.25 -1.296875q0 -1.546875 0.96875 -2.359375q0.953125 -0.828125 2.921875 -0.828125q0.078125 0 0.21875 0q0.140625 0 0.265625 0.015625l0 5.21875q1.1875 -0.078125 1.796875 -0.671875q0.609375 -0.609375 0.609375 -1.890625q0 -0.71875 -0.125 -1.203125q-0.125 -0.5 -0.234375 -0.75l1.140625 -0.1875q0.125 0.25 0.265625 0.875q0.15625 0.625 0.15625 1.40625q0 1.0 -0.296875 1.734375q-0.296875 0.71875 -0.828125 1.1875q-0.53125 0.46875 -1.25 0.703125q-0.734375 0.21875 -1.59375 0.21875zm-0.75 -5.234375q-0.921875 -0.015625 -1.515625 0.46875q-0.59375 0.46875 -0.59375 1.3125q0 0.46875 0.1875 0.828125q0.1875 0.359375 0.484375 0.609375q0.28125 0.25 0.671875 0.390625q0.375 0.125 0.765625 0.171875l0 -3.78125zm4.546875 -8.125366l0 1.359375l-7.625 0l0 -1.359375l7.625 0zm-9.0 0.6875q0 0.359375 -0.234375 0.625q-0.25 0.25 -0.65625 0.25q-0.40625 0 -0.640625 -0.25q-0.25 -0.265625 -0.25 -0.625q0 -0.375 0.25 -0.625q0.234375 -0.25 0.640625 -0.25q0.40625 0 0.65625 0.25q0.234375 0.25 0.234375 0.625zm2.984375 -7.9580383q-0.203125 0.25 -0.390625 0.71875q-0.1875 0.46875 -0.1875 1.015625q0 0.59375 0.21875 1.015625q0.203125 0.40625 0.578125 0.671875q0.375 0.265625 0.890625 0.390625q0.515625 0.109375 1.09375 0.109375q1.328125 0 2.0625 -0.65625q0.71875 -0.65625 0.71875 -1.765625q0 -0.546875 -0.046875 -0.921875q-0.046875 -0.375 -0.109375 -0.578125l-4.828125 0zm-5.125 0l-0.234375 -1.359375l11.15625 0q0.125 0.46875 0.25 1.203125q0.140625 0.71875 0.140625 1.671875q0 0.890625 -0.265625 1.59375q-0.28125 0.703125 -0.796875 1.203125q-0.515625 0.484375 -1.25 0.765625q-0.75 0.265625 -1.671875 0.265625q-0.875 0 -1.609375 -0.21875q-0.734375 -0.234375 -1.25 -0.671875q-0.53125 -0.4375 -0.828125 -1.078125q-0.296875 -0.640625 -0.296875 -1.453125q0 -0.671875 0.171875 -1.171875q0.171875 -0.5 0.34375 -0.75l-3.859375 0z" fill-rule="nonzero"/><path fill="#000000" fill-opacity="0.0" d="m353.53918 205.10907l102.74014 0l0 29.732285l-102.74014 0z" fill-rule="evenodd"/><path fill="#000000" d="m376.22443 227.17345q2.21875 0 2.21875 -1.515625q0 -0.46875 -0.203125 -0.796875q-0.1875 -0.34375 -0.53125 -0.578125q-0.328125 -0.234375 -0.765625 -0.40625q-0.4375 -0.1875 -0.921875 -0.359375q-0.546875 -0.1875 -1.046875 -0.421875q-0.5 -0.25 -0.875 -0.578125q-0.359375 -0.34375 -0.578125 -0.796875q-0.203125 -0.453125 -0.203125 -1.09375q0 -1.328125 0.90625 -2.078125q0.90625 -0.75 2.515625 -0.75q0.921875 0 1.671875 0.203125q0.75 0.1875 1.109375 0.421875l-0.453125 1.15625q-0.3125 -0.1875 -0.921875 -0.359375q-0.609375 -0.1875 -1.40625 -0.1875q-0.421875 0 -0.78125 0.09375q-0.34375 0.078125 -0.609375 0.265625q-0.265625 0.171875 -0.421875 0.4375q-0.140625 0.265625 -0.140625 0.640625q0 0.40625 0.15625 0.6875q0.15625 0.28125 0.453125 0.5q0.296875 0.203125 0.6875 0.375q0.390625 0.171875 0.859375 0.359375q0.65625 0.25 1.203125 0.515625q0.546875 0.265625 0.953125 0.640625q0.40625 0.359375 0.625 0.875q0.21875 0.5 0.21875 1.21875q0 1.328125 -0.984375 2.046875q-0.96875 0.71875 -2.734375 0.71875q-0.609375 0 -1.109375 -0.078125q-0.5 -0.078125 -0.90625 -0.1875q-0.390625 -0.109375 -0.6875 -0.234375q-0.28125 -0.125 -0.4375 -0.21875l0.421875 -1.171875q0.34375 0.1875 1.03125 0.421875q0.6875 0.234375 1.6875 0.234375zm7.9221497 0.03125q0.484375 0 0.859375 -0.015625q0.375 -0.03125 0.625 -0.078125l0 -2.28125q-0.15625 -0.0625 -0.484375 -0.109375q-0.328125 -0.0625 -0.796875 -0.0625q-0.296875 0 -0.65625 0.046875q-0.34375 0.046875 -0.625 0.1875q-0.28125 0.125 -0.46875 0.375q-0.1875 0.234375 -0.1875 0.640625q0 0.734375 0.46875 1.015625q0.46875 0.28125 1.265625 0.28125zm-0.109375 -6.828125q0.8125 0 1.375 0.21875q0.5625 0.203125 0.90625 0.59375q0.34375 0.390625 0.484375 0.921875q0.15625 0.53125 0.15625 1.1875l0 4.765625q-0.171875 0.015625 -0.484375 0.078125q-0.3125 0.046875 -0.71875 0.09375q-0.390625 0.046875 -0.859375 0.078125q-0.453125 0.03125 -0.90625 0.03125q-0.640625 0 -1.1875 -0.140625q-0.546875 -0.125 -0.953125 -0.40625q-0.390625 -0.28125 -0.609375 -0.75q-0.21875 -0.46875 -0.21875 -1.125q0 -0.640625 0.25 -1.09375q0.265625 -0.453125 0.703125 -0.734375q0.4375 -0.28125 1.015625 -0.40625q0.59375 -0.125 1.25 -0.125q0.203125 0 0.421875 0.015625q0.21875 0.015625 0.40625 0.0625q0.203125 0.03125 0.34375 0.0625q0.15625 0.03125 0.21875 0.046875l0 -0.390625q0 -0.328125 -0.078125 -0.65625q-0.078125 -0.328125 -0.265625 -0.578125q-0.1875 -0.265625 -0.515625 -0.421875q-0.328125 -0.15625 -0.859375 -0.15625q-0.671875 0 -1.1875 0.09375q-0.5 0.09375 -0.75 0.203125l-0.15625 -1.125q0.265625 -0.125 0.875 -0.234375q0.625 -0.109375 1.34375 -0.109375zm5.1818542 0.40625q0.46875 -0.109375 1.234375 -0.234375q0.78125 -0.140625 1.78125 -0.140625q0.734375 0 1.234375 0.203125q0.5 0.1875 0.84375 0.578125q0.09375 -0.078125 0.3125 -0.203125q0.21875 -0.140625 0.546875 -0.265625q0.328125 -0.125 0.71875 -0.21875q0.390625 -0.09375 0.84375 -0.09375q0.890625 0 1.4375 0.265625q0.5625 0.25 0.875 0.71875q0.3125 0.46875 0.421875 1.109375q0.109375 0.640625 0.109375 1.40625l0 4.28125l-1.359375 0l0 -3.984375q0 -0.671875 -0.0625 -1.15625q-0.0625 -0.484375 -0.25 -0.796875q-0.1875 -0.328125 -0.5 -0.484375q-0.3125 -0.15625 -0.8125 -0.15625q-0.6875 0 -1.140625 0.1875q-0.4375 0.171875 -0.609375 0.328125q0.125 0.375 0.171875 0.828125q0.0625 0.453125 0.0625 0.953125l0 4.28125l-1.359375 0l0 -3.984375q0 -0.671875 -0.078125 -1.15625q-0.0625 -0.484375 -0.25 -0.796875q-0.1875 -0.328125 -0.5 -0.484375q-0.3125 -0.15625 -0.796875 -0.15625q-0.203125 0 -0.4375 0.015625q-0.234375 0.015625 -0.453125 0.046875q-0.203125 0.015625 -0.390625 0.046875q-0.171875 0.015625 -0.234375 0.03125l0 6.4375l-1.359375 0l0 -7.40625zm17.915955 3.609375q0 -1.328125 -0.671875 -2.046875q-0.65625 -0.71875 -1.75 -0.71875q-0.625 0 -0.96875 0.046875q-0.34375 0.03125 -0.546875 0.09375l0 4.8125q0.25 0.203125 0.71875 0.390625q0.46875 0.1875 1.03125 0.1875q0.578125 0 1.0 -0.203125q0.421875 -0.21875 0.6875 -0.59375q0.265625 -0.375 0.375 -0.875q0.125 -0.5 0.125 -1.09375zm1.421875 0q0 0.859375 -0.234375 1.59375q-0.21875 0.734375 -0.671875 1.265625q-0.4375 0.53125 -1.078125 0.828125q-0.625 0.28125 -1.453125 0.28125q-0.65625 0 -1.171875 -0.171875q-0.5 -0.171875 -0.75 -0.34375l0 3.0625l-1.359375 0l0 -10.109375q0.484375 -0.109375 1.203125 -0.25q0.734375 -0.140625 1.6875 -0.140625q0.875 0 1.578125 0.28125q0.703125 0.28125 1.203125 0.796875q0.5 0.5 0.765625 1.25q0.28125 0.734375 0.28125 1.65625zm4.1950684 3.9375q-1.25 -0.015625 -1.78125 -0.53125q-0.53125 -0.515625 -0.53125 -1.609375l0 -9.140625l1.359375 -0.234375l0 9.15625q0 0.34375 0.0625 0.5625q0.0625 0.21875 0.1875 0.359375q0.140625 0.125 0.359375 0.1875q0.21875 0.0625 0.546875 0.109375l-0.203125 1.140625zm1.2980347 -3.9375q0 -1.015625 0.28125 -1.765625q0.296875 -0.75 0.78125 -1.25q0.484375 -0.5 1.109375 -0.75q0.640625 -0.25 1.296875 -0.25q1.546875 0 2.359375 0.96875q0.828125 0.953125 0.828125 2.921875q0 0.078125 0 0.21875q0 0.140625 -0.015625 0.265625l-5.21875 0q0.078125 1.1875 0.671875 1.796875q0.609375 0.609375 1.890625 0.609375q0.71875 0 1.203125 -0.125q0.5 -0.125 0.75 -0.234375l0.1875 1.140625q-0.25 0.125 -0.875 0.265625q-0.625 0.15625 -1.40625 0.15625q-1.0 0 -1.734375 -0.296875q-0.71875 -0.296875 -1.1875 -0.828125q-0.46875 -0.53125 -0.703125 -1.25q-0.21875 -0.734375 -0.21875 -1.59375zm5.234375 -0.75q0.015625 -0.921875 -0.46875 -1.515625q-0.46875 -0.59375 -1.3125 -0.59375q-0.46875 0 -0.828125 0.1875q-0.359375 0.1875 -0.609375 0.484375q-0.25 0.28125 -0.390625 0.671875q-0.125 0.375 -0.171875 0.765625l3.78125 0zm8.125366 4.546875l-1.359375 0l0 -7.625l1.359375 0l0 7.625zm-0.6875 -9.0q-0.359375 0 -0.625 -0.234375q-0.25 -0.25 -0.25 -0.65625q0 -0.40625 0.25 -0.640625q0.265625 -0.25 0.625 -0.25q0.375 0 0.625 0.25q0.25 0.234375 0.25 0.640625q0 0.40625 -0.25 0.65625q-0.25 0.234375 -0.625 0.234375zm7.9580383 2.984375q-0.25 -0.203125 -0.71875 -0.390625q-0.46875 -0.1875 -1.015625 -0.1875q-0.59375 0 -1.015625 0.21875q-0.40625 0.203125 -0.671875 0.578125q-0.265625 0.375 -0.390625 0.890625q-0.109375 0.515625 -0.109375 1.09375q0 1.328125 0.65625 2.0625q0.65625 0.71875 1.765625 0.71875q0.546875 0 0.921875 -0.046875q0.375 -0.046875 0.578125 -0.109375l0 -4.828125zm0 -5.125l1.359375 -0.234375l0 11.15625q-0.46875 0.125 -1.203125 0.25q-0.71875 0.140625 -1.671875 0.140625q-0.890625 0 -1.59375 -0.265625q-0.703125 -0.28125 -1.203125 -0.796875q-0.484375 -0.515625 -0.765625 -1.25q-0.265625 -0.75 -0.265625 -1.671875q0 -0.875 0.21875 -1.609375q0.234375 -0.734375 0.671875 -1.25q0.4375 -0.53125 1.078125 -0.828125q0.640625 -0.296875 1.453125 -0.296875q0.671875 0 1.171875 0.171875q0.5 0.171875 0.75 0.34375l0 -3.859375z" fill-rule="nonzero"/><path fill="#000000" fill-opacity="0.0" d="m112.57012 255.02406l0 264.18903" fill-rule="evenodd"/><path stroke="#000000" stroke-width="1.0" stroke-linejoin="round" stroke-linecap="butt" d="m112.570114 258.45114l0 254.76193" fill-rule="evenodd"/><path fill="#000000" stroke="#000000" stroke-width="1.0" stroke-linecap="butt" d="m112.570114 258.45117l1.124588 1.1245728l-1.124588 -3.0897827l-1.1245804 3.0897827z" fill-rule="evenodd"/><path fill="#000000" stroke="#000000" stroke-width="1.0" stroke-linecap="butt" d="m110.91839 513.2131l1.6517258 4.538086l1.6517334 -4.538086z" fill-rule="evenodd"/><path fill="#000000" fill-opacity="0.0" d="m493.03015 79.39328l-176.25198 -0.25196838" fill-rule="evenodd"/><path stroke="#000000" stroke-width="1.0" stroke-linejoin="round" stroke-linecap="butt" d="m489.60306 79.388374l-166.82489 -0.23849487" fill-rule="evenodd"/><path fill="#000000" stroke="#000000" stroke-width="1.0" stroke-linecap="butt" d="m489.60306 79.388374l-1.1261902 1.1229782l3.0913696 -1.1201706l-3.0881653 -1.1289978z" fill-rule="evenodd"/><path fill="#000000" stroke="#000000" stroke-width="1.0" stroke-linecap="butt" d="m322.78052 77.49815l-4.540436 1.6452408l4.535736 1.6582184z" fill-rule="evenodd"/><path fill="#000000" fill-opacity="0.0" d="m350.82147 40.76509l116.944885 0l0 29.732285l-116.944885 0z" fill-rule="evenodd"/><path fill="#000000" d="m395.8446 61.02884q-0.078125 0.375 -0.234375 0.828125q-0.15625 0.4375 -0.453125 0.84375q-0.296875 0.390625 -0.765625 0.671875q-0.453125 0.265625 -1.109375 0.265625q-0.5625 0 -1.03125 -0.21875q-0.46875 -0.234375 -0.90625 -0.484375q-0.5 -0.3125 -0.96875 -0.59375q-0.46875 -0.296875 -0.984375 -0.296875q-0.296875 0 -0.515625 0.140625q-0.203125 0.140625 -0.359375 0.359375q-0.140625 0.21875 -0.234375 0.46875q-0.09375 0.25 -0.15625 0.5l-1.203125 -0.34375q0.078125 -0.359375 0.234375 -0.8125q0.171875 -0.453125 0.453125 -0.84375q0.296875 -0.40625 0.75 -0.671875q0.46875 -0.28125 1.125 -0.28125q0.5625 0 1.03125 0.234375q0.46875 0.21875 0.90625 0.46875q0.5 0.296875 0.96875 0.59375q0.46875 0.28125 0.984375 0.28125q0.296875 0 0.5 -0.140625q0.21875 -0.140625 0.359375 -0.34375q0.15625 -0.21875 0.25 -0.46875q0.09375 -0.25 0.15625 -0.5l1.203125 0.34375zm6.862976 -3.609375q1.0625 -0.40625 2.0625 -1.046875q1.015625 -0.640625 1.859375 -1.609375l1.234375 0l0 12.921875l-1.734375 0l0 -10.515625q-0.234375 0.203125 -0.5625 0.421875q-0.328125 0.21875 -0.71875 0.4375q-0.375 0.203125 -0.796875 0.390625q-0.40625 0.1875 -0.796875 0.3125l-0.546875 -1.3125zm9.740875 5.4375q0 -1.296875 0.375 -2.25q0.375 -0.96875 0.984375 -1.59375q0.609375 -0.640625 1.40625 -0.953125q0.8125 -0.3125 1.65625 -0.3125q1.953125 0 3.0 1.21875q1.046875 1.21875 1.046875 3.71875q0 0.109375 0 0.296875q0 0.171875 -0.015625 0.3125l-6.640625 0q0.109375 1.515625 0.875 2.296875q0.765625 0.78125 2.390625 0.78125q0.90625 0 1.53125 -0.15625q0.625 -0.15625 0.9375 -0.296875l0.25 1.453125q-0.3125 0.15625 -1.109375 0.34375q-0.796875 0.1875 -1.796875 0.1875q-1.265625 0 -2.203125 -0.375q-0.921875 -0.390625 -1.515625 -1.0625q-0.59375 -0.671875 -0.890625 -1.59375q-0.28125 -0.921875 -0.28125 -2.015625zm6.65625 -0.953125q0.015625 -1.171875 -0.59375 -1.921875q-0.59375 -0.765625 -1.65625 -0.765625q-0.609375 0 -1.0625 0.234375q-0.453125 0.234375 -0.78125 0.609375q-0.3125 0.375 -0.484375 0.859375q-0.171875 0.484375 -0.234375 0.984375l4.8125 0zm7.0382385 4.515625q1.65625 0 2.375 -0.65625q0.71875 -0.65625 0.71875 -1.75q0 -0.71875 -0.296875 -1.203125q-0.296875 -0.484375 -0.78125 -0.765625q-0.484375 -0.296875 -1.140625 -0.40625q-0.640625 -0.125 -1.3125 -0.125l-0.4375 0l0 -1.421875l0.609375 0q0.46875 0 0.953125 -0.09375q0.5 -0.09375 0.90625 -0.328125q0.421875 -0.25 0.671875 -0.671875q0.265625 -0.421875 0.265625 -1.046875q0 -0.53125 -0.1875 -0.890625q-0.1875 -0.375 -0.5 -0.625q-0.296875 -0.25 -0.703125 -0.34375q-0.390625 -0.109375 -0.84375 -0.109375q-0.890625 0 -1.515625 0.265625q-0.625 0.265625 -1.0625 0.546875l-0.671875 -1.328125q0.234375 -0.15625 0.578125 -0.328125q0.34375 -0.171875 0.765625 -0.3125q0.4375 -0.15625 0.921875 -0.265625q0.5 -0.109375 1.046875 -0.109375q1.015625 0 1.765625 0.265625q0.75 0.25 1.234375 0.703125q0.484375 0.453125 0.71875 1.078125q0.25 0.625 0.25 1.359375q0 1.0 -0.578125 1.71875q-0.578125 0.71875 -1.40625 1.09375q0.515625 0.15625 0.96875 0.4375q0.46875 0.265625 0.8125 0.703125q0.34375 0.421875 0.5625 0.984375q0.21875 0.5625 0.21875 1.25q0 0.84375 -0.296875 1.5625q-0.28125 0.71875 -0.890625 1.25q-0.609375 0.515625 -1.53125 0.8125q-0.90625 0.296875 -2.15625 0.296875q-0.484375 0 -1.0 -0.078125q-0.5 -0.078125 -0.953125 -0.1875q-0.453125 -0.109375 -0.796875 -0.21875q-0.328125 -0.109375 -0.46875 -0.1875l0.328125 -1.515625q0.3125 0.15625 1.046875 0.40625q0.75 0.234375 1.8125 0.234375z" fill-rule="nonzero"/><path fill="#000000" fill-opacity="0.0" d="m76.82516 432.41602l0.03149414 -102.70865l29.732285 0l-0.03149414 102.70865z" fill-rule="evenodd"/><path fill="#000000" d="m97.10053 394.511q0.3749771 0.078125 0.8280487 0.234375q0.43745422 0.15625 0.8436127 0.453125q0.39053345 0.296875 0.6716385 0.765625q0.26548767 0.453125 0.2652893 1.109375q-1.7547607E-4 0.5625 -0.21907043 1.03125q-0.23451996 0.46875 -0.48464966 0.90625q-0.3126526 0.5 -0.59404755 0.96875q-0.29701996 0.46875 -0.29718018 0.984375q-9.1552734E-5 0.296875 0.14047241 0.515625q0.14055634 0.203125 0.35926056 0.359375q0.21870422 0.140625 0.46868134 0.234375q0.24996948 0.09375 0.4999466 0.15625l-0.3441162 1.203125q-0.3593521 -0.078125 -0.81243134 -0.234375q-0.4530716 -0.171875 -0.84360504 -0.453125q-0.40615845 -0.296875 -0.6716461 -0.75q-0.28110504 -0.46875 -0.28090668 -1.125q1.7547607E-4 -0.5625 0.2346878 -1.03125q0.21889496 -0.46875 0.4690323 -0.90625q0.2970276 -0.5 0.59404755 -0.96875q0.28139496 -0.46875 0.28154755 -0.984375q9.1552734E-5 -0.296875 -0.14046478 -0.5q-0.14056396 -0.21875 -0.3436432 -0.359375q-0.21870422 -0.15625 -0.4686737 -0.25q-0.24996948 -0.09375 -0.49995422 -0.15625l0.34412384 -1.203125zm-3.607277 -6.862976q-0.40592194 -1.0625 -1.0462418 -2.0625q-0.6403122 -1.015625 -1.6088028 -1.859375l3.8146973E-4 -1.234375l12.921875 0l-5.340576E-4 1.734375l-10.515625 0q0.20305634 0.234375 0.42169952 0.5625q0.21865082 0.328125 0.43728638 0.71875q0.20300293 0.375 0.39037323 0.796875q0.18737793 0.40625 0.31225586 0.796875l-1.3126678 0.546875zm5.4404907 -9.740875q-1.296875 0 -2.2498856 -0.375q-0.96863556 -0.375 -1.5934448 -0.984375q-0.6404419 -0.609375 -0.95269775 -1.40625q-0.31224823 -0.8125 -0.31198883 -1.65625q5.950928E-4 -1.953125 1.2196655 -3.0q1.2190704 -1.046875 3.7190704 -1.046875q0.109375 0 0.296875 0q0.171875 0 0.3125 0.015625l-0.0020370483 6.640625q1.5156555 -0.109375 2.297142 -0.875q0.7814865 -0.765625 0.7819824 -2.390625q2.822876E-4 -0.90625 -0.15577698 -1.53125q-0.15605927 -0.625 -0.2965927 -0.9375l1.4532013 -0.25q0.15615845 0.3125 0.3434143 1.109375q0.18725586 0.796875 0.18695068 1.796875q-3.8909912E-4 1.265625 -0.37567902 2.203125q-0.3909073 0.921875 -1.0629654 1.515625q-0.6720581 0.59375 -1.5940247 0.890625q-0.9219589 0.28125 -2.015709 0.28125zm-0.9510803 -6.65625q-1.171875 -0.015625 -1.9220581 0.59375q-0.7658081 0.59375 -0.76613617 1.65625q-1.8310547E-4 0.609375 0.23404694 1.0625q0.23423767 0.453125 0.6091385 0.78125q0.37490082 0.3125 0.85923004 0.484375q0.4843216 0.171875 0.9842987 0.234375l0.0014801025 -4.8125zm1.297966 -3.5694885q-0.8123932 -0.34375 -1.9059601 -0.953125q-1.0935593 -0.625 -2.2495728 -1.390625q-1.1560059 -0.78125 -2.2651138 -1.671875q-1.1247253 -0.890625 -2.0150757 -1.78125l5.1116943E-4 -1.65625l8.203125 0l4.6539307E-4 -1.53125l1.421875 0l-4.6539307E-4 1.53125l3.296875 0l-5.187988E-4 1.671875l-3.296875 0l-0.0017700195 5.78125l-1.1875 0zm-6.388855 -5.78125q0.59358215 0.5625 1.3277817 1.140625q0.7341995 0.5625 1.5465317 1.109375q0.7967148 0.53125 1.6403122 1.015625q0.84360504 0.46875 1.6403656 0.84375l0.0012588501 -4.109375l-6.15625 0z" fill-rule="nonzero"/><path fill="#000000" fill-opacity="0.0" d="m140.43501 198.65344l102.74016 0l0 29.732285l-102.74016 0z" fill-rule="evenodd"/><path fill="#000000" d="m169.91199 211.46782q2.140625 0 3.28125 0.828125q1.15625 0.8125 1.15625 2.421875q0 0.875 -0.3125 1.5q-0.3125 0.625 -0.90625 1.015625q-0.59375 0.375 -1.453125 0.5625q-0.84375 0.171875 -1.90625 0.171875l-1.125 0l0 3.765625l-1.421875 0l0 -10.015625q0.59375 -0.140625 1.328125 -0.1875q0.75 -0.0625 1.359375 -0.0625zm0.125 1.25q-0.90625 0 -1.390625 0.046875l0 3.984375l1.0625 0q0.734375 0 1.3125 -0.09375q0.59375 -0.09375 1.0 -0.3125q0.40625 -0.234375 0.625 -0.625q0.21875 -0.40625 0.21875 -1.015625q0 -0.59375 -0.234375 -0.96875q-0.21875 -0.390625 -0.609375 -0.609375q-0.390625 -0.234375 -0.90625 -0.3125q-0.515625 -0.09375 -1.078125 -0.09375zm5.1135864 5.21875q0 -1.015625 0.28125 -1.765625q0.296875 -0.75 0.78125 -1.25q0.484375 -0.5 1.109375 -0.75q0.640625 -0.25 1.296875 -0.25q1.546875 0 2.359375 0.96875q0.828125 0.953125 0.828125 2.921875q0 0.078125 0 0.21875q0 0.140625 -0.015625 0.265625l-5.21875 0q0.078125 1.1875 0.671875 1.796875q0.609375 0.609375 1.890625 0.609375q0.71875 0 1.203125 -0.125q0.5 -0.125 0.75 -0.234375l0.1875 1.140625q-0.25 0.125 -0.875 0.265625q-0.625 0.15625 -1.40625 0.15625q-1.0 0 -1.734375 -0.296875q-0.71875 -0.296875 -1.1875 -0.828125q-0.46875 -0.53125 -0.703125 -1.25q-0.21875 -0.734375 -0.21875 -1.59375zm5.234375 -0.75q0.015625 -0.921875 -0.46875 -1.515625q-0.46875 -0.59375 -1.3125 -0.59375q-0.46875 0 -0.828125 0.1875q-0.359375 0.1875 -0.609375 0.484375q-0.25 0.28125 -0.390625 0.671875q-0.125 0.375 -0.171875 0.765625l3.78125 0zm8.677246 0.75q0 -1.328125 -0.671875 -2.046875q-0.65625 -0.71875 -1.75 -0.71875q-0.625 0 -0.96875 0.046875q-0.34375 0.03125 -0.546875 0.09375l0 4.8125q0.25 0.203125 0.71875 0.390625q0.46875 0.1875 1.03125 0.1875q0.578125 0 1.0 -0.203125q0.421875 -0.21875 0.6875 -0.59375q0.265625 -0.375 0.375 -0.875q0.125 -0.5 0.125 -1.09375zm1.421875 0q0 0.859375 -0.234375 1.59375q-0.21875 0.734375 -0.671875 1.265625q-0.4375 0.53125 -1.078125 0.828125q-0.625 0.28125 -1.453125 0.28125q-0.65625 0 -1.171875 -0.171875q-0.5 -0.171875 -0.75 -0.34375l0 3.0625l-1.359375 0l0 -10.109375q0.484375 -0.109375 1.203125 -0.25q0.734375 -0.140625 1.6875 -0.140625q0.875 0 1.578125 0.28125q0.703125 0.28125 1.203125 0.796875q0.5 0.5 0.765625 1.25q0.28125 0.734375 0.28125 1.65625zm3.1950684 -3.828125l2.875 0l0 1.140625l-2.875 0l0 3.53125q0 0.5625 0.078125 0.9375q0.09375 0.375 0.265625 0.59375q0.171875 0.203125 0.4375 0.296875q0.265625 0.078125 0.625 0.078125q0.609375 0 0.984375 -0.125q0.375 -0.140625 0.515625 -0.203125l0.265625 1.125q-0.203125 0.109375 -0.71875 0.25q-0.515625 0.15625 -1.171875 0.15625q-0.78125 0 -1.28125 -0.1875q-0.5 -0.203125 -0.8125 -0.59375q-0.3125 -0.40625 -0.4375 -0.984375q-0.125 -0.578125 -0.125 -1.34375l0 -6.796875l1.375 -0.234375l0 2.359375zm5.9699554 7.625l-1.359375 0l0 -7.625l1.359375 0l0 7.625zm-0.6875 -9.0q-0.359375 0 -0.625 -0.234375q-0.25 -0.25 -0.25 -0.65625q0 -0.40625 0.25 -0.640625q0.265625 -0.25 0.625 -0.25q0.375 0 0.625 0.25q0.25 0.234375 0.25 0.640625q0 0.40625 -0.25 0.65625q-0.25 0.234375 -0.625 0.234375zm7.9580383 2.984375q-0.25 -0.203125 -0.71875 -0.390625q-0.46875 -0.1875 -1.015625 -0.1875q-0.59375 0 -1.015625 0.21875q-0.40625 0.203125 -0.671875 0.578125q-0.265625 0.375 -0.390625 0.890625q-0.109375 0.515625 -0.109375 1.09375q0 1.328125 0.65625 2.0625q0.65625 0.71875 1.765625 0.71875q0.546875 0 0.921875 -0.046875q0.375 -0.046875 0.578125 -0.109375l0 -4.828125zm0 -5.125l1.359375 -0.234375l0 11.15625q-0.46875 0.125 -1.203125 0.25q-0.71875 0.140625 -1.671875 0.140625q-0.890625 0 -1.59375 -0.265625q-0.703125 -0.28125 -1.203125 -0.796875q-0.484375 -0.515625 -0.765625 -1.25q-0.265625 -0.75 -0.265625 -1.671875q0 -0.875 0.21875 -1.609375q0.234375 -0.734375 0.671875 -1.25q0.4375 -0.53125 1.078125 -0.828125q0.640625 -0.296875 1.453125 -0.296875q0.671875 0 1.171875 0.171875q0.5 0.171875 0.75 0.34375l0 -3.859375zm3.2888184 7.34375q0 -1.015625 0.28125 -1.765625q0.296875 -0.75 0.78125 -1.25q0.484375 -0.5 1.109375 -0.75q0.640625 -0.25 1.296875 -0.25q1.546875 0 2.359375 0.96875q0.828125 0.953125 0.828125 2.921875q0 0.078125 0 0.21875q0 0.140625 -0.015625 0.265625l-5.21875 0q0.078125 1.1875 0.671875 1.796875q0.609375 0.609375 1.890625 0.609375q0.71875 0 1.203125 -0.125q0.5 -0.125 0.75 -0.234375l0.1875 1.140625q-0.25 0.125 -0.875 0.265625q-0.625 0.15625 -1.40625 0.15625q-1.0 0 -1.734375 -0.296875q-0.71875 -0.296875 -1.1875 -0.828125q-0.46875 -0.53125 -0.703125 -1.25q-0.21875 -0.734375 -0.21875 -1.59375zm5.234375 -0.75q0.015625 -0.921875 -0.46875 -1.515625q-0.46875 -0.59375 -1.3125 -0.59375q-0.46875 0 -0.828125 0.1875q-0.359375 0.1875 -0.609375 0.484375q-0.25 0.28125 -0.390625 0.671875q-0.125 0.375 -0.171875 0.765625l3.78125 0z" fill-rule="nonzero"/><path fill="#000000" d="m167.84958 228.35844q0.609375 0 1.03125 0.09375q0.4375 0.078125 0.625 0.15625l-0.25 1.171875q-0.1875 -0.09375 -0.515625 -0.171875q-0.3125 -0.078125 -0.78125 -0.078125q-0.953125 0 -1.34375 0.53125q-0.375 0.515625 -0.375 1.390625l0 0.65625l2.9375 0l0 1.140625l-2.9375 0l0 6.484375l-1.359375 0l0 -8.3125q0 -1.46875 0.71875 -2.265625q0.71875 -0.796875 2.25 -0.796875zm2.2667084 7.578125q0 -1.015625 0.28125 -1.765625q0.296875 -0.75 0.78125 -1.25q0.484375 -0.5 1.109375 -0.75q0.640625 -0.25 1.296875 -0.25q1.546875 0 2.359375 0.96875q0.828125 0.953125 0.828125 2.921875q0 0.078125 0 0.21875q0 0.140625 -0.015625 0.265625l-5.21875 0q0.078125 1.1875 0.671875 1.796875q0.609375 0.609375 1.890625 0.609375q0.71875 0 1.203125 -0.125q0.5 -0.125 0.75 -0.234375l0.1875 1.140625q-0.25 0.125 -0.875 0.265625q-0.625 0.15625 -1.40625 0.15625q-1.0 0 -1.734375 -0.296875q-0.71875 -0.296875 -1.1875 -0.828125q-0.46875 -0.53125 -0.703125 -1.25q-0.21875 -0.734375 -0.21875 -1.59375zm5.234375 -0.75q0.015625 -0.921875 -0.46875 -1.515625q-0.46875 -0.59375 -1.3125 -0.59375q-0.46875 0 -0.828125 0.1875q-0.359375 0.1875 -0.609375 0.484375q-0.25 0.28125 -0.390625 0.671875q-0.125 0.375 -0.171875 0.765625l3.78125 0zm5.958496 3.5625q0.484375 0 0.859375 -0.015625q0.375 -0.03125 0.625 -0.078125l0 -2.28125q-0.15625 -0.0625 -0.484375 -0.109375q-0.328125 -0.0625 -0.796875 -0.0625q-0.296875 0 -0.65625 0.046875q-0.34375 0.046875 -0.625 0.1875q-0.28125 0.125 -0.46875 0.375q-0.1875 0.234375 -0.1875 0.640625q0 0.734375 0.46875 1.015625q0.46875 0.28125 1.265625 0.28125zm-0.109375 -6.828125q0.8125 0 1.375 0.21875q0.5625 0.203125 0.90625 0.59375q0.34375 0.390625 0.484375 0.921875q0.15625 0.53125 0.15625 1.1875l0 4.765625q-0.171875 0.015625 -0.484375 0.078125q-0.3125 0.046875 -0.71875 0.09375q-0.390625 0.046875 -0.859375 0.078125q-0.453125 0.03125 -0.90625 0.03125q-0.640625 0 -1.1875 -0.140625q-0.546875 -0.125 -0.953125 -0.40625q-0.390625 -0.28125 -0.609375 -0.75q-0.21875 -0.46875 -0.21875 -1.125q0 -0.640625 0.25 -1.09375q0.265625 -0.453125 0.703125 -0.734375q0.4375 -0.28125 1.015625 -0.40625q0.59375 -0.125 1.25 -0.125q0.203125 0 0.421875 0.015625q0.21875 0.015625 0.40625 0.0625q0.203125 0.03125 0.34375 0.0625q0.15625 0.03125 0.21875 0.046875l0 -0.390625q0 -0.328125 -0.078125 -0.65625q-0.078125 -0.328125 -0.265625 -0.578125q-0.1875 -0.265625 -0.515625 -0.421875q-0.328125 -0.15625 -0.859375 -0.15625q-0.671875 0 -1.1875 0.09375q-0.5 0.09375 -0.75 0.203125l-0.15625 -1.125q0.265625 -0.125 0.875 -0.234375q0.625 -0.109375 1.34375 -0.109375zm6.463089 0.1875l2.875 0l0 1.140625l-2.875 0l0 3.53125q0 0.5625 0.078125 0.9375q0.09375 0.375 0.265625 0.59375q0.171875 0.203125 0.4375 0.296875q0.265625 0.078125 0.625 0.078125q0.609375 0 0.984375 -0.125q0.375 -0.140625 0.515625 -0.203125l0.265625 1.125q-0.203125 0.109375 -0.71875 0.25q-0.515625 0.15625 -1.171875 0.15625q-0.78125 0 -1.28125 -0.1875q-0.5 -0.203125 -0.8125 -0.59375q-0.3125 -0.40625 -0.4375 -0.984375q-0.125 -0.578125 -0.125 -1.34375l0 -6.796875l1.375 -0.234375l0 2.359375zm10.67308 7.40625q-0.46875 0.109375 -1.234375 0.234375q-0.765625 0.140625 -1.78125 0.140625q-0.875 0 -1.484375 -0.25q-0.59375 -0.265625 -0.96875 -0.734375q-0.359375 -0.46875 -0.53125 -1.09375q-0.15625 -0.640625 -0.15625 -1.421875l0 -4.28125l1.375 0l0 3.984375q0 1.390625 0.4375 2.0q0.4375 0.59375 1.484375 0.59375q0.21875 0 0.453125 0q0.234375 -0.015625 0.4375 -0.03125q0.203125 -0.03125 0.359375 -0.046875q0.171875 -0.03125 0.25 -0.0625l0 -6.4375l1.359375 0l0 7.40625zm5.1627197 -7.5625q0.171875 0 0.390625 0.03125q0.234375 0.015625 0.453125 0.046875q0.234375 0.03125 0.40625 0.078125q0.1875 0.03125 0.28125 0.0625l-0.234375 1.1875q-0.171875 -0.0625 -0.546875 -0.140625q-0.359375 -0.078125 -0.953125 -0.078125q-0.375 0 -0.75 0.078125q-0.375 0.078125 -0.5 0.109375l0 6.40625l-1.359375 0l0 -7.296875q0.484375 -0.171875 1.203125 -0.328125q0.71875 -0.15625 1.609375 -0.15625zm2.4229584 3.984375q0 -1.015625 0.28125 -1.765625q0.296875 -0.75 0.78125 -1.25q0.484375 -0.5 1.109375 -0.75q0.640625 -0.25 1.296875 -0.25q1.546875 0 2.359375 0.96875q0.828125 0.953125 0.828125 2.921875q0 0.078125 0 0.21875q0 0.140625 -0.015625 0.265625l-5.21875 0q0.078125 1.1875 0.671875 1.796875q0.609375 0.609375 1.890625 0.609375q0.71875 0 1.203125 -0.125q0.5 -0.125 0.75 -0.234375l0.1875 1.140625q-0.25 0.125 -0.875 0.265625q-0.625 0.15625 -1.40625 0.15625q-1.0 0 -1.734375 -0.296875q-0.71875 -0.296875 -1.1875 -0.828125q-0.46875 -0.53125 -0.703125 -1.25q-0.21875 -0.734375 -0.21875 -1.59375zm5.234375 -0.75q0.015625 -0.921875 -0.46875 -1.515625q-0.46875 -0.59375 -1.3125 -0.59375q-0.46875 0 -0.828125 0.1875q-0.359375 0.1875 -0.609375 0.484375q-0.25 0.28125 -0.390625 0.671875q-0.125 0.375 -0.171875 0.765625l3.78125 0zm5.161621 3.5625q0.828125 0 1.234375 -0.21875q0.40625 -0.21875 0.40625 -0.703125q0 -0.5 -0.40625 -0.78125q-0.390625 -0.296875 -1.296875 -0.671875q-0.4375 -0.171875 -0.84375 -0.359375q-0.40625 -0.1875 -0.703125 -0.421875q-0.28125 -0.25 -0.46875 -0.59375q-0.171875 -0.359375 -0.171875 -0.875q0 -1.015625 0.75 -1.609375q0.75 -0.59375 2.03125 -0.59375q0.328125 0 0.640625 0.046875q0.328125 0.03125 0.609375 0.078125q0.28125 0.046875 0.484375 0.109375q0.21875 0.0625 0.34375 0.109375l-0.25 1.171875q-0.234375 -0.125 -0.703125 -0.25q-0.46875 -0.125 -1.125 -0.125q-0.5625 0 -1.0 0.234375q-0.421875 0.21875 -0.421875 0.703125q0 0.25 0.09375 0.453125q0.09375 0.1875 0.296875 0.34375q0.203125 0.140625 0.484375 0.28125q0.296875 0.125 0.71875 0.28125q0.53125 0.203125 0.953125 0.40625q0.4375 0.1875 0.734375 0.453125q0.296875 0.265625 0.453125 0.640625q0.171875 0.375 0.171875 0.90625q0 1.0625 -0.796875 1.609375q-0.78125 0.53125 -2.21875 0.53125q-1.015625 0 -1.59375 -0.171875q-0.5625 -0.15625 -0.765625 -0.25l0.234375 -1.171875q0.234375 0.09375 0.75 0.265625q0.515625 0.171875 1.375 0.171875z" fill-rule="nonzero"/><path fill="#000000" fill-opacity="0.0" d="m255.50783 205.10982l0 -102.708664l29.732285 0l0 102.708664z" fill-rule="evenodd"/><path fill="#000000" d="m277.5722 174.57721q0 -2.21875 -1.515625 -2.21875q-0.46875 0 -0.796875 0.203125q-0.34375 0.1875 -0.578125 0.53125q-0.234375 0.328125 -0.40625 0.765625q-0.1875 0.4375 -0.359375 0.921875q-0.1875 0.546875 -0.421875 1.046875q-0.25 0.5 -0.578125 0.875q-0.34375 0.359375 -0.796875 0.578125q-0.453125 0.203125 -1.09375 0.203125q-1.328125 0 -2.078125 -0.90625q-0.75 -0.90625 -0.75 -2.515625q0 -0.921875 0.203125 -1.671875q0.1875 -0.75 0.421875 -1.109375l1.15625 0.453125q-0.1875 0.3125 -0.359375 0.921875q-0.1875 0.609375 -0.1875 1.40625q0 0.421875 0.09375 0.78125q0.078125 0.34375 0.265625 0.609375q0.171875 0.265625 0.4375 0.421875q0.265625 0.140625 0.640625 0.140625q0.40625 0 0.6875 -0.15625q0.28125 -0.15625 0.5 -0.453125q0.203125 -0.296875 0.375 -0.6875q0.171875 -0.390625 0.359375 -0.859375q0.25 -0.65625 0.515625 -1.203125q0.265625 -0.546875 0.640625 -0.953125q0.359375 -0.40625 0.875 -0.625q0.5 -0.21875 1.21875 -0.21875q1.328125 0 2.046875 0.984375q0.71875 0.96875 0.71875 2.734375q0 0.609375 -0.078125 1.109375q-0.078125 0.5 -0.1875 0.90625q-0.109375 0.390625 -0.234375 0.6875q-0.125 0.28125 -0.21875 0.4375l-1.171875 -0.421875q0.1875 -0.34375 0.421875 -1.03125q0.234375 -0.6875 0.234375 -1.6875zm0.03125 -7.9221497q0 -0.484375 -0.015625 -0.859375q-0.03125 -0.375 -0.078125 -0.625l-2.28125 0q-0.0625 0.15625 -0.109375 0.484375q-0.0625 0.328125 -0.0625 0.796875q0 0.296875 0.046875 0.65625q0.046875 0.34375 0.1875 0.625q0.125 0.28125 0.375 0.46875q0.234375 0.1875 0.640625 0.1875q0.734375 0 1.015625 -0.46875q0.28125 -0.46875 0.28125 -1.265625zm-6.828125 0.109375q0 -0.8125 0.21875 -1.375q0.203125 -0.5625 0.59375 -0.90625q0.390625 -0.34375 0.921875 -0.484375q0.53125 -0.15625 1.1875 -0.15625l4.765625 0q0.015625 0.171875 0.078125 0.484375q0.046875 0.3125 0.09375 0.71875q0.046875 0.390625 0.078125 0.859375q0.03125 0.453125 0.03125 0.90625q0 0.640625 -0.140625 1.1875q-0.125 0.546875 -0.40625 0.953125q-0.28125 0.390625 -0.75 0.609375q-0.46875 0.21875 -1.125 0.21875q-0.640625 0 -1.09375 -0.25q-0.453125 -0.265625 -0.734375 -0.703125q-0.28125 -0.4375 -0.40625 -1.015625q-0.125 -0.59375 -0.125 -1.25q0 -0.203125 0.015625 -0.421875q0.015625 -0.21875 0.0625 -0.40625q0.03125 -0.203125 0.0625 -0.34375q0.03125 -0.15625 0.046875 -0.21875l-0.390625 0q-0.328125 0 -0.65625 0.078125q-0.328125 0.078125 -0.578125 0.265625q-0.265625 0.1875 -0.421875 0.515625q-0.15625 0.328125 -0.15625 0.859375q0 0.671875 0.09375 1.1875q0.09375 0.5 0.203125 0.75l-1.125 0.15625q-0.125 -0.265625 -0.234375 -0.875q-0.109375 -0.625 -0.109375 -1.34375zm0.40625 -5.181839q-0.109375 -0.46875 -0.234375 -1.234375q-0.140625 -0.78125 -0.140625 -1.78125q0 -0.734375 0.203125 -1.234375q0.1875 -0.5 0.578125 -0.84375q-0.078125 -0.09375 -0.203125 -0.3125q-0.140625 -0.21875 -0.265625 -0.546875q-0.125 -0.328125 -0.21875 -0.71875q-0.09375 -0.390625 -0.09375 -0.84375q0 -0.890625 0.265625 -1.4375q0.25 -0.5625 0.71875 -0.875q0.46875 -0.3125 1.109375 -0.421875q0.640625 -0.109375 1.40625 -0.109375l4.28125 0l0 1.359375l-3.984375 0q-0.671875 0 -1.15625 0.0625q-0.484375 0.0625 -0.796875 0.25q-0.328125 0.1875 -0.484375 0.5q-0.15625 0.3125 -0.15625 0.8125q0 0.6875 0.1875 1.140625q0.171875 0.4375 0.328125 0.609375q0.375 -0.125 0.828125 -0.171875q0.453125 -0.0625 0.953125 -0.0625l4.28125 0l0 1.359375l-3.984375 0q-0.671875 0 -1.15625 0.078125q-0.484375 0.0625 -0.796875 0.25q-0.328125 0.1875 -0.484375 0.5q-0.15625 0.3125 -0.15625 0.796875q0 0.203125 0.015625 0.4375q0.015625 0.234375 0.046875 0.453125q0.015625 0.203125 0.046875 0.390625q0.015625 0.171875 0.03125 0.234375l6.4375 0l0 1.359375l-7.40625 0zm3.609375 -17.915955q-1.328125 0 -2.046875 0.671875q-0.71875 0.65625 -0.71875 1.75q0 0.625 0.046875 0.96875q0.03125 0.34375 0.09375 0.546875l4.8125 0q0.203125 -0.25 0.390625 -0.71875q0.1875 -0.46875 0.1875 -1.03125q0 -0.578125 -0.203125 -1.0q-0.21875 -0.421875 -0.59375 -0.6875q-0.375 -0.265625 -0.875 -0.375q-0.5 -0.125 -1.09375 -0.125zm0 -1.421875q0.859375 0 1.59375 0.234375q0.734375 0.21875 1.265625 0.671875q0.53125 0.4375 0.828125 1.078125q0.28125 0.625 0.28125 1.453125q0 0.65625 -0.171875 1.171875q-0.171875 0.5 -0.34375 0.75l3.0625 0l0 1.359375l-10.109375 0q-0.109375 -0.484375 -0.25 -1.203125q-0.140625 -0.734375 -0.140625 -1.6875q0 -0.875 0.28125 -1.578125q0.28125 -0.703125 0.796875 -1.203125q0.5 -0.5 1.25 -0.765625q0.734375 -0.28125 1.65625 -0.28125zm3.9375 -4.1950684q-0.015625 1.25 -0.53125 1.78125q-0.515625 0.53125 -1.609375 0.53125l-9.140625 0l-0.234375 -1.359375l9.15625 0q0.34375 0 0.5625 -0.0625q0.21875 -0.0625 0.359375 -0.1875q0.125 -0.140625 0.1875 -0.359375q0.0625 -0.21875 0.109375 -0.546875l1.140625 0.203125zm-3.9375 -1.2980499q-1.015625 0 -1.765625 -0.28125q-0.75 -0.296875 -1.25 -0.78125q-0.5 -0.484375 -0.75 -1.109375q-0.25 -0.640625 -0.25 -1.296875q0 -1.546875 0.96875 -2.359375q0.953125 -0.828125 2.921875 -0.828125q0.078125 0 0.21875 0q0.140625 0 0.265625 0.015625l0 5.21875q1.1875 -0.078125 1.796875 -0.671875q0.609375 -0.609375 0.609375 -1.890625q0 -0.71875 -0.125 -1.203125q-0.125 -0.5 -0.234375 -0.75l1.140625 -0.1875q0.125 0.25 0.265625 0.875q0.15625 0.625 0.15625 1.40625q0 1.0 -0.296875 1.734375q-0.296875 0.71875 -0.828125 1.1875q-0.53125 0.46875 -1.25 0.703125q-0.734375 0.21875 -1.59375 0.21875zm-0.75 -5.234375q-0.921875 -0.015625 -1.515625 0.46875q-0.59375 0.46875 -0.59375 1.3125q0 0.46875 0.1875 0.828125q0.1875 0.359375 0.484375 0.609375q0.28125 0.25 0.671875 0.390625q0.375 0.125 0.765625 0.171875l0 -3.78125z" fill-rule="nonzero"/><path fill="#000000" d="m285.21283 177.711q0 -0.609375 0.09375 -1.03125q0.078125 -0.4375 0.15625 -0.625l1.171875 0.25q-0.09375 0.1875 -0.171875 0.515625q-0.078125 0.3125 -0.078125 0.78125q0 0.953125 0.53125 1.34375q0.515625 0.375 1.390625 0.375l0.65625 0l0 -2.9375l1.140625 0l0 2.9375l6.484375 0l0 1.359375l-8.3125 0q-1.46875 0 -2.265625 -0.71875q-0.796875 -0.71875 -0.796875 -2.25zm7.578125 -2.2667084q-1.015625 0 -1.765625 -0.28125q-0.75 -0.296875 -1.25 -0.78125q-0.5 -0.484375 -0.75 -1.109375q-0.25 -0.640625 -0.25 -1.296875q0 -1.546875 0.96875 -2.359375q0.953125 -0.828125 2.921875 -0.828125q0.078125 0 0.21875 0q0.140625 0 0.265625 0.015625l0 5.21875q1.1875 -0.078125 1.796875 -0.671875q0.609375 -0.609375 0.609375 -1.890625q0 -0.71875 -0.125 -1.203125q-0.125 -0.5 -0.234375 -0.75l1.140625 -0.1875q0.125 0.25 0.265625 0.875q0.15625 0.625 0.15625 1.40625q0 1.0 -0.296875 1.734375q-0.296875 0.71875 -0.828125 1.1875q-0.53125 0.46875 -1.25 0.703125q-0.734375 0.21875 -1.59375 0.21875zm-0.75 -5.234375q-0.921875 -0.015625 -1.515625 0.46875q-0.59375 0.46875 -0.59375 1.3125q0 0.46875 0.1875 0.828125q0.1875 0.359375 0.484375 0.609375q0.28125 0.25 0.671875 0.390625q0.375 0.125 0.765625 0.171875l0 -3.78125zm3.5625 -5.958496q0 -0.484375 -0.015625 -0.859375q-0.03125 -0.375 -0.078125 -0.625l-2.28125 0q-0.0625 0.15625 -0.109375 0.484375q-0.0625 0.328125 -0.0625 0.796875q0 0.296875 0.046875 0.65625q0.046875 0.34375 0.1875 0.625q0.125 0.28125 0.375 0.46875q0.234375 0.1875 0.640625 0.1875q0.734375 0 1.015625 -0.46875q0.28125 -0.46875 0.28125 -1.265625zm-6.828125 0.109375q0 -0.8125 0.21875 -1.375q0.203125 -0.5625 0.59375 -0.90625q0.390625 -0.34375 0.921875 -0.484375q0.53125 -0.15625 1.1875 -0.15625l4.765625 0q0.015625 0.171875 0.078125 0.484375q0.046875 0.3125 0.09375 0.71875q0.046875 0.390625 0.078125 0.859375q0.03125 0.453125 0.03125 0.90625q0 0.640625 -0.140625 1.1875q-0.125 0.546875 -0.40625 0.953125q-0.28125 0.390625 -0.75 0.609375q-0.46875 0.21875 -1.125 0.21875q-0.640625 0 -1.09375 -0.25q-0.453125 -0.265625 -0.734375 -0.703125q-0.28125 -0.4375 -0.40625 -1.015625q-0.125 -0.59375 -0.125 -1.25q0 -0.203125 0.015625 -0.421875q0.015625 -0.21875 0.0625 -0.40625q0.03125 -0.203125 0.0625 -0.34375q0.03125 -0.15625 0.046875 -0.21875l-0.390625 0q-0.328125 0 -0.65625 0.078125q-0.328125 0.078125 -0.578125 0.265625q-0.265625 0.1875 -0.421875 0.515625q-0.15625 0.328125 -0.15625 0.859375q0 0.671875 0.09375 1.1875q0.09375 0.5 0.203125 0.75l-1.125 0.15625q-0.125 -0.265625 -0.234375 -0.875q-0.109375 -0.625 -0.109375 -1.34375zm0.1875 -6.463089l0 -2.875l1.140625 0l0 2.875l3.53125 0q0.5625 0 0.9375 -0.078125q0.375 -0.09375 0.59375 -0.265625q0.203125 -0.171875 0.296875 -0.4375q0.078125 -0.265625 0.078125 -0.625q0 -0.609375 -0.125 -0.984375q-0.140625 -0.375 -0.203125 -0.515625l1.125 -0.265625q0.109375 0.203125 0.25 0.71875q0.15625 0.515625 0.15625 1.171875q0 0.78125 -0.1875 1.28125q-0.203125 0.5 -0.59375 0.8125q-0.40625 0.3125 -0.984375 0.4375q-0.578125 0.125 -1.34375 0.125l-6.796875 0l-0.234375 -1.375l2.359375 0zm7.40625 -10.67308q0.109375 0.46875 0.234375 1.234375q0.140625 0.765625 0.140625 1.78125q0 0.875 -0.25 1.484375q-0.265625 0.59375 -0.734375 0.96875q-0.46875 0.359375 -1.09375 0.53125q-0.640625 0.15625 -1.421875 0.15625l-4.28125 0l0 -1.375l3.984375 0q1.390625 0 2.0 -0.4375q0.59375 -0.4375 0.59375 -1.484375q0 -0.21875 0 -0.453125q-0.015625 -0.234375 -0.03125 -0.4375q-0.03125 -0.203125 -0.046875 -0.359375q-0.03125 -0.171875 -0.0625 -0.25l-6.4375 0l0 -1.359375l7.40625 0zm-7.5625 -5.1627197q0 -0.171875 0.03125 -0.390625q0.015625 -0.234375 0.046875 -0.453125q0.03125 -0.234375 0.078125 -0.40625q0.03125 -0.1875 0.0625 -0.28125l1.1875 0.234375q-0.0625 0.171875 -0.140625 0.546875q-0.078125 0.359375 -0.078125 0.953125q0 0.375 0.078125 0.75q0.078125 0.375 0.109375 0.5l6.40625 0l0 1.359375l-7.296875 0q-0.171875 -0.484375 -0.328125 -1.203125q-0.15625 -0.71875 -0.15625 -1.609375zm3.984375 -2.4229584q-1.015625 0 -1.765625 -0.28125q-0.75 -0.296875 -1.25 -0.78125q-0.5 -0.484375 -0.75 -1.109375q-0.25 -0.640625 -0.25 -1.296875q0 -1.546875 0.96875 -2.359375q0.953125 -0.828125 2.921875 -0.828125q0.078125 0 0.21875 0q0.140625 0 0.265625 0.015625l0 5.21875q1.1875 -0.078125 1.796875 -0.671875q0.609375 -0.609375 0.609375 -1.890625q0 -0.71875 -0.125 -1.203125q-0.125 -0.5 -0.234375 -0.75l1.140625 -0.1875q0.125 0.25 0.265625 0.875q0.15625 0.625 0.15625 1.40625q0 1.0 -0.296875 1.734375q-0.296875 0.71875 -0.828125 1.1875q-0.53125 0.46875 -1.25 0.703125q-0.734375 0.21875 -1.59375 0.21875zm-0.75 -5.234375q-0.921875 -0.015625 -1.515625 0.46875q-0.59375 0.46875 -0.59375 1.3125q0 0.46875 0.1875 0.828125q0.1875 0.359375 0.484375 0.609375q0.28125 0.25 0.671875 0.390625q0.375 0.125 0.765625 0.171875l0 -3.78125zm3.5625 -5.161621q0 -0.828125 -0.21875 -1.234375q-0.21875 -0.40625763 -0.703125 -0.40625763q-0.5 0 -0.78125 0.40625763q-0.296875 0.390625 -0.671875 1.296875q-0.171875 0.4375 -0.359375 0.84375q-0.1875 0.40625 -0.421875 0.703125q-0.25 0.28125 -0.59375 0.46875q-0.359375 0.171875 -0.875 0.171875q-1.015625 0 -1.609375 -0.75q-0.59375 -0.75 -0.59375 -2.03125q0 -0.328125 0.046875 -0.640625q0.03125 -0.32813263 0.078125 -0.6093826q0.046875 -0.28125 0.109375 -0.484375q0.0625 -0.21875 0.109375 -0.34375l1.171875 0.25q-0.125 0.234375 -0.25 0.703125q-0.125 0.46875763 -0.125 1.1250076q0 0.5625 0.234375 1.0q0.21875 0.421875 0.703125 0.421875q0.25 0 0.453125 -0.09375q0.1875 -0.09375 0.34375 -0.296875q0.140625 -0.203125 0.28125 -0.484375q0.125 -0.296875 0.28125 -0.71875q0.203125 -0.53125 0.40625 -0.9531326q0.1875 -0.4375 0.453125 -0.734375q0.265625 -0.296875 0.640625 -0.453125q0.375 -0.171875 0.90625 -0.171875q1.0625 0 1.609375 0.796875q0.53125 0.78125 0.53125 2.2187576q0 1.015625 -0.171875 1.59375q-0.15625 0.5625 -0.25 0.765625l-1.171875 -0.234375q0.09375 -0.234375 0.265625 -0.75q0.171875 -0.515625 0.171875 -1.375z" fill-rule="nonzero"/></g></svg>