<?xml version="1.0" encoding="UTF-8" standalone="no"?>
<!DOCTYPE svg PUBLIC "-//W3C//DTD SVG 1.1//EN"
 "http://www.w3.org/Graphics/SVG/1.1/DTD/svg11.dtd">
<!-- Generated by graphviz version 2.43.0 (0)
 -->
<!-- Title: dag Pages: 1 -->
<svg width="751pt" height="1171pt"
 viewBox="0.00 0.00 750.89 1170.80" xmlns="http://www.w3.org/2000/svg" xmlns:xlink="http://www.w3.org/1999/xlink">
<g id="graph0" class="graph" transform="scale(1 1) rotate(0) translate(4 1166.8)">
<title>dag</title>
<polygon fill="white" stroke="transparent" points="-4,4 -4,-1166.8 746.89,-1166.8 746.89,4 -4,4"/>
<!-- p0 -->
<g id="node1" class="node">
<title>p0</title>
<ellipse fill="black" stroke="black" cx="146.89" cy="-1159.2" rx="3.6" ry="3.6"/>
</g>
<!-- p1 -->
<g id="node2" class="node">
<title>p1</title>
<ellipse fill="none" stroke="black" cx="146.89" cy="-1086.6" rx="146.77" ry="18"/>
<text text-anchor="middle" x="146.89" y="-1082.9" font-family="Times,serif" font-size="14.00">ALIGN:validate_sample_table</text>
</g>
<!-- p0&#45;&gt;p1 -->
<g id="edge1" class="edge">
<title>p0&#45;&gt;p1</title>
<path fill="none" stroke="black" d="M146.89,-1155.52C146.89,-1148.85 146.89,-1130.9 146.89,-1115.13"/>
<polygon fill="black" stroke="black" points="150.39,-1114.73 146.89,-1104.73 143.39,-1114.73 150.39,-1114.73"/>
<text text-anchor="middle" x="176.39" y="-1126.4" font-family="Times,serif" font-size="14.00">samples</text>
</g>
<!-- p6 -->
<g id="node3" class="node">
<title>p6</title>
<ellipse fill="none" stroke="black" cx="246.89" cy="-1013.6" rx="3.5" ry="3.5"/>
<text text-anchor="middle" x="214.39" y="-1020.9" font-family="Times,serif" font-size="14.00">splitCsv</text>
</g>
<!-- p1&#45;&gt;p6 -->
<g id="edge2" class="edge">
<title>p1&#45;&gt;p6</title>
<path fill="none" stroke="black" d="M170.59,-1068.77C191.42,-1053.98 220.78,-1033.14 236.3,-1022.12"/>
<polygon fill="black" stroke="black" points="238.44,-1024.89 244.56,-1016.25 234.38,-1019.18 238.44,-1024.89"/>
</g>
<!-- p15 -->
<g id="node16" class="node">
<title>p15</title>
<ellipse fill="none" stroke="black" cx="407.89" cy="-567.6" rx="124.28" ry="18"/>
<text text-anchor="middle" x="407.89" y="-563.9" font-family="Times,serif" font-size="14.00">ALIGN:collect_phip_data</text>
</g>
<!-- p1&#45;&gt;p15 -->
<g id="edge17" class="edge">
<title>p1&#45;&gt;p15</title>
<path fill="none" stroke="black" d="M143.48,-1068.46C140.94,-1054.13 137.89,-1033.11 137.89,-1014.6 137.89,-1014.6 137.89,-1014.6 137.89,-625.1 137.89,-593.66 208.9,-579.61 278.1,-573.38"/>
<polygon fill="black" stroke="black" points="278.61,-576.85 288.28,-572.52 278.02,-569.87 278.61,-576.85"/>
<text text-anchor="middle" x="184.89" y="-816.4" font-family="Times,serif" font-size="14.00">sample_table</text>
</g>
<!-- p7 -->
<g id="node9" class="node">
<title>p7</title>
<ellipse fill="none" stroke="black" cx="258.89" cy="-940.6" rx="3.5" ry="3.5"/>
<text text-anchor="middle" x="239.89" y="-947.9" font-family="Times,serif" font-size="14.00">map</text>
</g>
<!-- p6&#45;&gt;p7 -->
<g id="edge7" class="edge">
<title>p6&#45;&gt;p7</title>
<path fill="none" stroke="black" d="M247.34,-1009.9C248.86,-1000.9 253.84,-971.46 256.74,-954.31"/>
<polygon fill="black" stroke="black" points="260.22,-954.74 258.43,-944.3 253.31,-953.58 260.22,-954.74"/>
</g>
<!-- p2 -->
<g id="node4" class="node">
<title>p2</title>
<ellipse fill="black" stroke="black" cx="509.89" cy="-1159.2" rx="3.6" ry="3.6"/>
</g>
<!-- p3 -->
<g id="node5" class="node">
<title>p3</title>
<ellipse fill="none" stroke="black" cx="509.89" cy="-1086.6" rx="148.67" ry="18"/>
<text text-anchor="middle" x="509.89" y="-1082.9" font-family="Times,serif" font-size="14.00">ALIGN:validate_peptide_table</text>
</g>
<!-- p2&#45;&gt;p3 -->
<g id="edge3" class="edge">
<title>p2&#45;&gt;p3</title>
<path fill="none" stroke="black" d="M509.89,-1155.52C509.89,-1148.85 509.89,-1130.9 509.89,-1115.13"/>
<polygon fill="black" stroke="black" points="513.39,-1114.73 509.89,-1104.73 506.39,-1114.73 513.39,-1114.73"/>
<text text-anchor="middle" x="540.89" y="-1126.4" font-family="Times,serif" font-size="14.00">peptides</text>
</g>
<!-- p4 -->
<g id="node6" class="node">
<title>p4</title>
<ellipse fill="none" stroke="black" cx="446.89" cy="-1013.6" rx="161.67" ry="18"/>
<text text-anchor="middle" x="446.89" y="-1009.9" font-family="Times,serif" font-size="14.00">ALIGN:generate_fasta_reference</text>
</g>
<!-- p3&#45;&gt;p4 -->
<g id="edge4" class="edge">
<title>p3&#45;&gt;p4</title>
<path fill="none" stroke="black" d="M494.64,-1068.41C486.9,-1059.69 477.36,-1048.94 468.84,-1039.35"/>
<polygon fill="black" stroke="black" points="471.25,-1036.79 462,-1031.63 466.02,-1041.43 471.25,-1036.79"/>
</g>
<!-- p3&#45;&gt;p15 -->
<g id="edge18" class="edge">
<title>p3&#45;&gt;p15</title>
<path fill="none" stroke="black" d="M591.35,-1071.52C620.32,-1061.44 645.89,-1044.16 645.89,-1014.6 645.89,-1014.6 645.89,-1014.6 645.89,-625.1 645.89,-598.35 588.27,-584.25 529.73,-576.82"/>
<polygon fill="black" stroke="black" points="529.92,-573.32 519.57,-575.6 529.08,-580.27 529.92,-573.32"/>
<text text-anchor="middle" x="694.39" y="-816.4" font-family="Times,serif" font-size="14.00">peptide_table</text>
</g>
<!-- p5 -->
<g id="node7" class="node">
<title>p5</title>
<ellipse fill="none" stroke="black" cx="426.89" cy="-940.6" rx="115.88" ry="18"/>
<text text-anchor="middle" x="426.89" y="-936.9" font-family="Times,serif" font-size="14.00">ALIGN:generate_index</text>
</g>
<!-- p4&#45;&gt;p5 -->
<g id="edge5" class="edge">
<title>p4&#45;&gt;p5</title>
<path fill="none" stroke="black" d="M442.05,-995.41C439.76,-987.3 436.98,-977.44 434.43,-968.38"/>
<polygon fill="black" stroke="black" points="437.76,-967.31 431.68,-958.63 431.03,-969.2 437.76,-967.31"/>
</g>
<!-- p8 -->
<g id="node8" class="node">
<title>p8</title>
<ellipse fill="none" stroke="black" cx="343.89" cy="-868.1" rx="3.5" ry="3.5"/>
<text text-anchor="middle" x="321.39" y="-875.4" font-family="Times,serif" font-size="14.00">cross</text>
</g>
<!-- p5&#45;&gt;p8 -->
<g id="edge6" class="edge">
<title>p5&#45;&gt;p8</title>
<path fill="none" stroke="black" d="M406.79,-922.53C389.97,-908.25 366.69,-888.47 353.68,-877.42"/>
<polygon fill="black" stroke="black" points="355.9,-874.72 346.02,-870.91 351.37,-880.05 355.9,-874.72"/>
</g>
<!-- p9 -->
<g id="node10" class="node">
<title>p9</title>
<ellipse fill="none" stroke="black" cx="343.89" cy="-820.1" rx="3.5" ry="3.5"/>
<text text-anchor="middle" x="324.89" y="-827.4" font-family="Times,serif" font-size="14.00">map</text>
</g>
<!-- p8&#45;&gt;p9 -->
<g id="edge9" class="edge">
<title>p8&#45;&gt;p9</title>
<path fill="none" stroke="black" d="M343.89,-864.36C343.89,-858.53 343.89,-844.57 343.89,-834.07"/>
<polygon fill="black" stroke="black" points="347.39,-833.77 343.89,-823.77 340.39,-833.77 347.39,-833.77"/>
</g>
<!-- p7&#45;&gt;p8 -->
<g id="edge8" class="edge">
<title>p7&#45;&gt;p8</title>
<path fill="none" stroke="black" d="M259.41,-936.87C261.17,-928.54 267.59,-903.12 282.89,-889.6 296.35,-877.71 316.96,-872.67 330.43,-870.56"/>
<polygon fill="black" stroke="black" points="330.89,-874.03 340.39,-869.34 330.04,-867.08 330.89,-874.03"/>
<text text-anchor="middle" x="323.89" y="-893.4" font-family="Times,serif" font-size="14.00">samples_ch</text>
</g>
<!-- p10 -->
<g id="node11" class="node">
<title>p10</title>
<ellipse fill="none" stroke="black" cx="343.89" cy="-757.6" rx="145.67" ry="18"/>
<text text-anchor="middle" x="343.89" y="-753.9" font-family="Times,serif" font-size="14.00">ALIGN:short_read_alignment</text>
</g>
<!-- p9&#45;&gt;p10 -->
<g id="edge10" class="edge">
<title>p9&#45;&gt;p10</title>
<path fill="none" stroke="black" d="M343.89,-816.5C343.89,-811.15 343.89,-798.37 343.89,-786.18"/>
<polygon fill="black" stroke="black" points="347.39,-785.82 343.89,-775.82 340.39,-785.82 347.39,-785.82"/>
</g>
<!-- p11 -->
<g id="node12" class="node">
<title>p11</title>
<ellipse fill="none" stroke="black" cx="277.89" cy="-684.6" rx="112.38" ry="18"/>
<text text-anchor="middle" x="277.89" y="-680.9" font-family="Times,serif" font-size="14.00">ALIGN:sam_to_counts</text>
</g>
<!-- p10&#45;&gt;p11 -->
<g id="edge11" class="edge">
<title>p10&#45;&gt;p11</title>
<path fill="none" stroke="black" d="M327.91,-739.41C319.72,-730.6 309.61,-719.73 300.62,-710.06"/>
<polygon fill="black" stroke="black" points="303.09,-707.57 293.72,-702.63 297.96,-712.34 303.09,-707.57"/>
</g>
<!-- p12 -->
<g id="node14" class="node">
<title>p12</title>
<ellipse fill="none" stroke="black" cx="512.89" cy="-684.6" rx="104.78" ry="18"/>
<text text-anchor="middle" x="512.89" y="-680.9" font-family="Times,serif" font-size="14.00">ALIGN:sam_to_stats</text>
</g>
<!-- p10&#45;&gt;p12 -->
<g id="edge13" class="edge">
<title>p10&#45;&gt;p12</title>
<path fill="none" stroke="black" d="M383.08,-740.13C407.75,-729.77 439.72,-716.34 465.76,-705.4"/>
<polygon fill="black" stroke="black" points="467.2,-708.59 475.07,-701.49 464.49,-702.14 467.2,-708.59"/>
</g>
<!-- p13 -->
<g id="node13" class="node">
<title>p13</title>
<ellipse fill="none" stroke="black" cx="286.89" cy="-626.1" rx="3.5" ry="3.5"/>
<text text-anchor="middle" x="238.39" y="-633.4" font-family="Times,serif" font-size="14.00">toSortedList</text>
</g>
<!-- p11&#45;&gt;p13 -->
<g id="edge12" class="edge">
<title>p11&#45;&gt;p13</title>
<path fill="none" stroke="black" d="M280.64,-666.34C282,-657.76 283.63,-647.57 284.88,-639.72"/>
<polygon fill="black" stroke="black" points="288.36,-640.09 286.48,-629.66 281.45,-638.99 288.36,-640.09"/>
</g>
<!-- p13&#45;&gt;p15 -->
<g id="edge15" class="edge">
<title>p13&#45;&gt;p15</title>
<path fill="none" stroke="black" d="M289.88,-623.7C300.09,-618.93 334.56,-602.84 363.63,-589.27"/>
<polygon fill="black" stroke="black" points="365.26,-592.37 372.84,-584.97 362.3,-586.03 365.26,-592.37"/>
</g>
<!-- p14 -->
<g id="node15" class="node">
<title>p14</title>
<ellipse fill="none" stroke="black" cx="438.89" cy="-626.1" rx="3.5" ry="3.5"/>
<text text-anchor="middle" x="390.39" y="-633.4" font-family="Times,serif" font-size="14.00">toSortedList</text>
</g>
<!-- p12&#45;&gt;p14 -->
<g id="edge14" class="edge">
<title>p12&#45;&gt;p14</title>
<path fill="none" stroke="black" d="M491.08,-666.95C477.39,-656.49 460.32,-643.47 449.51,-635.21"/>
<polygon fill="black" stroke="black" points="451.45,-632.29 441.38,-629 447.21,-637.85 451.45,-632.29"/>
</g>
<!-- p14&#45;&gt;p15 -->
<g id="edge16" class="edge">
<title>p14&#45;&gt;p15</title>
<path fill="none" stroke="black" d="M437.55,-622.67C434.83,-617.71 428.35,-605.9 422.14,-594.58"/>
<polygon fill="black" stroke="black" points="425.17,-592.83 417.29,-585.74 419.04,-596.19 425.17,-592.83"/>
</g>
<!-- p16 -->
<g id="node17" class="node">
<title>p16</title>
<ellipse fill="none" stroke="black" cx="407.89" cy="-494.6" rx="120.48" ry="18"/>
<text text-anchor="middle" x="407.89" y="-490.9" font-family="Times,serif" font-size="14.00">ALIGN:replicate_counts</text>
</g>
<!-- p15&#45;&gt;p16 -->
<g id="edge19" class="edge">
<title>p15&#45;&gt;p16</title>
<path fill="none" stroke="black" d="M407.89,-549.41C407.89,-541.39 407.89,-531.65 407.89,-522.67"/>
<polygon fill="black" stroke="black" points="411.39,-522.63 407.89,-512.63 404.39,-522.63 411.39,-522.63"/>
</g>
<!-- p17 -->
<g id="node18" class="node">
<title>p17</title>
<ellipse fill="none" stroke="black" cx="285.89" cy="-407.6" rx="129.98" ry="18"/>
<text text-anchor="middle" x="285.89" y="-403.9" font-family="Times,serif" font-size="14.00">STATS:counts_per_million</text>
</g>
<!-- p16&#45;&gt;p17 -->
<g id="edge20" class="edge">
<title>p16&#45;&gt;p17</title>
<path fill="none" stroke="black" d="M383.78,-476.81C365.07,-463.77 338.93,-445.56 318.37,-431.23"/>
<polygon fill="black" stroke="black" points="320.15,-428.2 309.94,-425.36 316.14,-433.95 320.15,-428.2"/>
<text text-anchor="middle" x="381.89" y="-447.4" font-family="Times,serif" font-size="14.00">dataset</text>
</g>
<!-- p18 -->
<g id="node20" class="node">
<title>p18</title>
<ellipse fill="none" stroke="black" cx="531.89" cy="-407.6" rx="98.28" ry="18"/>
<text text-anchor="middle" x="531.89" y="-403.9" font-family="Times,serif" font-size="14.00">STATS:size_factors</text>
</g>
<!-- p16&#45;&gt;p18 -->
<g id="edge22" class="edge">
<title>p16&#45;&gt;p18</title>
<path fill="none" stroke="black" d="M432.39,-476.81C451.62,-463.62 478.56,-445.16 499.56,-430.76"/>
<polygon fill="black" stroke="black" points="501.59,-433.61 507.86,-425.07 497.63,-427.84 501.59,-433.61"/>
<text text-anchor="middle" x="503.89" y="-447.4" font-family="Times,serif" font-size="14.00">dataset</text>
</g>
<!-- p19 -->
<g id="node19" class="node">
<title>p19</title>
<ellipse fill="none" stroke="black" cx="449.89" cy="-320.6" rx="3.5" ry="3.5"/>
<text text-anchor="middle" x="459.89" y="-327.9" font-family="Times,serif" font-size="14.00">mix</text>
</g>
<!-- p17&#45;&gt;p19 -->
<g id="edge21" class="edge">
<title>p17&#45;&gt;p19</title>
<path fill="none" stroke="black" d="M336.57,-390.92C367.64,-379.66 407.04,-362.27 436.89,-338.6 438.97,-336.95 440.9,-334.89 442.61,-332.79"/>
<polygon fill="black" stroke="black" points="445.62,-334.58 448.37,-324.35 439.84,-330.63 445.62,-334.58"/>
</g>
<!-- p20 -->
<g id="node22" class="node">
<title>p20</title>
<ellipse fill="none" stroke="black" cx="285.89" cy="-320.6" rx="142.17" ry="18"/>
<text text-anchor="middle" x="285.89" y="-316.9" font-family="Times,serif" font-size="14.00">STATS:cpm_fold_enrichment</text>
</g>
<!-- p17&#45;&gt;p20 -->
<g id="edge25" class="edge">
<title>p17&#45;&gt;p20</title>
<path fill="none" stroke="black" d="M285.89,-389.4C285.89,-377.76 285.89,-362.15 285.89,-348.84"/>
<polygon fill="black" stroke="black" points="289.39,-348.78 285.89,-338.78 282.39,-348.78 289.39,-348.78"/>
<text text-anchor="middle" x="320.89" y="-360.4" font-family="Times,serif" font-size="14.00">phip_data</text>
</g>
<!-- p21 -->
<g id="node21" class="node">
<title>p21</title>
<ellipse fill="none" stroke="black" cx="366.89" cy="-248.1" rx="3.5" ry="3.5"/>
<text text-anchor="middle" x="339.89" y="-255.4" font-family="Times,serif" font-size="14.00">concat</text>
</g>
<!-- p19&#45;&gt;p21 -->
<g id="edge24" class="edge">
<title>p19&#45;&gt;p21</title>
<path fill="none" stroke="black" d="M448.23,-317.01C445.92,-313.52 441.51,-307.22 436.89,-302.6 418.1,-283.81 392.57,-265.89 378.11,-256.31"/>
<polygon fill="black" stroke="black" points="379.79,-253.23 369.5,-250.73 375.99,-259.1 379.79,-253.23"/>
<text text-anchor="middle" x="464.39" y="-273.4" font-family="Times,serif" font-size="14.00">auto_stats_ch</text>
</g>
<!-- p18&#45;&gt;p19 -->
<g id="edge23" class="edge">
<title>p18&#45;&gt;p19</title>
<path fill="none" stroke="black" d="M515.69,-389.81C498.69,-372.19 472.58,-345.12 458.92,-330.96"/>
<polygon fill="black" stroke="black" points="461.43,-328.52 451.96,-323.75 456.39,-333.38 461.43,-328.52"/>
</g>
<!-- p22 -->
<g id="node23" class="node">
<title>p22</title>
<ellipse fill="none" stroke="black" cx="366.89" cy="-204.1" rx="3.5" ry="3.5"/>
<text text-anchor="middle" x="339.89" y="-211.4" font-family="Times,serif" font-size="14.00">collect</text>
</g>
<!-- p21&#45;&gt;p22 -->
<g id="edge27" class="edge">
<title>p21&#45;&gt;p22</title>
<path fill="none" stroke="black" d="M366.89,-244.34C366.89,-239.07 366.89,-227.23 366.89,-217.92"/>
<polygon fill="black" stroke="black" points="370.39,-217.92 366.89,-207.92 363.39,-217.92 370.39,-217.92"/>
</g>
<!-- p20&#45;&gt;p21 -->
<g id="edge26" class="edge">
<title>p20&#45;&gt;p21</title>
<path fill="none" stroke="black" d="M305.49,-302.53C321.61,-288.51 343.81,-269.19 356.63,-258.03"/>
<polygon fill="black" stroke="black" points="359.1,-260.52 364.34,-251.32 354.5,-255.24 359.1,-260.52"/>
</g>
<!-- p23 -->
<g id="node24" class="node">
<title>p23</title>
<ellipse fill="none" stroke="black" cx="366.89" cy="-145.6" rx="151.37" ry="18"/>
<text text-anchor="middle" x="366.89" y="-141.9" font-family="Times,serif" font-size="14.00">STATS:merge_binary_datasets</text>
</g>
<!-- p22&#45;&gt;p23 -->
<g id="edge28" class="edge">
<title>p22&#45;&gt;p23</title>
<path fill="none" stroke="black" d="M366.89,-200.37C366.89,-195.43 366.89,-184.5 366.89,-173.77"/>
<polygon fill="black" stroke="black" points="370.39,-173.75 366.89,-163.75 363.39,-173.75 370.39,-173.75"/>
</g>
<!-- p24 -->
<g id="node25" class="node">
<title>p24</title>
<ellipse fill="none" stroke="black" cx="119.89" cy="-58.6" rx="108.58" ry="18"/>
<text text-anchor="middle" x="119.89" y="-54.9" font-family="Times,serif" font-size="14.00">DSOUT:dump_binary</text>
</g>
<!-- p23&#45;&gt;p24 -->
<g id="edge29" class="edge">
<title>p23&#45;&gt;p24</title>
<path fill="none" stroke="black" d="M319.85,-128.41C278.34,-114.13 217.82,-93.3 174.25,-78.31"/>
<polygon fill="black" stroke="black" points="175.27,-74.96 164.67,-75.01 172.99,-81.58 175.27,-74.96"/>
<text text-anchor="middle" x="285.89" y="-98.4" font-family="Times,serif" font-size="14.00">dataset</text>
</g>
<!-- p26 -->
<g id="node27" class="node">
<title>p26</title>
<ellipse fill="none" stroke="black" cx="366.89" cy="-58.6" rx="120.48" ry="18"/>
<text text-anchor="middle" x="366.89" y="-54.9" font-family="Times,serif" font-size="14.00">DSOUT:dump_wide_csv</text>
</g>
<!-- p23&#45;&gt;p26 -->
<g id="edge31" class="edge">
<title>p23&#45;&gt;p26</title>
<path fill="none" stroke="black" d="M366.89,-127.4C366.89,-115.76 366.89,-100.15 366.89,-86.84"/>
<polygon fill="black" stroke="black" points="370.39,-86.78 366.89,-76.78 363.39,-86.78 370.39,-86.78"/>
<text text-anchor="middle" x="393.89" y="-98.4" font-family="Times,serif" font-size="14.00">dataset</text>
</g>
<!-- p28 -->
<g id="node29" class="node">
<title>p28</title>
<ellipse fill="none" stroke="black" cx="618.89" cy="-58.6" rx="113.98" ry="18"/>
<text text-anchor="middle" x="618.89" y="-54.9" font-family="Times,serif" font-size="14.00">DSOUT:dump_tall_csv</text>
</g>
<!-- p23&#45;&gt;p28 -->
<g id="edge33" class="edge">
<title>p23&#45;&gt;p28</title>
<path fill="none" stroke="black" d="M414.58,-128.51C456.86,-114.25 518.61,-93.42 563.15,-78.4"/>
<polygon fill="black" stroke="black" points="564.31,-81.7 572.66,-75.19 562.07,-75.07 564.31,-81.7"/>
<text text-anchor="middle" x="534.89" y="-98.4" font-family="Times,serif" font-size="14.00">dataset</text>
</g>
<!-- p25 -->
<g id="node26" class="node">
<title>p25</title>
<ellipse fill="black" stroke="black" cx="119.89" cy="-1.8" rx="1.8" ry="1.8"/>
</g>
<!-- p24&#45;&gt;p25 -->
<g id="edge30" class="edge">
<title>p24&#45;&gt;p25</title>
<path fill="none" stroke="black" d="M119.89,-40.56C119.89,-31.87 119.89,-21.56 119.89,-13.9"/>
<polygon fill="black" stroke="black" points="123.39,-13.76 119.89,-3.76 116.39,-13.76 123.39,-13.76"/>
</g>
<!-- p27 -->
<g id="node28" class="node">
<title>p27</title>
<ellipse fill="black" stroke="black" cx="366.89" cy="-1.8" rx="1.8" ry="1.8"/>
</g>
<!-- p26&#45;&gt;p27 -->
<g id="edge32" class="edge">
<title>p26&#45;&gt;p27</title>
<path fill="none" stroke="black" d="M366.89,-40.56C366.89,-31.87 366.89,-21.56 366.89,-13.9"/>
<polygon fill="black" stroke="black" points="370.39,-13.76 366.89,-3.76 363.39,-13.76 370.39,-13.76"/>
</g>
<!-- p29 -->
<g id="node30" class="node">
<title>p29</title>
<ellipse fill="black" stroke="black" cx="618.89" cy="-1.8" rx="1.8" ry="1.8"/>
</g>
<!-- p28&#45;&gt;p29 -->
<g id="edge34" class="edge">
<title>p28&#45;&gt;p29</title>
<path fill="none" stroke="black" d="M618.89,-40.56C618.89,-31.87 618.89,-21.56 618.89,-13.9"/>
<polygon fill="black" stroke="black" points="622.39,-13.76 618.89,-3.76 615.39,-13.76 622.39,-13.76"/>
</g>
</g>
</svg>
