<?xml version="1.0" encoding="UTF-8" standalone="no"?>
<!DOCTYPE svg PUBLIC "-//W3C//DTD SVG 1.1//EN"
 "http://www.w3.org/Graphics/SVG/1.1/DTD/svg11.dtd">
<!-- Generated by graphviz version 2.43.0 (0)
 -->
<!-- Title: dag Pages: 1 -->
<svg width="894pt" height="1615pt"
 viewBox="0.00 0.00 894.38 1615.00" xmlns="http://www.w3.org/2000/svg" xmlns:xlink="http://www.w3.org/1999/xlink">
<g id="graph0" class="graph" transform="scale(1 1) rotate(0) translate(4 1611)">
<title>dag</title>
<polygon fill="white" stroke="transparent" points="-4,4 -4,-1611 890.38,-1611 890.38,4 -4,4"/>
<!-- p0 -->
<g id="node1" class="node">
<title>p0</title>
<ellipse fill="black" stroke="black" cx="270.79" cy="-1588.4" rx="3.6" ry="3.6"/>
<text text-anchor="middle" x="202.19" y="-1595.8" font-family="Times,serif" font-size="14.00">Channel.fromPath</text>
</g>
<!-- p2 -->
<g id="node2" class="node">
<title>p2</title>
<ellipse fill="none" stroke="black" cx="270.79" cy="-1515.8" rx="146.77" ry="18"/>
<text text-anchor="middle" x="270.79" y="-1512.1" font-family="Times,serif" font-size="14.00">ALIGN:validate_sample_table</text>
</g>
<!-- p0&#45;&gt;p2 -->
<g id="edge1" class="edge">
<title>p0&#45;&gt;p2</title>
<path fill="none" stroke="black" d="M270.79,-1584.72C270.79,-1578.05 270.79,-1560.1 270.79,-1544.33"/>
<polygon fill="black" stroke="black" points="274.29,-1543.93 270.79,-1533.93 267.29,-1543.93 274.29,-1543.93"/>
<text text-anchor="middle" x="308.29" y="-1555.6" font-family="Times,serif" font-size="14.00">sample_ch</text>
</g>
<!-- p6 -->
<g id="node5" class="node">
<title>p6</title>
<ellipse fill="none" stroke="black" cx="370.79" cy="-1442.8" rx="3.5" ry="3.5"/>
<text text-anchor="middle" x="338.29" y="-1450.1" font-family="Times,serif" font-size="14.00">splitCsv</text>
</g>
<!-- p2&#45;&gt;p6 -->
<g id="edge3" class="edge">
<title>p2&#45;&gt;p6</title>
<path fill="none" stroke="black" d="M294.49,-1497.97C315.32,-1483.18 344.68,-1462.34 360.2,-1451.32"/>
<polygon fill="black" stroke="black" points="362.34,-1454.09 368.47,-1445.45 358.29,-1448.38 362.34,-1454.09"/>
</g>
<!-- p15 -->
<g id="node16" class="node">
<title>p15</title>
<ellipse fill="none" stroke="black" cx="531.79" cy="-996.8" rx="124.28" ry="18"/>
<text text-anchor="middle" x="531.79" y="-993.1" font-family="Times,serif" font-size="14.00">ALIGN:collect_phip_data</text>
</g>
<!-- p2&#45;&gt;p15 -->
<g id="edge17" class="edge">
<title>p2&#45;&gt;p15</title>
<path fill="none" stroke="black" d="M267.39,-1497.66C264.84,-1483.33 261.79,-1462.31 261.79,-1443.8 261.79,-1443.8 261.79,-1443.8 261.79,-1054.3 261.79,-1022.86 332.81,-1008.81 402,-1002.58"/>
<polygon fill="black" stroke="black" points="402.52,-1006.05 412.18,-1001.72 401.92,-999.07 402.52,-1006.05"/>
<text text-anchor="middle" x="308.79" y="-1245.6" font-family="Times,serif" font-size="14.00">sample_table</text>
</g>
<!-- p1 -->
<g id="node3" class="node">
<title>p1</title>
<ellipse fill="black" stroke="black" cx="633.79" cy="-1588.4" rx="3.6" ry="3.6"/>
<text text-anchor="middle" x="565.19" y="-1595.8" font-family="Times,serif" font-size="14.00">Channel.fromPath</text>
</g>
<!-- p3 -->
<g id="node4" class="node">
<title>p3</title>
<ellipse fill="none" stroke="black" cx="633.79" cy="-1515.8" rx="148.67" ry="18"/>
<text text-anchor="middle" x="633.79" y="-1512.1" font-family="Times,serif" font-size="14.00">ALIGN:validate_peptide_table</text>
</g>
<!-- p1&#45;&gt;p3 -->
<g id="edge2" class="edge">
<title>p1&#45;&gt;p3</title>
<path fill="none" stroke="black" d="M633.79,-1584.72C633.79,-1578.05 633.79,-1560.1 633.79,-1544.33"/>
<polygon fill="black" stroke="black" points="637.29,-1543.93 633.79,-1533.93 630.29,-1543.93 637.29,-1543.93"/>
<text text-anchor="middle" x="672.79" y="-1555.6" font-family="Times,serif" font-size="14.00">peptide_ch</text>
</g>
<!-- p4 -->
<g id="node6" class="node">
<title>p4</title>
<ellipse fill="none" stroke="black" cx="570.79" cy="-1442.8" rx="161.67" ry="18"/>
<text text-anchor="middle" x="570.79" y="-1439.1" font-family="Times,serif" font-size="14.00">ALIGN:generate_fasta_reference</text>
</g>
<!-- p3&#45;&gt;p4 -->
<g id="edge4" class="edge">
<title>p3&#45;&gt;p4</title>
<path fill="none" stroke="black" d="M618.54,-1497.61C610.8,-1488.89 601.26,-1478.14 592.75,-1468.55"/>
<polygon fill="black" stroke="black" points="595.15,-1465.99 585.9,-1460.83 589.92,-1470.63 595.15,-1465.99"/>
</g>
<!-- p3&#45;&gt;p15 -->
<g id="edge18" class="edge">
<title>p3&#45;&gt;p15</title>
<path fill="none" stroke="black" d="M715.26,-1500.72C744.22,-1490.64 769.79,-1473.36 769.79,-1443.8 769.79,-1443.8 769.79,-1443.8 769.79,-1054.3 769.79,-1027.55 712.17,-1013.45 653.63,-1006.02"/>
<polygon fill="black" stroke="black" points="653.82,-1002.52 643.47,-1004.8 652.98,-1009.47 653.82,-1002.52"/>
<text text-anchor="middle" x="818.29" y="-1245.6" font-family="Times,serif" font-size="14.00">peptide_table</text>
</g>
<!-- p7 -->
<g id="node9" class="node">
<title>p7</title>
<ellipse fill="none" stroke="black" cx="382.79" cy="-1369.8" rx="3.5" ry="3.5"/>
<text text-anchor="middle" x="363.79" y="-1377.1" font-family="Times,serif" font-size="14.00">map</text>
</g>
<!-- p6&#45;&gt;p7 -->
<g id="edge7" class="edge">
<title>p6&#45;&gt;p7</title>
<path fill="none" stroke="black" d="M371.24,-1439.1C372.77,-1430.1 377.74,-1400.66 380.64,-1383.51"/>
<polygon fill="black" stroke="black" points="384.12,-1383.94 382.33,-1373.5 377.22,-1382.78 384.12,-1383.94"/>
</g>
<!-- p5 -->
<g id="node7" class="node">
<title>p5</title>
<ellipse fill="none" stroke="black" cx="550.79" cy="-1369.8" rx="115.88" ry="18"/>
<text text-anchor="middle" x="550.79" y="-1366.1" font-family="Times,serif" font-size="14.00">ALIGN:generate_index</text>
</g>
<!-- p4&#45;&gt;p5 -->
<g id="edge5" class="edge">
<title>p4&#45;&gt;p5</title>
<path fill="none" stroke="black" d="M565.95,-1424.61C563.66,-1416.5 560.88,-1406.64 558.33,-1397.58"/>
<polygon fill="black" stroke="black" points="561.67,-1396.51 555.59,-1387.83 554.93,-1398.4 561.67,-1396.51"/>
</g>
<!-- p8 -->
<g id="node8" class="node">
<title>p8</title>
<ellipse fill="none" stroke="black" cx="467.79" cy="-1297.3" rx="3.5" ry="3.5"/>
<text text-anchor="middle" x="445.29" y="-1304.6" font-family="Times,serif" font-size="14.00">cross</text>
</g>
<!-- p5&#45;&gt;p8 -->
<g id="edge6" class="edge">
<title>p5&#45;&gt;p8</title>
<path fill="none" stroke="black" d="M530.7,-1351.73C513.88,-1337.45 490.59,-1317.67 477.58,-1306.62"/>
<polygon fill="black" stroke="black" points="479.81,-1303.92 469.92,-1300.11 475.27,-1309.25 479.81,-1303.92"/>
</g>
<!-- p9 -->
<g id="node10" class="node">
<title>p9</title>
<ellipse fill="none" stroke="black" cx="467.79" cy="-1249.3" rx="3.5" ry="3.5"/>
<text text-anchor="middle" x="448.79" y="-1256.6" font-family="Times,serif" font-size="14.00">map</text>
</g>
<!-- p8&#45;&gt;p9 -->
<g id="edge9" class="edge">
<title>p8&#45;&gt;p9</title>
<path fill="none" stroke="black" d="M467.79,-1293.56C467.79,-1287.73 467.79,-1273.77 467.79,-1263.27"/>
<polygon fill="black" stroke="black" points="471.29,-1262.97 467.79,-1252.97 464.29,-1262.97 471.29,-1262.97"/>
</g>
<!-- p7&#45;&gt;p8 -->
<g id="edge8" class="edge">
<title>p7&#45;&gt;p8</title>
<path fill="none" stroke="black" d="M383.32,-1366.07C385.07,-1357.74 391.49,-1332.32 406.79,-1318.8 420.25,-1306.91 440.86,-1301.87 454.34,-1299.76"/>
<polygon fill="black" stroke="black" points="454.79,-1303.23 464.29,-1298.54 453.94,-1296.28 454.79,-1303.23"/>
<text text-anchor="middle" x="447.79" y="-1322.6" font-family="Times,serif" font-size="14.00">samples_ch</text>
</g>
<!-- p10 -->
<g id="node11" class="node">
<title>p10</title>
<ellipse fill="none" stroke="black" cx="467.79" cy="-1186.8" rx="145.67" ry="18"/>
<text text-anchor="middle" x="467.79" y="-1183.1" font-family="Times,serif" font-size="14.00">ALIGN:short_read_alignment</text>
</g>
<!-- p9&#45;&gt;p10 -->
<g id="edge10" class="edge">
<title>p9&#45;&gt;p10</title>
<path fill="none" stroke="black" d="M467.79,-1245.7C467.79,-1240.35 467.79,-1227.57 467.79,-1215.38"/>
<polygon fill="black" stroke="black" points="471.29,-1215.02 467.79,-1205.02 464.29,-1215.02 471.29,-1215.02"/>
</g>
<!-- p11 -->
<g id="node12" class="node">
<title>p11</title>
<ellipse fill="none" stroke="black" cx="401.79" cy="-1113.8" rx="112.38" ry="18"/>
<text text-anchor="middle" x="401.79" y="-1110.1" font-family="Times,serif" font-size="14.00">ALIGN:sam_to_counts</text>
</g>
<!-- p10&#45;&gt;p11 -->
<g id="edge11" class="edge">
<title>p10&#45;&gt;p11</title>
<path fill="none" stroke="black" d="M451.81,-1168.61C443.62,-1159.8 433.51,-1148.93 424.52,-1139.26"/>
<polygon fill="black" stroke="black" points="426.99,-1136.77 417.62,-1131.83 421.86,-1141.54 426.99,-1136.77"/>
</g>
<!-- p12 -->
<g id="node14" class="node">
<title>p12</title>
<ellipse fill="none" stroke="black" cx="636.79" cy="-1113.8" rx="104.78" ry="18"/>
<text text-anchor="middle" x="636.79" y="-1110.1" font-family="Times,serif" font-size="14.00">ALIGN:sam_to_stats</text>
</g>
<!-- p10&#45;&gt;p12 -->
<g id="edge13" class="edge">
<title>p10&#45;&gt;p12</title>
<path fill="none" stroke="black" d="M506.99,-1169.33C531.65,-1158.97 563.62,-1145.54 589.67,-1134.6"/>
<polygon fill="black" stroke="black" points="591.1,-1137.79 598.97,-1130.69 588.39,-1131.34 591.1,-1137.79"/>
</g>
<!-- p13 -->
<g id="node13" class="node">
<title>p13</title>
<ellipse fill="none" stroke="black" cx="410.79" cy="-1055.3" rx="3.5" ry="3.5"/>
<text text-anchor="middle" x="362.29" y="-1062.6" font-family="Times,serif" font-size="14.00">toSortedList</text>
</g>
<!-- p11&#45;&gt;p13 -->
<g id="edge12" class="edge">
<title>p11&#45;&gt;p13</title>
<path fill="none" stroke="black" d="M404.54,-1095.54C405.91,-1086.96 407.53,-1076.77 408.78,-1068.92"/>
<polygon fill="black" stroke="black" points="412.26,-1069.29 410.38,-1058.86 405.35,-1068.19 412.26,-1069.29"/>
</g>
<!-- p13&#45;&gt;p15 -->
<g id="edge15" class="edge">
<title>p13&#45;&gt;p15</title>
<path fill="none" stroke="black" d="M413.78,-1052.9C423.99,-1048.13 458.46,-1032.04 487.53,-1018.47"/>
<polygon fill="black" stroke="black" points="489.16,-1021.57 496.74,-1014.17 486.2,-1015.23 489.16,-1021.57"/>
</g>
<!-- p14 -->
<g id="node15" class="node">
<title>p14</title>
<ellipse fill="none" stroke="black" cx="548.79" cy="-1055.3" rx="3.5" ry="3.5"/>
<text text-anchor="middle" x="500.29" y="-1062.6" font-family="Times,serif" font-size="14.00">toSortedList</text>
</g>
<!-- p12&#45;&gt;p14 -->
<g id="edge14" class="edge">
<title>p12&#45;&gt;p14</title>
<path fill="none" stroke="black" d="M610.86,-1096.15C593.92,-1085.28 572.66,-1071.62 559.93,-1063.45"/>
<polygon fill="black" stroke="black" points="561.56,-1060.34 551.26,-1057.88 557.78,-1066.23 561.56,-1060.34"/>
</g>
<!-- p14&#45;&gt;p15 -->
<g id="edge16" class="edge">
<title>p14&#45;&gt;p15</title>
<path fill="none" stroke="black" d="M548.06,-1051.87C546.61,-1047.05 543.22,-1035.79 539.91,-1024.79"/>
<polygon fill="black" stroke="black" points="543.18,-1023.51 536.95,-1014.94 536.48,-1025.53 543.18,-1023.51"/>
</g>
<!-- p16 -->
<g id="node17" class="node">
<title>p16</title>
<ellipse fill="none" stroke="black" cx="531.79" cy="-923.8" rx="120.48" ry="18"/>
<text text-anchor="middle" x="531.79" y="-920.1" font-family="Times,serif" font-size="14.00">ALIGN:replicate_counts</text>
</g>
<!-- p15&#45;&gt;p16 -->
<g id="edge19" class="edge">
<title>p15&#45;&gt;p16</title>
<path fill="none" stroke="black" d="M531.79,-978.61C531.79,-970.59 531.79,-960.85 531.79,-951.87"/>
<polygon fill="black" stroke="black" points="535.29,-951.83 531.79,-941.83 528.29,-951.83 535.29,-951.83"/>
</g>
<!-- p17 -->
<g id="node18" class="node">
<title>p17</title>
<ellipse fill="none" stroke="black" cx="409.79" cy="-836.8" rx="129.98" ry="18"/>
<text text-anchor="middle" x="409.79" y="-833.1" font-family="Times,serif" font-size="14.00">STATS:counts_per_million</text>
</g>
<!-- p16&#45;&gt;p17 -->
<g id="edge20" class="edge">
<title>p16&#45;&gt;p17</title>
<path fill="none" stroke="black" d="M507.69,-906.01C488.97,-892.97 462.83,-874.76 442.27,-860.43"/>
<polygon fill="black" stroke="black" points="444.05,-857.4 433.84,-854.56 440.05,-863.15 444.05,-857.4"/>
<text text-anchor="middle" x="505.79" y="-876.6" font-family="Times,serif" font-size="14.00">dataset</text>
</g>
<!-- p18 -->
<g id="node20" class="node">
<title>p18</title>
<ellipse fill="none" stroke="black" cx="655.79" cy="-836.8" rx="98.28" ry="18"/>
<text text-anchor="middle" x="655.79" y="-833.1" font-family="Times,serif" font-size="14.00">STATS:size_factors</text>
</g>
<!-- p16&#45;&gt;p18 -->
<g id="edge22" class="edge">
<title>p16&#45;&gt;p18</title>
<path fill="none" stroke="black" d="M556.29,-906.01C575.52,-892.82 602.46,-874.36 623.46,-859.96"/>
<polygon fill="black" stroke="black" points="625.49,-862.81 631.76,-854.27 621.54,-857.04 625.49,-862.81"/>
<text text-anchor="middle" x="627.79" y="-876.6" font-family="Times,serif" font-size="14.00">dataset</text>
</g>
<!-- p19 -->
<g id="node19" class="node">
<title>p19</title>
<ellipse fill="none" stroke="black" cx="573.79" cy="-749.8" rx="3.5" ry="3.5"/>
<text text-anchor="middle" x="575.54" y="-735.1" font-family="Times,serif" font-size="14.00">mix</text>
</g>
<!-- p17&#45;&gt;p19 -->
<g id="edge21" class="edge">
<title>p17&#45;&gt;p19</title>
<path fill="none" stroke="black" d="M460.47,-820.12C491.54,-808.86 530.94,-791.47 560.79,-767.8 562.87,-766.15 564.8,-764.09 566.51,-761.99"/>
<polygon fill="black" stroke="black" points="569.52,-763.78 572.27,-753.55 563.74,-759.83 569.52,-763.78"/>
</g>
<!-- p20 -->
<g id="node22" class="node">
<title>p20</title>
<ellipse fill="none" stroke="black" cx="409.79" cy="-749.8" rx="142.17" ry="18"/>
<text text-anchor="middle" x="409.79" y="-746.1" font-family="Times,serif" font-size="14.00">STATS:cpm_fold_enrichment</text>
</g>
<!-- p17&#45;&gt;p20 -->
<g id="edge25" class="edge">
<title>p17&#45;&gt;p20</title>
<path fill="none" stroke="black" d="M409.79,-818.6C409.79,-806.96 409.79,-791.35 409.79,-778.04"/>
<polygon fill="black" stroke="black" points="413.29,-777.98 409.79,-767.98 406.29,-777.98 413.29,-777.98"/>
<text text-anchor="middle" x="444.79" y="-789.6" font-family="Times,serif" font-size="14.00">phip_data</text>
</g>
<!-- p22 -->
<g id="node24" class="node">
<title>p22</title>
<ellipse fill="none" stroke="black" cx="124.79" cy="-749.8" rx="124.58" ry="18"/>
<text text-anchor="middle" x="124.79" y="-746.1" font-family="Times,serif" font-size="14.00">STATS:fit_predict_zscore</text>
</g>
<!-- p17&#45;&gt;p22 -->
<g id="edge29" class="edge">
<title>p17&#45;&gt;p22</title>
<path fill="none" stroke="black" d="M357.52,-820.21C309.21,-805.8 237.39,-784.38 186.33,-769.16"/>
<polygon fill="black" stroke="black" points="187.31,-765.8 176.73,-766.29 185.31,-772.5 187.31,-765.8"/>
<text text-anchor="middle" x="319.79" y="-789.6" font-family="Times,serif" font-size="14.00">phip_data</text>
</g>
<!-- p23 -->
<g id="node21" class="node">
<title>p23</title>
<ellipse fill="none" stroke="black" cx="455.79" cy="-677.3" rx="3.5" ry="3.5"/>
<text text-anchor="middle" x="428.79" y="-684.6" font-family="Times,serif" font-size="14.00">concat</text>
</g>
<!-- p19&#45;&gt;p23 -->
<g id="edge24" class="edge">
<title>p19&#45;&gt;p23</title>
<path fill="none" stroke="black" d="M572.25,-746.08C570.07,-742.45 565.81,-735.99 560.79,-731.8 531.62,-707.5 489.56,-690.32 468.63,-682.7"/>
<polygon fill="black" stroke="black" points="469.6,-679.33 459.01,-679.34 467.3,-685.94 469.6,-679.33"/>
<text text-anchor="middle" x="583.29" y="-702.6" font-family="Times,serif" font-size="14.00">auto_stats_ch</text>
</g>
<!-- p18&#45;&gt;p19 -->
<g id="edge23" class="edge">
<title>p18&#45;&gt;p19</title>
<path fill="none" stroke="black" d="M636.72,-819.07C622.09,-805.81 601.75,-786.47 585.79,-767.8 584.24,-765.99 582.69,-763.98 581.25,-762"/>
<polygon fill="black" stroke="black" points="583.87,-759.64 575.36,-753.33 578.08,-763.57 583.87,-759.64"/>
</g>
<!-- p21 -->
<g id="node23" class="node">
<title>p21</title>
<ellipse fill="none" stroke="black" cx="740.79" cy="-749.8" rx="145.67" ry="18"/>
<text text-anchor="middle" x="740.79" y="-746.1" font-family="Times,serif" font-size="14.00">STATS:fit_predict_neg_binom</text>
</g>
<!-- p18&#45;&gt;p21 -->
<g id="edge27" class="edge">
<title>p18&#45;&gt;p21</title>
<path fill="none" stroke="black" d="M672.58,-819.01C685.07,-806.52 702.31,-789.28 716.33,-775.26"/>
<polygon fill="black" stroke="black" points="719.14,-777.4 723.74,-767.85 714.19,-772.45 719.14,-777.4"/>
<text text-anchor="middle" x="737.79" y="-789.6" font-family="Times,serif" font-size="14.00">phip_data</text>
</g>
<!-- p24 -->
<g id="node25" class="node">
<title>p24</title>
<ellipse fill="none" stroke="black" cx="455.79" cy="-633.3" rx="3.5" ry="3.5"/>
<text text-anchor="middle" x="428.79" y="-640.6" font-family="Times,serif" font-size="14.00">collect</text>
</g>
<!-- p23&#45;&gt;p24 -->
<g id="edge31" class="edge">
<title>p23&#45;&gt;p24</title>
<path fill="none" stroke="black" d="M455.79,-673.54C455.79,-668.27 455.79,-656.43 455.79,-647.12"/>
<polygon fill="black" stroke="black" points="459.29,-647.12 455.79,-637.12 452.29,-647.12 459.29,-647.12"/>
</g>
<!-- p20&#45;&gt;p23 -->
<g id="edge26" class="edge">
<title>p20&#45;&gt;p23</title>
<path fill="none" stroke="black" d="M420.92,-731.73C429.63,-718.39 441.46,-700.27 448.85,-688.93"/>
<polygon fill="black" stroke="black" points="451.81,-690.8 454.34,-680.52 445.95,-686.98 451.81,-690.8"/>
</g>
<!-- p21&#45;&gt;p23 -->
<g id="edge28" class="edge">
<title>p21&#45;&gt;p23</title>
<path fill="none" stroke="black" d="M712.39,-732.1C691.82,-720.81 662.96,-706.58 635.79,-698.8 575.47,-681.53 499.85,-678.73 469.41,-678.33"/>
<polygon fill="black" stroke="black" points="469.32,-674.83 459.3,-678.27 469.28,-681.83 469.32,-674.83"/>
</g>
<!-- p22&#45;&gt;p23 -->
<g id="edge30" class="edge">
<title>p22&#45;&gt;p23</title>
<path fill="none" stroke="black" d="M191.77,-734.53C272.23,-717.4 401.54,-689.85 442.74,-681.08"/>
<polygon fill="black" stroke="black" points="443.49,-684.5 452.54,-678.99 442.03,-677.65 443.49,-684.5"/>
</g>
<!-- p25 -->
<g id="node26" class="node">
<title>p25</title>
<ellipse fill="none" stroke="black" cx="455.79" cy="-574.8" rx="151.37" ry="18"/>
<text text-anchor="middle" x="455.79" y="-571.1" font-family="Times,serif" font-size="14.00">STATS:merge_binary_datasets</text>
</g>
<!-- p24&#45;&gt;p25 -->
<g id="edge32" class="edge">
<title>p24&#45;&gt;p25</title>
<path fill="none" stroke="black" d="M455.79,-629.57C455.79,-624.63 455.79,-613.7 455.79,-602.97"/>
<polygon fill="black" stroke="black" points="459.29,-602.95 455.79,-592.95 452.29,-602.95 459.29,-602.95"/>
</g>
<!-- p26 -->
<g id="node27" class="node">
<title>p26</title>
<ellipse fill="none" stroke="black" cx="208.79" cy="-487.8" rx="108.58" ry="18"/>
<text text-anchor="middle" x="208.79" y="-484.1" font-family="Times,serif" font-size="14.00">DSOUT:dump_binary</text>
</g>
<!-- p25&#45;&gt;p26 -->
<g id="edge33" class="edge">
<title>p25&#45;&gt;p26</title>
<path fill="none" stroke="black" d="M408.75,-557.61C367.24,-543.33 306.73,-522.5 263.15,-507.51"/>
<polygon fill="black" stroke="black" points="264.17,-504.16 253.57,-504.21 261.89,-510.78 264.17,-504.16"/>
<text text-anchor="middle" x="374.79" y="-527.6" font-family="Times,serif" font-size="14.00">dataset</text>
</g>
<!-- p28 -->
<g id="node29" class="node">
<title>p28</title>
<ellipse fill="none" stroke="black" cx="455.79" cy="-487.8" rx="120.48" ry="18"/>
<text text-anchor="middle" x="455.79" y="-484.1" font-family="Times,serif" font-size="14.00">DSOUT:dump_wide_csv</text>
</g>
<!-- p25&#45;&gt;p28 -->
<g id="edge35" class="edge">
<title>p25&#45;&gt;p28</title>
<path fill="none" stroke="black" d="M455.79,-556.6C455.79,-544.96 455.79,-529.35 455.79,-516.04"/>
<polygon fill="black" stroke="black" points="459.29,-515.98 455.79,-505.98 452.29,-515.98 459.29,-515.98"/>
<text text-anchor="middle" x="482.79" y="-527.6" font-family="Times,serif" font-size="14.00">dataset</text>
</g>
<!-- p29 -->
<g id="node31" class="node">
<title>p29</title>
<ellipse fill="none" stroke="black" cx="707.79" cy="-487.8" rx="113.98" ry="18"/>
<text text-anchor="middle" x="707.79" y="-484.1" font-family="Times,serif" font-size="14.00">DSOUT:dump_tall_csv</text>
</g>
<!-- p25&#45;&gt;p29 -->
<g id="edge37" class="edge">
<title>p25&#45;&gt;p29</title>
<path fill="none" stroke="black" d="M503.48,-557.71C545.76,-543.45 607.51,-522.62 652.05,-507.6"/>
<polygon fill="black" stroke="black" points="653.21,-510.9 661.56,-504.39 650.97,-504.27 653.21,-510.9"/>
<text text-anchor="middle" x="623.79" y="-527.6" font-family="Times,serif" font-size="14.00">dataset</text>
</g>
<!-- p27 -->
<g id="node28" class="node">
<title>p27</title>
<ellipse fill="black" stroke="black" cx="208.79" cy="-400.8" rx="1.8" ry="1.8"/>
</g>
<!-- p26&#45;&gt;p27 -->
<g id="edge34" class="edge">
<title>p26&#45;&gt;p27</title>
<path fill="none" stroke="black" d="M208.79,-469.6C208.79,-452.72 208.79,-427.46 208.79,-413.02"/>
<polygon fill="black" stroke="black" points="212.29,-412.88 208.79,-402.88 205.29,-412.88 212.29,-412.88"/>
<text text-anchor="middle" x="255.79" y="-440.6" font-family="Times,serif" font-size="14.00">dump_binary</text>
</g>
<!-- p31 -->
<g id="node30" class="node">
<title>p31</title>
<ellipse fill="none" stroke="black" cx="386.79" cy="-400.8" rx="97.48" ry="18"/>
<text text-anchor="middle" x="386.79" y="-397.1" font-family="Times,serif" font-size="14.00">AGG:split_samples</text>
</g>
<!-- p28&#45;&gt;p31 -->
<g id="edge36" class="edge">
<title>p28&#45;&gt;p31</title>
<path fill="none" stroke="black" d="M404.48,-471.41C395.86,-466.52 388.03,-460.13 382.79,-451.8 378.53,-445.04 377.84,-436.7 378.71,-428.78"/>
<polygon fill="black" stroke="black" points="382.18,-429.25 380.57,-418.78 375.3,-427.97 382.18,-429.25"/>
<text text-anchor="middle" x="438.79" y="-440.6" font-family="Times,serif" font-size="14.00">dump_wide_csv</text>
</g>
<!-- p32 -->
<g id="node34" class="node">
<title>p32</title>
<ellipse fill="none" stroke="black" cx="509.79" cy="-361.3" rx="3.5" ry="3.5"/>
<text text-anchor="middle" x="461.29" y="-368.6" font-family="Times,serif" font-size="14.00">toSortedList</text>
</g>
<!-- p28&#45;&gt;p32 -->
<g id="edge40" class="edge">
<title>p28&#45;&gt;p32</title>
<path fill="none" stroke="black" d="M479.56,-470.07C485.38,-464.86 491.02,-458.66 494.79,-451.8 508.35,-427.14 510.29,-393.31 510.22,-375.12"/>
<polygon fill="black" stroke="black" points="513.72,-374.9 509.96,-364.99 506.72,-375.08 513.72,-374.9"/>
<text text-anchor="middle" x="557.79" y="-440.6" font-family="Times,serif" font-size="14.00">dump_wide_csv</text>
</g>
<!-- p33 -->
<g id="node33" class="node">
<title>p33</title>
<ellipse fill="none" stroke="black" cx="459.79" cy="-336.3" rx="3.5" ry="3.5"/>
<text text-anchor="middle" x="424.79" y="-343.6" font-family="Times,serif" font-size="14.00">splitText</text>
</g>
<!-- p31&#45;&gt;p33 -->
<g id="edge39" class="edge">
<title>p31&#45;&gt;p33</title>
<path fill="none" stroke="black" d="M406.35,-383.05C420.32,-371.09 438.54,-355.49 449.69,-345.94"/>
<polygon fill="black" stroke="black" points="452.3,-348.32 457.62,-339.16 447.75,-343 452.3,-348.32"/>
</g>
<!-- p30 -->
<g id="node32" class="node">
<title>p30</title>
<ellipse fill="black" stroke="black" cx="707.79" cy="-400.8" rx="1.8" ry="1.8"/>
</g>
<!-- p29&#45;&gt;p30 -->
<g id="edge38" class="edge">
<title>p29&#45;&gt;p30</title>
<path fill="none" stroke="black" d="M707.79,-469.6C707.79,-452.72 707.79,-427.46 707.79,-413.02"/>
<polygon fill="black" stroke="black" points="711.29,-412.88 707.79,-402.88 704.29,-412.88 711.29,-412.88"/>
<text text-anchor="middle" x="758.29" y="-440.6" font-family="Times,serif" font-size="14.00">dump_tall_csv</text>
</g>
<!-- p34 -->
<g id="node35" class="node">
<title>p34</title>
<ellipse fill="none" stroke="black" cx="481.79" cy="-292.2" rx="3.5" ry="3.5"/>
<text text-anchor="middle" x="447.79" y="-299.5" font-family="Times,serif" font-size="14.00">combine</text>
</g>
<!-- p33&#45;&gt;p34 -->
<g id="edge42" class="edge">
<title>p33&#45;&gt;p34</title>
<path fill="none" stroke="black" d="M461.23,-332.54C464.15,-326.96 470.87,-314.09 475.84,-304.58"/>
<polygon fill="black" stroke="black" points="479.01,-306.08 480.54,-295.6 472.8,-302.84 479.01,-306.08"/>
</g>
<!-- p32&#45;&gt;p34 -->
<g id="edge41" class="edge">
<title>p32&#45;&gt;p34</title>
<path fill="none" stroke="black" d="M508.73,-357.75C505.19,-349.28 493.68,-321.69 486.9,-305.45"/>
<polygon fill="black" stroke="black" points="489.93,-303.63 482.85,-295.75 483.47,-306.33 489.93,-303.63"/>
</g>
<!-- p36 -->
<g id="node36" class="node">
<title>p36</title>
<ellipse fill="none" stroke="black" cx="497.79" cy="-219.6" rx="134.58" ry="18"/>
<text text-anchor="middle" x="497.79" y="-215.9" font-family="Times,serif" font-size="14.00">AGG:aggregate_organisms</text>
</g>
<!-- p34&#45;&gt;p36 -->
<g id="edge43" class="edge">
<title>p34&#45;&gt;p36</title>
<path fill="none" stroke="black" d="M482.4,-288.52C483.92,-281.78 488.05,-263.55 491.65,-247.68"/>
<polygon fill="black" stroke="black" points="495.11,-248.25 493.91,-237.73 488.28,-246.71 495.11,-248.25"/>
</g>
<!-- p37 -->
<g id="node38" class="node">
<title>p37</title>
<ellipse fill="none" stroke="black" cx="497.79" cy="-161.1" rx="3.5" ry="3.5"/>
<text text-anchor="middle" x="470.79" y="-168.4" font-family="Times,serif" font-size="14.00">flatten</text>
</g>
<!-- p36&#45;&gt;p37 -->
<g id="edge45" class="edge">
<title>p36&#45;&gt;p37</title>
<path fill="none" stroke="black" d="M497.79,-201.34C497.79,-192.76 497.79,-182.57 497.79,-174.72"/>
<polygon fill="black" stroke="black" points="501.29,-174.66 497.79,-164.66 494.29,-174.66 501.29,-174.66"/>
</g>
<!-- p35 -->
<g id="node37" class="node">
<title>p35</title>
<ellipse fill="black" stroke="black" cx="514.79" cy="-292.2" rx="3.6" ry="3.6"/>
</g>
<!-- p35&#45;&gt;p36 -->
<g id="edge44" class="edge">
<title>p35&#45;&gt;p36</title>
<path fill="none" stroke="black" d="M514.14,-288.52C512.52,-281.78 508.13,-263.55 504.31,-247.68"/>
<polygon fill="black" stroke="black" points="507.66,-246.63 501.91,-237.73 500.85,-248.27 507.66,-246.63"/>
<text text-anchor="middle" x="580.79" y="-259.4" font-family="Times,serif" font-size="14.00">public_epitopes_csv</text>
</g>
<!-- p38 -->
<g id="node39" class="node">
<title>p38</title>
<ellipse fill="none" stroke="black" cx="497.79" cy="-117.1" rx="3.5" ry="3.5"/>
<text text-anchor="middle" x="449.29" y="-124.4" font-family="Times,serif" font-size="14.00">toSortedList</text>
</g>
<!-- p37&#45;&gt;p38 -->
<g id="edge46" class="edge">
<title>p37&#45;&gt;p38</title>
<path fill="none" stroke="black" d="M497.79,-157.34C497.79,-152.07 497.79,-140.23 497.79,-130.92"/>
<polygon fill="black" stroke="black" points="501.29,-130.92 497.79,-120.92 494.29,-130.92 501.29,-130.92"/>
</g>
<!-- p39 -->
<g id="node40" class="node">
<title>p39</title>
<ellipse fill="none" stroke="black" cx="497.79" cy="-58.6" rx="104.78" ry="18"/>
<text text-anchor="middle" x="497.79" y="-54.9" font-family="Times,serif" font-size="14.00">AGG:join_organisms</text>
</g>
<!-- p38&#45;&gt;p39 -->
<g id="edge47" class="edge">
<title>p38&#45;&gt;p39</title>
<path fill="none" stroke="black" d="M497.79,-113.37C497.79,-108.43 497.79,-97.5 497.79,-86.77"/>
<polygon fill="black" stroke="black" points="501.29,-86.75 497.79,-76.75 494.29,-86.75 501.29,-86.75"/>
</g>
<!-- p40 -->
<g id="node41" class="node">
<title>p40</title>
<ellipse fill="black" stroke="black" cx="497.79" cy="-1.8" rx="1.8" ry="1.8"/>
</g>
<!-- p39&#45;&gt;p40 -->
<g id="edge48" class="edge">
<title>p39&#45;&gt;p40</title>
<path fill="none" stroke="black" d="M497.79,-40.56C497.79,-31.87 497.79,-21.56 497.79,-13.9"/>
<polygon fill="black" stroke="black" points="501.29,-13.76 497.79,-3.76 494.29,-13.76 501.29,-13.76"/>
</g>
</g>
</svg>
