<?xml version="1.0" encoding="UTF-8" standalone="no"?>
<!DOCTYPE svg PUBLIC "-//W3C//DTD SVG 1.1//EN"
 "http://www.w3.org/Graphics/SVG/1.1/DTD/svg11.dtd">
<!-- Generated by graphviz version 2.43.0 (0)
 -->
<!-- Title: dag Pages: 1 -->
<svg width="488pt" height="724pt"
 viewBox="0.00 0.00 487.60 724.00" xmlns="http://www.w3.org/2000/svg" xmlns:xlink="http://www.w3.org/1999/xlink">
<g id="graph0" class="graph" transform="scale(1 1) rotate(0) translate(4 720)">
<title>dag</title>
<polygon fill="white" stroke="transparent" points="-4,4 -4,-720 483.6,-720 483.6,4 -4,4"/>
<!-- p0 -->
<g id="node1" class="node">
<title>p0</title>
<ellipse fill="black" stroke="black" cx="133.6" cy="-697.4" rx="3.6" ry="3.6"/>
<text text-anchor="middle" x="65" y="-704.8" font-family="Times,serif" font-size="14.00">Channel.fromPath</text>
</g>
<!-- p1 -->
<g id="node2" class="node">
<title>p1</title>
<ellipse fill="none" stroke="black" cx="134.6" cy="-624.8" rx="128.08" ry="18"/>
<text text-anchor="middle" x="134.6" y="-621.1" font-family="Times,serif" font-size="14.00">generate_fasta_reference</text>
</g>
<!-- p0&#45;&gt;p1 -->
<g id="edge1" class="edge">
<title>p0&#45;&gt;p1</title>
<path fill="none" stroke="black" d="M133.64,-693.72C133.73,-687.05 133.99,-669.1 134.21,-653.33"/>
<polygon fill="black" stroke="black" points="137.72,-652.98 134.36,-642.93 130.72,-652.88 137.72,-652.98"/>
<text text-anchor="middle" x="211.1" y="-664.6" font-family="Times,serif" font-size="14.00">peptide_reference_ch</text>
</g>
<!-- p2 -->
<g id="node3" class="node">
<title>p2</title>
<ellipse fill="none" stroke="black" cx="137.6" cy="-537.8" rx="81.79" ry="18"/>
<text text-anchor="middle" x="137.6" y="-534.1" font-family="Times,serif" font-size="14.00">generate_index</text>
</g>
<!-- p1&#45;&gt;p2 -->
<g id="edge2" class="edge">
<title>p1&#45;&gt;p2</title>
<path fill="none" stroke="black" d="M135.21,-606.6C135.62,-594.96 136.17,-579.35 136.64,-566.04"/>
<polygon fill="black" stroke="black" points="140.14,-566.09 136.99,-555.98 133.14,-565.85 140.14,-566.09"/>
<text text-anchor="middle" x="202.1" y="-577.6" font-family="Times,serif" font-size="14.00">pep_channel_fasta</text>
</g>
<!-- p6 -->
<g id="node4" class="node">
<title>p6</title>
<ellipse fill="none" stroke="black" cx="221.6" cy="-465.3" rx="3.5" ry="3.5"/>
<text text-anchor="middle" x="199.1" y="-472.6" font-family="Times,serif" font-size="14.00">cross</text>
</g>
<!-- p2&#45;&gt;p6 -->
<g id="edge3" class="edge">
<title>p2&#45;&gt;p6</title>
<path fill="none" stroke="black" d="M133.52,-519.71C132.05,-509.11 132.25,-495.83 139.6,-486.8 148.15,-476.29 187.05,-470.27 208.05,-467.74"/>
<polygon fill="black" stroke="black" points="208.63,-471.2 218.19,-466.62 207.87,-464.24 208.63,-471.2"/>
<text text-anchor="middle" x="207.1" y="-490.6" font-family="Times,serif" font-size="14.00">pep_channel_index</text>
</g>
<!-- p7 -->
<g id="node8" class="node">
<title>p7</title>
<ellipse fill="none" stroke="black" cx="221.6" cy="-421.3" rx="3.5" ry="3.5"/>
<text text-anchor="middle" x="202.6" y="-428.6" font-family="Times,serif" font-size="14.00">map</text>
</g>
<!-- p6&#45;&gt;p7 -->
<g id="edge7" class="edge">
<title>p6&#45;&gt;p7</title>
<path fill="none" stroke="black" d="M221.6,-461.54C221.6,-456.27 221.6,-444.43 221.6,-435.12"/>
<polygon fill="black" stroke="black" points="225.1,-435.12 221.6,-425.12 218.1,-435.12 225.1,-435.12"/>
</g>
<!-- p3 -->
<g id="node5" class="node">
<title>p3</title>
<ellipse fill="black" stroke="black" cx="301.6" cy="-697.4" rx="3.6" ry="3.6"/>
<text text-anchor="middle" x="233" y="-704.8" font-family="Times,serif" font-size="14.00">Channel.fromPath</text>
</g>
<!-- p4 -->
<g id="node6" class="node">
<title>p4</title>
<ellipse fill="none" stroke="black" cx="300.6" cy="-624.8" rx="3.5" ry="3.5"/>
<text text-anchor="middle" x="326.1" y="-632.1" font-family="Times,serif" font-size="14.00">splitCsv</text>
</g>
<!-- p3&#45;&gt;p4 -->
<g id="edge4" class="edge">
<title>p3&#45;&gt;p4</title>
<path fill="none" stroke="black" d="M301.56,-693.72C301.44,-684.81 301.02,-655.78 300.78,-638.69"/>
<polygon fill="black" stroke="black" points="304.28,-638.43 300.64,-628.48 297.28,-638.53 304.28,-638.43"/>
</g>
<!-- p5 -->
<g id="node7" class="node">
<title>p5</title>
<ellipse fill="none" stroke="black" cx="300.6" cy="-537.8" rx="3.5" ry="3.5"/>
<text text-anchor="middle" x="281.6" y="-545.1" font-family="Times,serif" font-size="14.00">map</text>
</g>
<!-- p4&#45;&gt;p5 -->
<g id="edge5" class="edge">
<title>p4&#45;&gt;p5</title>
<path fill="none" stroke="black" d="M300.6,-620.97C300.6,-610.29 300.6,-571.99 300.6,-551.67"/>
<polygon fill="black" stroke="black" points="304.1,-551.38 300.6,-541.38 297.1,-551.38 304.1,-551.38"/>
</g>
<!-- p5&#45;&gt;p6 -->
<g id="edge6" class="edge">
<title>p5&#45;&gt;p6</title>
<path fill="none" stroke="black" d="M300.18,-534.09C298.74,-525.8 293.3,-500.52 278.6,-486.8 266.49,-475.5 247.71,-470.35 235.04,-468.05"/>
<polygon fill="black" stroke="black" points="235.29,-464.55 224.9,-466.59 234.29,-471.48 235.29,-464.55"/>
<text text-anchor="middle" x="330.6" y="-490.6" font-family="Times,serif" font-size="14.00">samples_ch</text>
</g>
<!-- p8 -->
<g id="node9" class="node">
<title>p8</title>
<ellipse fill="none" stroke="black" cx="221.6" cy="-348.8" rx="111.58" ry="18"/>
<text text-anchor="middle" x="221.6" y="-345.1" font-family="Times,serif" font-size="14.00">short_read_alignment</text>
</g>
<!-- p7&#45;&gt;p8 -->
<g id="edge8" class="edge">
<title>p7&#45;&gt;p8</title>
<path fill="none" stroke="black" d="M221.6,-417.62C221.6,-410.96 221.6,-393.04 221.6,-377.29"/>
<polygon fill="black" stroke="black" points="225.1,-376.9 221.6,-366.9 218.1,-376.9 225.1,-376.9"/>
<text text-anchor="middle" x="282.1" y="-388.6" font-family="Times,serif" font-size="14.00">index_sample_ch</text>
</g>
<!-- p9 -->
<g id="node10" class="node">
<title>p9</title>
<ellipse fill="none" stroke="black" cx="221.6" cy="-276.3" rx="3.5" ry="3.5"/>
<text text-anchor="middle" x="204.1" y="-283.6" font-family="Times,serif" font-size="14.00">into</text>
</g>
<!-- p8&#45;&gt;p9 -->
<g id="edge9" class="edge">
<title>p8&#45;&gt;p9</title>
<path fill="none" stroke="black" d="M221.6,-330.73C221.6,-318.18 221.6,-301.39 221.6,-290"/>
<polygon fill="black" stroke="black" points="225.1,-289.96 221.6,-279.96 218.1,-289.96 225.1,-289.96"/>
<text text-anchor="middle" x="289.6" y="-301.6" font-family="Times,serif" font-size="14.00">aligned_reads_sam</text>
</g>
<!-- p11 -->
<g id="node11" class="node">
<title>p11</title>
<ellipse fill="none" stroke="black" cx="137.6" cy="-203.8" rx="78.79" ry="18"/>
<text text-anchor="middle" x="137.6" y="-200.1" font-family="Times,serif" font-size="14.00">sam_to_counts</text>
</g>
<!-- p9&#45;&gt;p11 -->
<g id="edge10" class="edge">
<title>p9&#45;&gt;p11</title>
<path fill="none" stroke="black" d="M217.85,-275.15C201.1,-274.37 133.28,-270.32 120.6,-254.8 114.95,-247.89 116.06,-239 119.6,-230.64"/>
<polygon fill="black" stroke="black" points="122.82,-232.04 124.4,-221.56 116.63,-228.77 122.82,-232.04"/>
<text text-anchor="middle" x="211.1" y="-243.6" font-family="Times,serif" font-size="14.00">aligned_reads_for_counts</text>
</g>
<!-- p10 -->
<g id="node12" class="node">
<title>p10</title>
<ellipse fill="none" stroke="black" cx="313.6" cy="-203.8" rx="70.69" ry="18"/>
<text text-anchor="middle" x="313.6" y="-200.1" font-family="Times,serif" font-size="14.00">sam_to_stats</text>
</g>
<!-- p9&#45;&gt;p10 -->
<g id="edge11" class="edge">
<title>p9&#45;&gt;p10</title>
<path fill="none" stroke="black" d="M225.26,-275.57C237.86,-276.29 279.87,-276.87 301.6,-254.8 307.5,-248.81 310.68,-240.45 312.35,-232.29"/>
<polygon fill="black" stroke="black" points="315.84,-232.62 313.74,-222.24 308.9,-231.66 315.84,-232.62"/>
<text text-anchor="middle" x="395.1" y="-243.6" font-family="Times,serif" font-size="14.00">aligned_reads_for_stats</text>
</g>
<!-- p12 -->
<g id="node14" class="node">
<title>p12</title>
<ellipse fill="none" stroke="black" cx="207.6" cy="-131.2" rx="3.5" ry="3.5"/>
<text text-anchor="middle" x="180.6" y="-138.5" font-family="Times,serif" font-size="14.00">collect</text>
</g>
<!-- p11&#45;&gt;p12 -->
<g id="edge13" class="edge">
<title>p11&#45;&gt;p12</title>
<path fill="none" stroke="black" d="M154.19,-186.07C167.97,-172.17 187.08,-152.9 198.31,-141.57"/>
<polygon fill="black" stroke="black" points="200.82,-144.01 205.37,-134.44 195.85,-139.08 200.82,-144.01"/>
<text text-anchor="middle" x="223.1" y="-156.6" font-family="Times,serif" font-size="14.00">counts_ch</text>
</g>
<!-- p13 -->
<g id="node13" class="node">
<title>p13</title>
<ellipse fill="none" stroke="black" cx="258.6" cy="-131.2" rx="3.5" ry="3.5"/>
<text text-anchor="middle" x="231.6" y="-138.5" font-family="Times,serif" font-size="14.00">collect</text>
</g>
<!-- p10&#45;&gt;p13 -->
<g id="edge12" class="edge">
<title>p10&#45;&gt;p13</title>
<path fill="none" stroke="black" d="M300.57,-186.07C290.06,-172.58 275.61,-154.04 266.7,-142.6"/>
<polygon fill="black" stroke="black" points="269.26,-140.18 260.35,-134.44 263.73,-144.48 269.26,-140.18"/>
<text text-anchor="middle" x="355.6" y="-156.6" font-family="Times,serif" font-size="14.00">alignment_stats_ch</text>
</g>
<!-- p16 -->
<g id="node15" class="node">
<title>p16</title>
<ellipse fill="none" stroke="black" cx="270.6" cy="-72.6" rx="90.98" ry="18"/>
<text text-anchor="middle" x="270.6" y="-68.9" font-family="Times,serif" font-size="14.00">collect_phip_data</text>
</g>
<!-- p13&#45;&gt;p16 -->
<g id="edge15" class="edge">
<title>p13&#45;&gt;p16</title>
<path fill="none" stroke="black" d="M259.18,-127.47C260.23,-122.52 262.55,-111.56 264.83,-100.82"/>
<polygon fill="black" stroke="black" points="268.31,-101.29 266.96,-90.78 261.46,-99.84 268.31,-101.29"/>
</g>
<!-- p12&#45;&gt;p16 -->
<g id="edge14" class="edge">
<title>p12&#45;&gt;p16</title>
<path fill="none" stroke="black" d="M209.7,-128.32C215.17,-123.4 230.45,-109.67 244.33,-97.2"/>
<polygon fill="black" stroke="black" points="246.73,-99.75 251.83,-90.47 242.05,-94.55 246.73,-99.75"/>
</g>
<!-- p17 -->
<g id="node18" class="node">
<title>p17</title>
<ellipse fill="black" stroke="black" cx="270.6" cy="-1.8" rx="1.8" ry="1.8"/>
</g>
<!-- p16&#45;&gt;p17 -->
<g id="edge18" class="edge">
<title>p16&#45;&gt;p17</title>
<path fill="none" stroke="black" d="M270.6,-54.59C270.6,-42.06 270.6,-25.34 270.6,-14.34"/>
<polygon fill="black" stroke="black" points="274.1,-14.19 270.6,-4.19 267.1,-14.19 274.1,-14.19"/>
<text text-anchor="middle" x="317.6" y="-25.4" font-family="Times,serif" font-size="14.00">phip_data_ch</text>
</g>
<!-- p14 -->
<g id="node16" class="node">
<title>p14</title>
<ellipse fill="black" stroke="black" cx="283.6" cy="-131.2" rx="3.6" ry="3.6"/>
<text text-anchor="middle" x="215" y="-116.4" font-family="Times,serif" font-size="14.00">Channel.fromPath</text>
</g>
<!-- p14&#45;&gt;p16 -->
<g id="edge16" class="edge">
<title>p14&#45;&gt;p16</title>
<path fill="none" stroke="black" d="M282.97,-127.47C281.84,-122.52 279.32,-111.56 276.85,-100.82"/>
<polygon fill="black" stroke="black" points="280.2,-99.75 274.55,-90.78 273.37,-101.31 280.2,-99.75"/>
</g>
<!-- p15 -->
<g id="node17" class="node">
<title>p15</title>
<ellipse fill="black" stroke="black" cx="308.6" cy="-131.2" rx="3.6" ry="3.6"/>
<text text-anchor="middle" x="370" y="-138.6" font-family="Times,serif" font-size="14.00">Channel.fromPath</text>
</g>
<!-- p15&#45;&gt;p16 -->
<g id="edge17" class="edge">
<title>p15&#45;&gt;p16</title>
<path fill="none" stroke="black" d="M306.97,-127.77C303.57,-122.71 295.42,-110.57 287.69,-99.06"/>
<polygon fill="black" stroke="black" points="290.43,-96.86 281.95,-90.51 284.62,-100.76 290.43,-96.86"/>
</g>
</g>
</svg>
