<?xml version="1.0" encoding="UTF-8" standalone="no"?>
<!DOCTYPE svg PUBLIC "-//W3C//DTD SVG 1.1//EN"
 "http://www.w3.org/Graphics/SVG/1.1/DTD/svg11.dtd">
<!-- Generated by graphviz version 2.43.0 (0)
 -->
<!-- Title: dag Pages: 1 -->
<svg width="759pt" height="1723pt"
 viewBox="0.00 0.00 758.84 1723.00" xmlns="http://www.w3.org/2000/svg" xmlns:xlink="http://www.w3.org/1999/xlink">
<g id="graph0" class="graph" transform="scale(1 1) rotate(0) translate(4 1719)">
<title>dag</title>
<polygon fill="white" stroke="transparent" points="-4,4 -4,-1719 754.84,-1719 754.84,4 -4,4"/>
<!-- p0 -->
<g id="node1" class="node">
<title>p0</title>
<ellipse fill="black" stroke="black" cx="263.84" cy="-1696.4" rx="3.6" ry="3.6"/>
<text text-anchor="middle" x="195.24" y="-1703.8" font-family="Times,serif" font-size="14.00">Channel.fromPath</text>
</g>
<!-- p2 -->
<g id="node2" class="node">
<title>p2</title>
<ellipse fill="none" stroke="black" cx="263.84" cy="-1623.8" rx="113.18" ry="18"/>
<text text-anchor="middle" x="263.84" y="-1620.1" font-family="Times,serif" font-size="14.00">validate_sample_table</text>
</g>
<!-- p0&#45;&gt;p2 -->
<g id="edge1" class="edge">
<title>p0&#45;&gt;p2</title>
<path fill="none" stroke="black" d="M263.84,-1692.72C263.84,-1686.05 263.84,-1668.1 263.84,-1652.33"/>
<polygon fill="black" stroke="black" points="267.34,-1651.93 263.84,-1641.93 260.34,-1651.93 267.34,-1651.93"/>
<text text-anchor="middle" x="301.34" y="-1663.6" font-family="Times,serif" font-size="14.00">sample_ch</text>
</g>
<!-- p6 -->
<g id="node5" class="node">
<title>p6</title>
<ellipse fill="none" stroke="black" cx="307.84" cy="-1550.8" rx="3.5" ry="3.5"/>
<text text-anchor="middle" x="275.34" y="-1558.1" font-family="Times,serif" font-size="14.00">splitCsv</text>
</g>
<!-- p2&#45;&gt;p6 -->
<g id="edge3" class="edge">
<title>p2&#45;&gt;p6</title>
<path fill="none" stroke="black" d="M274.49,-1605.61C282.73,-1592.32 293.9,-1574.3 300.99,-1562.86"/>
<polygon fill="black" stroke="black" points="304.16,-1564.38 306.46,-1554.03 298.21,-1560.69 304.16,-1564.38"/>
</g>
<!-- p15 -->
<g id="node16" class="node">
<title>p15</title>
<ellipse fill="none" stroke="black" cx="446.84" cy="-1104.8" rx="90.98" ry="18"/>
<text text-anchor="middle" x="446.84" y="-1101.1" font-family="Times,serif" font-size="14.00">collect_phip_data</text>
</g>
<!-- p2&#45;&gt;p15 -->
<g id="edge17" class="edge">
<title>p2&#45;&gt;p15</title>
<path fill="none" stroke="black" d="M260.82,-1605.64C258.55,-1591.3 255.84,-1570.28 255.84,-1551.8 255.84,-1551.8 255.84,-1551.8 255.84,-1162.3 255.84,-1138.88 309.33,-1124.42 359.69,-1116"/>
<polygon fill="black" stroke="black" points="360.38,-1119.44 369.7,-1114.4 359.28,-1112.53 360.38,-1119.44"/>
<text text-anchor="middle" x="302.84" y="-1353.6" font-family="Times,serif" font-size="14.00">sample_table</text>
</g>
<!-- p1 -->
<g id="node3" class="node">
<title>p1</title>
<ellipse fill="black" stroke="black" cx="539.84" cy="-1696.4" rx="3.6" ry="3.6"/>
<text text-anchor="middle" x="471.24" y="-1703.8" font-family="Times,serif" font-size="14.00">Channel.fromPath</text>
</g>
<!-- p3 -->
<g id="node4" class="node">
<title>p3</title>
<ellipse fill="none" stroke="black" cx="539.84" cy="-1623.8" rx="115.08" ry="18"/>
<text text-anchor="middle" x="539.84" y="-1620.1" font-family="Times,serif" font-size="14.00">validate_peptide_table</text>
</g>
<!-- p1&#45;&gt;p3 -->
<g id="edge2" class="edge">
<title>p1&#45;&gt;p3</title>
<path fill="none" stroke="black" d="M539.84,-1692.72C539.84,-1686.05 539.84,-1668.1 539.84,-1652.33"/>
<polygon fill="black" stroke="black" points="543.34,-1651.93 539.84,-1641.93 536.34,-1651.93 543.34,-1651.93"/>
<text text-anchor="middle" x="578.84" y="-1663.6" font-family="Times,serif" font-size="14.00">peptide_ch</text>
</g>
<!-- p4 -->
<g id="node6" class="node">
<title>p4</title>
<ellipse fill="none" stroke="black" cx="467.84" cy="-1550.8" rx="128.08" ry="18"/>
<text text-anchor="middle" x="467.84" y="-1547.1" font-family="Times,serif" font-size="14.00">generate_fasta_reference</text>
</g>
<!-- p3&#45;&gt;p4 -->
<g id="edge4" class="edge">
<title>p3&#45;&gt;p4</title>
<path fill="none" stroke="black" d="M522.78,-1605.97C513.76,-1597.09 502.54,-1586.01 492.58,-1576.2"/>
<polygon fill="black" stroke="black" points="494.86,-1573.53 485.28,-1569 489.94,-1578.51 494.86,-1573.53"/>
</g>
<!-- p3&#45;&gt;p15 -->
<g id="edge18" class="edge">
<title>p3&#45;&gt;p15</title>
<path fill="none" stroke="black" d="M582.78,-1607.07C605.54,-1595.68 628.84,-1577.69 628.84,-1551.8 628.84,-1551.8 628.84,-1551.8 628.84,-1162.3 628.84,-1140.14 579,-1125.7 531.48,-1116.97"/>
<polygon fill="black" stroke="black" points="531.85,-1113.48 521.39,-1115.19 530.63,-1120.37 531.85,-1113.48"/>
<text text-anchor="middle" x="677.34" y="-1353.6" font-family="Times,serif" font-size="14.00">peptide_table</text>
</g>
<!-- p7 -->
<g id="node9" class="node">
<title>p7</title>
<ellipse fill="none" stroke="black" cx="318.84" cy="-1477.8" rx="3.5" ry="3.5"/>
<text text-anchor="middle" x="299.84" y="-1485.1" font-family="Times,serif" font-size="14.00">map</text>
</g>
<!-- p6&#45;&gt;p7 -->
<g id="edge7" class="edge">
<title>p6&#45;&gt;p7</title>
<path fill="none" stroke="black" d="M308.26,-1547.1C309.65,-1538.1 314.21,-1508.66 316.87,-1491.51"/>
<polygon fill="black" stroke="black" points="320.35,-1491.92 318.42,-1481.5 313.43,-1490.85 320.35,-1491.92"/>
</g>
<!-- p5 -->
<g id="node7" class="node">
<title>p5</title>
<ellipse fill="none" stroke="black" cx="449.84" cy="-1477.8" rx="81.79" ry="18"/>
<text text-anchor="middle" x="449.84" y="-1474.1" font-family="Times,serif" font-size="14.00">generate_index</text>
</g>
<!-- p4&#45;&gt;p5 -->
<g id="edge5" class="edge">
<title>p4&#45;&gt;p5</title>
<path fill="none" stroke="black" d="M463.48,-1532.61C461.43,-1524.5 458.93,-1514.64 456.63,-1505.58"/>
<polygon fill="black" stroke="black" points="460.01,-1504.66 454.16,-1495.83 453.22,-1506.38 460.01,-1504.66"/>
</g>
<!-- p8 -->
<g id="node8" class="node">
<title>p8</title>
<ellipse fill="none" stroke="black" cx="405.84" cy="-1405.3" rx="3.5" ry="3.5"/>
<text text-anchor="middle" x="383.34" y="-1412.6" font-family="Times,serif" font-size="14.00">cross</text>
</g>
<!-- p5&#45;&gt;p8 -->
<g id="edge6" class="edge">
<title>p5&#45;&gt;p8</title>
<path fill="none" stroke="black" d="M439.19,-1459.73C430.95,-1446.53 419.78,-1428.64 412.69,-1417.28"/>
<polygon fill="black" stroke="black" points="415.49,-1415.15 407.22,-1408.52 409.55,-1418.85 415.49,-1415.15"/>
</g>
<!-- p9 -->
<g id="node10" class="node">
<title>p9</title>
<ellipse fill="none" stroke="black" cx="405.84" cy="-1357.3" rx="3.5" ry="3.5"/>
<text text-anchor="middle" x="386.84" y="-1364.6" font-family="Times,serif" font-size="14.00">map</text>
</g>
<!-- p8&#45;&gt;p9 -->
<g id="edge9" class="edge">
<title>p8&#45;&gt;p9</title>
<path fill="none" stroke="black" d="M405.84,-1401.56C405.84,-1395.73 405.84,-1381.77 405.84,-1371.27"/>
<polygon fill="black" stroke="black" points="409.34,-1370.97 405.84,-1360.97 402.34,-1370.97 409.34,-1370.97"/>
</g>
<!-- p7&#45;&gt;p8 -->
<g id="edge8" class="edge">
<title>p7&#45;&gt;p8</title>
<path fill="none" stroke="black" d="M318.74,-1474.07C318.6,-1465.74 319.33,-1440.32 332.84,-1426.8 348.71,-1410.92 375.83,-1407.1 392.17,-1406.32"/>
<polygon fill="black" stroke="black" points="392.25,-1409.82 402.2,-1406.17 392.15,-1402.82 392.25,-1409.82"/>
<text text-anchor="middle" x="373.84" y="-1430.6" font-family="Times,serif" font-size="14.00">samples_ch</text>
</g>
<!-- p10 -->
<g id="node11" class="node">
<title>p10</title>
<ellipse fill="none" stroke="black" cx="405.84" cy="-1294.8" rx="111.58" ry="18"/>
<text text-anchor="middle" x="405.84" y="-1291.1" font-family="Times,serif" font-size="14.00">short_read_alignment</text>
</g>
<!-- p9&#45;&gt;p10 -->
<g id="edge10" class="edge">
<title>p9&#45;&gt;p10</title>
<path fill="none" stroke="black" d="M405.84,-1353.7C405.84,-1348.35 405.84,-1335.57 405.84,-1323.38"/>
<polygon fill="black" stroke="black" points="409.34,-1323.02 405.84,-1313.02 402.34,-1323.02 409.34,-1323.02"/>
</g>
<!-- p11 -->
<g id="node12" class="node">
<title>p11</title>
<ellipse fill="none" stroke="black" cx="521.84" cy="-1221.8" rx="78.79" ry="18"/>
<text text-anchor="middle" x="521.84" y="-1218.1" font-family="Times,serif" font-size="14.00">sam_to_counts</text>
</g>
<!-- p10&#45;&gt;p11 -->
<g id="edge11" class="edge">
<title>p10&#45;&gt;p11</title>
<path fill="none" stroke="black" d="M433.04,-1277.15C449.12,-1267.31 469.65,-1254.74 486.92,-1244.17"/>
<polygon fill="black" stroke="black" points="488.91,-1247.06 495.61,-1238.85 485.26,-1241.09 488.91,-1247.06"/>
</g>
<!-- p12 -->
<g id="node14" class="node">
<title>p12</title>
<ellipse fill="none" stroke="black" cx="354.84" cy="-1221.8" rx="70.69" ry="18"/>
<text text-anchor="middle" x="354.84" y="-1218.1" font-family="Times,serif" font-size="14.00">sam_to_stats</text>
</g>
<!-- p10&#45;&gt;p12 -->
<g id="edge13" class="edge">
<title>p10&#45;&gt;p12</title>
<path fill="none" stroke="black" d="M393.49,-1276.61C387.36,-1268.07 379.82,-1257.57 373.03,-1248.12"/>
<polygon fill="black" stroke="black" points="375.75,-1245.91 367.07,-1239.83 370.06,-1249.99 375.75,-1245.91"/>
</g>
<!-- p13 -->
<g id="node13" class="node">
<title>p13</title>
<ellipse fill="none" stroke="black" cx="469.84" cy="-1163.3" rx="3.5" ry="3.5"/>
<text text-anchor="middle" x="421.34" y="-1170.6" font-family="Times,serif" font-size="14.00">toSortedList</text>
</g>
<!-- p11&#45;&gt;p13 -->
<g id="edge12" class="edge">
<title>p11&#45;&gt;p13</title>
<path fill="none" stroke="black" d="M506.24,-1203.85C497.29,-1194.13 486.38,-1182.27 478.85,-1174.09"/>
<polygon fill="black" stroke="black" points="481.23,-1171.51 471.89,-1166.52 476.08,-1176.25 481.23,-1171.51"/>
</g>
<!-- p13&#45;&gt;p15 -->
<g id="edge15" class="edge">
<title>p13&#45;&gt;p15</title>
<path fill="none" stroke="black" d="M468.85,-1159.87C466.87,-1155 462.21,-1143.56 457.69,-1132.45"/>
<polygon fill="black" stroke="black" points="460.83,-1130.89 453.82,-1122.94 454.35,-1133.53 460.83,-1130.89"/>
</g>
<!-- p14 -->
<g id="node15" class="node">
<title>p14</title>
<ellipse fill="none" stroke="black" cx="360.84" cy="-1163.3" rx="3.5" ry="3.5"/>
<text text-anchor="middle" x="312.34" y="-1170.6" font-family="Times,serif" font-size="14.00">toSortedList</text>
</g>
<!-- p12&#45;&gt;p14 -->
<g id="edge14" class="edge">
<title>p12&#45;&gt;p14</title>
<path fill="none" stroke="black" d="M356.67,-1203.54C357.58,-1194.96 358.67,-1184.77 359.5,-1176.92"/>
<polygon fill="black" stroke="black" points="362.99,-1177.17 360.57,-1166.86 356.03,-1176.44 362.99,-1177.17"/>
</g>
<!-- p14&#45;&gt;p15 -->
<g id="edge16" class="edge">
<title>p14&#45;&gt;p15</title>
<path fill="none" stroke="black" d="M363.32,-1160.67C370.71,-1155.82 393.29,-1140.98 413.11,-1127.96"/>
<polygon fill="black" stroke="black" points="415.23,-1130.75 421.67,-1122.34 411.39,-1124.9 415.23,-1130.75"/>
</g>
<!-- p16 -->
<g id="node17" class="node">
<title>p16</title>
<ellipse fill="none" stroke="black" cx="446.84" cy="-1031.8" rx="87.18" ry="18"/>
<text text-anchor="middle" x="446.84" y="-1028.1" font-family="Times,serif" font-size="14.00">replicate_counts</text>
</g>
<!-- p15&#45;&gt;p16 -->
<g id="edge19" class="edge">
<title>p15&#45;&gt;p16</title>
<path fill="none" stroke="black" d="M446.84,-1086.61C446.84,-1078.59 446.84,-1068.85 446.84,-1059.87"/>
<polygon fill="black" stroke="black" points="450.34,-1059.83 446.84,-1049.83 443.34,-1059.83 450.34,-1059.83"/>
</g>
<!-- p17 -->
<g id="node18" class="node">
<title>p17</title>
<ellipse fill="none" stroke="black" cx="321.84" cy="-836.8" rx="97.48" ry="18"/>
<text text-anchor="middle" x="321.84" y="-833.1" font-family="Times,serif" font-size="14.00">counts_per_million</text>
</g>
<!-- p16&#45;&gt;p17 -->
<g id="edge20" class="edge">
<title>p16&#45;&gt;p17</title>
<path fill="none" stroke="black" d="M435.75,-1013.67C413.69,-979.62 364.24,-903.27 338.36,-863.3"/>
<polygon fill="black" stroke="black" points="341.28,-861.38 332.91,-854.89 335.41,-865.19 341.28,-861.38"/>
<text text-anchor="middle" x="408.34" y="-941.1" font-family="Times,serif" font-size="14.00">ds</text>
</g>
<!-- p18 -->
<g id="node20" class="node">
<title>p18</title>
<ellipse fill="none" stroke="black" cx="446.84" cy="-890.8" rx="65.79" ry="18"/>
<text text-anchor="middle" x="446.84" y="-887.1" font-family="Times,serif" font-size="14.00">size_factors</text>
</g>
<!-- p16&#45;&gt;p18 -->
<g id="edge22" class="edge">
<title>p16&#45;&gt;p18</title>
<path fill="none" stroke="black" d="M446.84,-1013.76C446.84,-990.2 446.84,-947.44 446.84,-919.33"/>
<polygon fill="black" stroke="black" points="450.34,-918.98 446.84,-908.98 443.34,-918.98 450.34,-918.98"/>
<text text-anchor="middle" x="455.34" y="-984.6" font-family="Times,serif" font-size="14.00">ds</text>
</g>
<!-- p20 -->
<g id="node22" class="node">
<title>p20</title>
<ellipse fill="none" stroke="black" cx="587.84" cy="-944.8" rx="103.18" ry="18"/>
<text text-anchor="middle" x="587.84" y="-941.1" font-family="Times,serif" font-size="14.00">edgeR_BEER:to_csv</text>
</g>
<!-- p16&#45;&gt;p20 -->
<g id="edge25" class="edge">
<title>p16&#45;&gt;p20</title>
<path fill="none" stroke="black" d="M473.69,-1014.61C495.9,-1001.23 527.62,-982.1 551.99,-967.41"/>
<polygon fill="black" stroke="black" points="553.85,-970.38 560.61,-962.22 550.24,-964.38 553.85,-970.38"/>
<text text-anchor="middle" x="533.34" y="-984.6" font-family="Times,serif" font-size="14.00">ds</text>
</g>
<!-- p19 -->
<g id="node19" class="node">
<title>p19</title>
<ellipse fill="none" stroke="black" cx="443.84" cy="-749.8" rx="3.5" ry="3.5"/>
<text text-anchor="middle" x="445.59" y="-735.1" font-family="Times,serif" font-size="14.00">mix</text>
</g>
<!-- p17&#45;&gt;p19 -->
<g id="edge21" class="edge">
<title>p17&#45;&gt;p19</title>
<path fill="none" stroke="black" d="M365.01,-820.52C377.17,-815.22 390.01,-808.61 400.84,-800.8 415.76,-790.04 428.89,-773.09 436.6,-761.96"/>
<polygon fill="black" stroke="black" points="439.62,-763.74 442.21,-753.46 433.78,-759.88 439.62,-763.74"/>
</g>
<!-- p25 -->
<g id="node26" class="node">
<title>p25</title>
<ellipse fill="none" stroke="black" cx="109.84" cy="-749.8" rx="109.68" ry="18"/>
<text text-anchor="middle" x="109.84" y="-746.1" font-family="Times,serif" font-size="14.00">cpm_fold_enrichment</text>
</g>
<!-- p17&#45;&gt;p25 -->
<g id="edge30" class="edge">
<title>p17&#45;&gt;p25</title>
<path fill="none" stroke="black" d="M282.96,-820.21C248.17,-806.26 197.01,-785.75 159.32,-770.64"/>
<polygon fill="black" stroke="black" points="160.14,-767.2 149.56,-766.72 157.54,-773.69 160.14,-767.2"/>
<text text-anchor="middle" x="263.84" y="-789.6" font-family="Times,serif" font-size="14.00">phip_data</text>
</g>
<!-- p26 -->
<g id="node27" class="node">
<title>p26</title>
<ellipse fill="none" stroke="black" cx="329.84" cy="-749.8" rx="92.08" ry="18"/>
<text text-anchor="middle" x="329.84" y="-746.1" font-family="Times,serif" font-size="14.00">fit_predict_zscore</text>
</g>
<!-- p17&#45;&gt;p26 -->
<g id="edge32" class="edge">
<title>p17&#45;&gt;p26</title>
<path fill="none" stroke="black" d="M323.46,-818.6C324.55,-806.96 326.02,-791.35 327.28,-778.04"/>
<polygon fill="black" stroke="black" points="330.77,-778.26 328.22,-767.98 323.8,-777.6 330.77,-778.26"/>
<text text-anchor="middle" x="361.84" y="-789.6" font-family="Times,serif" font-size="14.00">phip_data</text>
</g>
<!-- p27 -->
<g id="node21" class="node">
<title>p27</title>
<ellipse fill="none" stroke="black" cx="362.84" cy="-677.3" rx="3.5" ry="3.5"/>
<text text-anchor="middle" x="335.84" y="-684.6" font-family="Times,serif" font-size="14.00">concat</text>
</g>
<!-- p19&#45;&gt;p27 -->
<g id="edge24" class="edge">
<title>p19&#45;&gt;p27</title>
<path fill="none" stroke="black" d="M442.17,-746.22C439.85,-742.74 435.43,-736.46 430.84,-731.8 412.52,-713.22 387.75,-695.22 373.72,-685.57"/>
<polygon fill="black" stroke="black" points="375.62,-682.63 365.37,-679.95 371.71,-688.44 375.62,-682.63"/>
<text text-anchor="middle" x="457.34" y="-702.6" font-family="Times,serif" font-size="14.00">auto_stats_ch</text>
</g>
<!-- p18&#45;&gt;p19 -->
<g id="edge23" class="edge">
<title>p18&#45;&gt;p19</title>
<path fill="none" stroke="black" d="M446.47,-872.76C445.86,-844.61 444.66,-789.01 444.12,-763.78"/>
<polygon fill="black" stroke="black" points="447.62,-763.59 443.9,-753.67 440.62,-763.74 447.62,-763.59"/>
</g>
<!-- p28 -->
<g id="node28" class="node">
<title>p28</title>
<ellipse fill="none" stroke="black" cx="362.84" cy="-633.3" rx="3.5" ry="3.5"/>
<text text-anchor="middle" x="335.84" y="-640.6" font-family="Times,serif" font-size="14.00">collect</text>
</g>
<!-- p27&#45;&gt;p28 -->
<g id="edge34" class="edge">
<title>p27&#45;&gt;p28</title>
<path fill="none" stroke="black" d="M362.84,-673.54C362.84,-668.27 362.84,-656.43 362.84,-647.12"/>
<polygon fill="black" stroke="black" points="366.34,-647.12 362.84,-637.12 359.34,-647.12 366.34,-647.12"/>
</g>
<!-- p21 -->
<g id="node23" class="node">
<title>p21</title>
<ellipse fill="none" stroke="black" cx="598.84" cy="-836.8" rx="124.28" ry="18"/>
<text text-anchor="middle" x="598.84" y="-833.1" font-family="Times,serif" font-size="14.00">edgeR_BEER:run_edgeR</text>
</g>
<!-- p20&#45;&gt;p21 -->
<g id="edge26" class="edge">
<title>p20&#45;&gt;p21</title>
<path fill="none" stroke="black" d="M589.61,-926.77C591.33,-910.18 593.98,-884.68 595.99,-865.23"/>
<polygon fill="black" stroke="black" points="599.49,-865.45 597.04,-855.14 592.53,-864.73 599.49,-865.45"/>
</g>
<!-- p22 -->
<g id="node24" class="node">
<title>p22</title>
<ellipse fill="none" stroke="black" cx="583.84" cy="-749.8" rx="118.08" ry="18"/>
<text text-anchor="middle" x="583.84" y="-746.1" font-family="Times,serif" font-size="14.00">edgeR_BEER:to_xarray</text>
</g>
<!-- p21&#45;&gt;p22 -->
<g id="edge27" class="edge">
<title>p21&#45;&gt;p22</title>
<path fill="none" stroke="black" d="M595.8,-818.6C593.75,-806.96 591,-791.35 588.65,-778.04"/>
<polygon fill="black" stroke="black" points="592.06,-777.21 586.87,-767.98 585.16,-778.43 592.06,-777.21"/>
</g>
<!-- p24 -->
<g id="node25" class="node">
<title>p24</title>
<ellipse fill="black" stroke="black" cx="721.84" cy="-749.8" rx="1.8" ry="1.8"/>
</g>
<!-- p21&#45;&gt;p24 -->
<g id="edge29" class="edge">
<title>p21&#45;&gt;p24</title>
<path fill="none" stroke="black" d="M634.46,-819.46C657.99,-807.47 688.49,-789.52 710.84,-767.8 712.97,-765.73 714.89,-763.17 716.51,-760.68"/>
<polygon fill="black" stroke="black" points="719.63,-762.28 721.38,-751.83 713.49,-758.91 719.63,-762.28"/>
<text text-anchor="middle" x="719.84" y="-789.6" font-family="Times,serif" font-size="14.00">rds_data</text>
</g>
<!-- p22&#45;&gt;p27 -->
<g id="edge28" class="edge">
<title>p22&#45;&gt;p27</title>
<path fill="none" stroke="black" d="M564.21,-731.85C550.05,-720.6 529.96,-706.52 509.84,-698.8 463.53,-681.03 403.75,-678.39 376.94,-678.18"/>
<polygon fill="black" stroke="black" points="376.62,-674.68 366.63,-678.21 376.64,-681.68 376.62,-674.68"/>
</g>
<!-- p25&#45;&gt;p27 -->
<g id="edge31" class="edge">
<title>p25&#45;&gt;p27</title>
<path fill="none" stroke="black" d="M162.88,-734.02C222.49,-717.41 315.42,-691.51 349.63,-681.98"/>
<polygon fill="black" stroke="black" points="350.98,-685.24 359.67,-679.18 349.1,-678.5 350.98,-685.24"/>
</g>
<!-- p26&#45;&gt;p27 -->
<g id="edge33" class="edge">
<title>p26&#45;&gt;p27</title>
<path fill="none" stroke="black" d="M337.83,-731.73C343.83,-718.91 351.9,-701.66 357.23,-690.28"/>
<polygon fill="black" stroke="black" points="360.52,-691.5 361.59,-680.96 354.19,-688.53 360.52,-691.5"/>
</g>
<!-- p29 -->
<g id="node29" class="node">
<title>p29</title>
<ellipse fill="none" stroke="black" cx="362.84" cy="-574.8" rx="118.08" ry="18"/>
<text text-anchor="middle" x="362.84" y="-571.1" font-family="Times,serif" font-size="14.00">merge_binary_datasets</text>
</g>
<!-- p28&#45;&gt;p29 -->
<g id="edge35" class="edge">
<title>p28&#45;&gt;p29</title>
<path fill="none" stroke="black" d="M362.84,-629.57C362.84,-624.63 362.84,-613.7 362.84,-602.97"/>
<polygon fill="black" stroke="black" points="366.34,-602.95 362.84,-592.95 359.34,-602.95 366.34,-602.95"/>
</g>
<!-- p30 -->
<g id="node30" class="node">
<title>p30</title>
<ellipse fill="none" stroke="black" cx="180.84" cy="-487.8" rx="71.49" ry="18"/>
<text text-anchor="middle" x="180.84" y="-484.1" font-family="Times,serif" font-size="14.00">dump_binary</text>
</g>
<!-- p29&#45;&gt;p30 -->
<g id="edge36" class="edge">
<title>p29&#45;&gt;p30</title>
<path fill="none" stroke="black" d="M327.75,-557.41C297.66,-543.36 254.27,-523.09 222.44,-508.23"/>
<polygon fill="black" stroke="black" points="223.92,-505.06 213.38,-504 220.96,-511.4 223.92,-505.06"/>
<text text-anchor="middle" x="309.84" y="-527.6" font-family="Times,serif" font-size="14.00">dataset</text>
</g>
<!-- p32 -->
<g id="node32" class="node">
<title>p32</title>
<ellipse fill="none" stroke="black" cx="362.84" cy="-487.8" rx="83.39" ry="18"/>
<text text-anchor="middle" x="362.84" y="-484.1" font-family="Times,serif" font-size="14.00">dump_wide_csv</text>
</g>
<!-- p29&#45;&gt;p32 -->
<g id="edge38" class="edge">
<title>p29&#45;&gt;p32</title>
<path fill="none" stroke="black" d="M362.84,-556.6C362.84,-544.96 362.84,-529.35 362.84,-516.04"/>
<polygon fill="black" stroke="black" points="366.34,-515.98 362.84,-505.98 359.34,-515.98 366.34,-515.98"/>
<text text-anchor="middle" x="389.84" y="-527.6" font-family="Times,serif" font-size="14.00">dataset</text>
</g>
<!-- p33 -->
<g id="node34" class="node">
<title>p33</title>
<ellipse fill="none" stroke="black" cx="544.84" cy="-487.8" rx="76.09" ry="18"/>
<text text-anchor="middle" x="544.84" y="-484.1" font-family="Times,serif" font-size="14.00">dump_tall_csv</text>
</g>
<!-- p29&#45;&gt;p33 -->
<g id="edge40" class="edge">
<title>p29&#45;&gt;p33</title>
<path fill="none" stroke="black" d="M397.93,-557.41C427.79,-543.46 470.77,-523.39 502.53,-508.56"/>
<polygon fill="black" stroke="black" points="504.42,-511.54 512,-504.14 501.46,-505.2 504.42,-511.54"/>
<text text-anchor="middle" x="490.84" y="-527.6" font-family="Times,serif" font-size="14.00">dataset</text>
</g>
<!-- p31 -->
<g id="node31" class="node">
<title>p31</title>
<ellipse fill="black" stroke="black" cx="162.84" cy="-400.8" rx="1.8" ry="1.8"/>
</g>
<!-- p30&#45;&gt;p31 -->
<g id="edge37" class="edge">
<title>p30&#45;&gt;p31</title>
<path fill="none" stroke="black" d="M170.82,-469.91C168.01,-464.33 165.33,-457.97 163.84,-451.8 160.71,-438.8 160.99,-423.35 161.7,-413.1"/>
<polygon fill="black" stroke="black" points="165.19,-413.35 162.67,-403.06 158.22,-412.68 165.19,-413.35"/>
<text text-anchor="middle" x="210.84" y="-440.6" font-family="Times,serif" font-size="14.00">dump_binary</text>
</g>
<!-- p35 -->
<g id="node33" class="node">
<title>p35</title>
<ellipse fill="none" stroke="black" cx="296.84" cy="-400.8" rx="73.39" ry="18"/>
<text text-anchor="middle" x="296.84" y="-397.1" font-family="Times,serif" font-size="14.00">split_samples</text>
</g>
<!-- p32&#45;&gt;p35 -->
<g id="edge39" class="edge">
<title>p32&#45;&gt;p35</title>
<path fill="none" stroke="black" d="M308.27,-473.98C297.44,-468.87 287.41,-461.75 280.84,-451.8 276.07,-444.58 277.04,-435.85 280.14,-427.71"/>
<polygon fill="black" stroke="black" points="283.36,-429.09 284.55,-418.56 277.06,-426.05 283.36,-429.09"/>
<text text-anchor="middle" x="336.84" y="-440.6" font-family="Times,serif" font-size="14.00">dump_wide_csv</text>
</g>
<!-- p36 -->
<g id="node37" class="node">
<title>p36</title>
<ellipse fill="none" stroke="black" cx="408.84" cy="-361.3" rx="3.5" ry="3.5"/>
<text text-anchor="middle" x="360.34" y="-368.6" font-family="Times,serif" font-size="14.00">toSortedList</text>
</g>
<!-- p32&#45;&gt;p36 -->
<g id="edge43" class="edge">
<title>p32&#45;&gt;p36</title>
<path fill="none" stroke="black" d="M380.43,-469.95C385.13,-464.57 389.75,-458.31 392.84,-451.8 404.86,-426.45 407.9,-393.14 408.64,-375.16"/>
<polygon fill="black" stroke="black" points="412.14,-375.02 408.86,-364.94 405.14,-374.86 412.14,-375.02"/>
<text text-anchor="middle" x="453.84" y="-440.6" font-family="Times,serif" font-size="14.00">dump_wide_csv</text>
</g>
<!-- p37 -->
<g id="node36" class="node">
<title>p37</title>
<ellipse fill="none" stroke="black" cx="360.84" cy="-336.3" rx="3.5" ry="3.5"/>
<text text-anchor="middle" x="325.84" y="-343.6" font-family="Times,serif" font-size="14.00">splitText</text>
</g>
<!-- p35&#45;&gt;p37 -->
<g id="edge42" class="edge">
<title>p35&#45;&gt;p37</title>
<path fill="none" stroke="black" d="M313.99,-383.05C325.89,-371.43 341.3,-356.38 351.14,-346.78"/>
<polygon fill="black" stroke="black" points="353.85,-349.02 358.56,-339.53 348.96,-344.01 353.85,-349.02"/>
</g>
<!-- p34 -->
<g id="node35" class="node">
<title>p34</title>
<ellipse fill="black" stroke="black" cx="549.84" cy="-400.8" rx="1.8" ry="1.8"/>
</g>
<!-- p33&#45;&gt;p34 -->
<g id="edge41" class="edge">
<title>p33&#45;&gt;p34</title>
<path fill="none" stroke="black" d="M545.85,-469.6C546.85,-452.72 548.33,-427.46 549.18,-413.02"/>
<polygon fill="black" stroke="black" points="552.68,-413.07 549.78,-402.88 545.7,-412.66 552.68,-413.07"/>
<text text-anchor="middle" x="597.34" y="-440.6" font-family="Times,serif" font-size="14.00">dump_tall_csv</text>
</g>
<!-- p38 -->
<g id="node38" class="node">
<title>p38</title>
<ellipse fill="none" stroke="black" cx="381.84" cy="-292.2" rx="3.5" ry="3.5"/>
<text text-anchor="middle" x="347.84" y="-299.5" font-family="Times,serif" font-size="14.00">combine</text>
</g>
<!-- p37&#45;&gt;p38 -->
<g id="edge45" class="edge">
<title>p37&#45;&gt;p38</title>
<path fill="none" stroke="black" d="M362.22,-332.54C365,-326.96 371.42,-314.09 376.16,-304.58"/>
<polygon fill="black" stroke="black" points="379.31,-306.11 380.64,-295.6 373.05,-302.99 379.31,-306.11"/>
</g>
<!-- p36&#45;&gt;p38 -->
<g id="edge44" class="edge">
<title>p36&#45;&gt;p38</title>
<path fill="none" stroke="black" d="M407.81,-357.75C404.41,-349.28 393.31,-321.69 386.77,-305.45"/>
<polygon fill="black" stroke="black" points="389.85,-303.72 382.87,-295.75 383.35,-306.33 389.85,-303.72"/>
</g>
<!-- p40 -->
<g id="node39" class="node">
<title>p40</title>
<ellipse fill="none" stroke="black" cx="397.84" cy="-219.6" rx="110.48" ry="18"/>
<text text-anchor="middle" x="397.84" y="-215.9" font-family="Times,serif" font-size="14.00">aggregate_organisms</text>
</g>
<!-- p38&#45;&gt;p40 -->
<g id="edge46" class="edge">
<title>p38&#45;&gt;p40</title>
<path fill="none" stroke="black" d="M382.45,-288.52C383.97,-281.78 388.11,-263.55 391.7,-247.68"/>
<polygon fill="black" stroke="black" points="395.16,-248.25 393.96,-237.73 388.34,-246.71 395.16,-248.25"/>
</g>
<!-- p41 -->
<g id="node41" class="node">
<title>p41</title>
<ellipse fill="none" stroke="black" cx="397.84" cy="-161.1" rx="3.5" ry="3.5"/>
<text text-anchor="middle" x="370.84" y="-168.4" font-family="Times,serif" font-size="14.00">flatten</text>
</g>
<!-- p40&#45;&gt;p41 -->
<g id="edge48" class="edge">
<title>p40&#45;&gt;p41</title>
<path fill="none" stroke="black" d="M397.84,-201.34C397.84,-192.76 397.84,-182.57 397.84,-174.72"/>
<polygon fill="black" stroke="black" points="401.34,-174.66 397.84,-164.66 394.34,-174.66 401.34,-174.66"/>
</g>
<!-- p39 -->
<g id="node40" class="node">
<title>p39</title>
<ellipse fill="black" stroke="black" cx="414.84" cy="-292.2" rx="3.6" ry="3.6"/>
</g>
<!-- p39&#45;&gt;p40 -->
<g id="edge47" class="edge">
<title>p39&#45;&gt;p40</title>
<path fill="none" stroke="black" d="M414.19,-288.52C412.57,-281.78 408.18,-263.55 404.36,-247.68"/>
<polygon fill="black" stroke="black" points="407.71,-246.63 401.96,-237.73 400.9,-248.27 407.71,-246.63"/>
<text text-anchor="middle" x="479.84" y="-259.4" font-family="Times,serif" font-size="14.00">public_epitopes_csv</text>
</g>
<!-- p42 -->
<g id="node42" class="node">
<title>p42</title>
<ellipse fill="none" stroke="black" cx="397.84" cy="-117.1" rx="3.5" ry="3.5"/>
<text text-anchor="middle" x="349.34" y="-124.4" font-family="Times,serif" font-size="14.00">toSortedList</text>
</g>
<!-- p41&#45;&gt;p42 -->
<g id="edge49" class="edge">
<title>p41&#45;&gt;p42</title>
<path fill="none" stroke="black" d="M397.84,-157.34C397.84,-152.07 397.84,-140.23 397.84,-130.92"/>
<polygon fill="black" stroke="black" points="401.34,-130.92 397.84,-120.92 394.34,-130.92 401.34,-130.92"/>
</g>
<!-- p43 -->
<g id="node43" class="node">
<title>p43</title>
<ellipse fill="none" stroke="black" cx="397.84" cy="-58.6" rx="80.69" ry="18"/>
<text text-anchor="middle" x="397.84" y="-54.9" font-family="Times,serif" font-size="14.00">join_organisms</text>
</g>
<!-- p42&#45;&gt;p43 -->
<g id="edge50" class="edge">
<title>p42&#45;&gt;p43</title>
<path fill="none" stroke="black" d="M397.84,-113.37C397.84,-108.43 397.84,-97.5 397.84,-86.77"/>
<polygon fill="black" stroke="black" points="401.34,-86.75 397.84,-76.75 394.34,-86.75 401.34,-86.75"/>
</g>
<!-- p44 -->
<g id="node44" class="node">
<title>p44</title>
<ellipse fill="black" stroke="black" cx="397.84" cy="-1.8" rx="1.8" ry="1.8"/>
</g>
<!-- p43&#45;&gt;p44 -->
<g id="edge51" class="edge">
<title>p43&#45;&gt;p44</title>
<path fill="none" stroke="black" d="M397.84,-40.56C397.84,-31.87 397.84,-21.56 397.84,-13.9"/>
<polygon fill="black" stroke="black" points="401.34,-13.76 397.84,-3.76 394.34,-13.76 401.34,-13.76"/>
</g>
</g>
</svg>
