<svg version="1.1" viewBox="0.0 0.0 393.2782152230971 338.01049868766404" fill="none" stroke="none" stroke-linecap="square" stroke-miterlimit="10" xmlns:xlink="http://www.w3.org/1999/xlink" xmlns="http://www.w3.org/2000/svg"><clipPath id="p.0"><path d="m0 0l393.27823 0l0 338.0105l-393.27823 0l0 -338.0105z" clip-rule="nonzero"/></clipPath><g clip-path="url(#p.0)"><path fill="#000000" fill-opacity="0.0" d="m0 0l393.27823 0l0 338.0105l-393.27823 0z" fill-rule="evenodd"/><defs><radialGradient id="p.1" gradientUnits="userSpaceOnUse" gradientTransform="matrix(6.719500927028236 0.0 0.0 6.719500927028236 0.0 0.0)" spreadMethod="pad" cx="41.441929934717464" cy="21.617649249655052" fx="41.441929934717464" fy="21.617649249655052" r="6.71950101852417"><stop offset="0.0" stop-color="#f2f2f2"/><stop offset="1.0" stop-color="#a6a6a6"/></radialGradient></defs><path fill="url(#p.1)" d="m252.20137 108.53541l52.535446 0l0 73.448814l-52.535446 0z" fill-rule="evenodd"/><path stroke="#000000" stroke-width="1.0" stroke-linejoin="round" stroke-linecap="butt" d="m252.20137 108.53541l52.535446 0l0 73.448814l-52.535446 0z" fill-rule="evenodd"/><defs><radialGradient id="p.2" gradientUnits="userSpaceOnUse" gradientTransform="matrix(5.4006314867834435 0.0 0.0 5.4006314867834435 0.0 0.0)" spreadMethod="pad" cx="51.5623195723777" cy="14.897320092084886" fx="51.5623195723777" fy="14.897320092084886" r="5.400631427764893"><stop offset="0.0" stop-color="#f2f2f2"/><stop offset="1.0" stop-color="#a6a6a6"/></radialGradient></defs><path fill="url(#p.2)" d="m252.20137 67.77777l52.535446 0l0 25.354332l-52.535446 0z" fill-rule="evenodd"/><path stroke="#000000" stroke-width="1.0" stroke-linejoin="round" stroke-linecap="butt" d="m252.20137 67.77777l52.535446 0l0 25.354332l-52.535446 0z" fill-rule="evenodd"/><defs><radialGradient id="p.3" gradientUnits="userSpaceOnUse" gradientTransform="matrix(6.284611553321995 0.0 0.0 6.284611553321995 0.0 0.0)" spreadMethod="pad" cx="34.20704154583769" cy="23.114040360231783" fx="34.20704154583769" fy="23.114040360231783" r="6.284611701965332"><stop offset="0.0" stop-color="#f2f2f2"/><stop offset="1.0" stop-color="#a6a6a6"/></radialGradient></defs><path fill="url(#p.3)" d="m200.44254 108.53835l29.070862 0l0 73.448814l-29.070862 0z" fill-rule="evenodd"/><path stroke="#000000" stroke-width="1.0" stroke-linejoin="round" stroke-linecap="butt" d="m200.44254 108.53835l29.070862 0l0 73.448814l-29.070862 0z" fill-rule="evenodd"/><path fill="#e6b8af" d="m236.7757 108.53481l8.472443 0l0 73.448814l-8.472443 0z" fill-rule="evenodd"/><path stroke="#000000" stroke-width="1.0" stroke-linejoin="round" stroke-linecap="butt" d="m236.7757 108.53481l8.472443 0l0 73.448814l-8.472443 0z" fill-rule="evenodd"/><path fill="#c9daf8" d="m200.43813 97.40805l29.070862 0l0 6.992119l-29.070862 0z" fill-rule="evenodd"/><path stroke="#000000" stroke-width="1.0" stroke-linejoin="round" stroke-linecap="butt" d="m200.43813 97.40805l29.070862 0l0 6.992119l-29.070862 0z" fill-rule="evenodd"/><path fill="#d9d2e9" d="m252.20137 97.40805l52.535446 0l0 6.992119l-52.535446 0z" fill-rule="evenodd"/><path stroke="#000000" stroke-width="1.0" stroke-linejoin="round" stroke-linecap="butt" d="m252.20137 97.40805l52.535446 0l0 6.992119l-52.535446 0z" fill-rule="evenodd"/><path fill="#d0e0e3" d="m236.77452 67.77777l8.472427 0l0 25.354332l-8.472427 0z" fill-rule="evenodd"/><path stroke="#000000" stroke-width="1.0" stroke-linejoin="round" stroke-linecap="butt" d="m236.77452 67.77777l8.472427 0l0 25.354332l-8.472427 0z" fill-rule="evenodd"/><path fill="#000000" fill-opacity="0.0" d="m577.5217 36.60766l57.574768 0l0 15.212597l-57.574768 0z" fill-rule="evenodd"/><path fill="#000000" fill-opacity="0.0" d="m169.84251 96.54415l30.960632 0l0 7.874016l-30.960632 0z" fill-rule="evenodd"/><path fill="#000000" fill-opacity="0.0" d="m564.1266 381.0748l0 -65.22836l18.771606 0l0 65.22836z" fill-rule="evenodd"/><path fill="#000000" fill-opacity="0.0" d="m220.61487 94.65409l0 -28.850395l8.472443 0l0 28.850395z" fill-rule="evenodd"/><path fill="#000000" fill-opacity="0.0" d="m743.95013 112.902596l57.57483 0l0 15.212593l-57.57483 0z" fill-rule="evenodd"/><path fill="#000000" fill-opacity="0.0" d="m845.6661 501.6234l57.57483 0l0 15.212585l-57.57483 0z" fill-rule="evenodd"/><path fill="#000000" fill-opacity="0.0" d="m48.946194 9.737533l395.71652 0l0 228.31496l-395.71652 0z" fill-rule="evenodd"/><path fill="#000000" d="m47.539944 180.50629q0 1.171875 -0.65625 2.265625q-0.671875 1.109375 -0.671875 1.703125q0 2.34375 2.9375 2.34375q9.390625 0 14.21875 -23.765625l12.906254 -61.59375l-13.187504 0l1.0156288 -4.6875l13.5 0q1.90625 -6.015625 3.296875 -9.96875q1.390625 -3.96875 4.09375 -9.53125q2.71875 -5.578125 5.65625 -8.953125q2.9375 -3.375 7.328125 -5.796875q4.40625 -2.421875 9.53125 -2.421875q5.4375 0 9.03125 2.71875q3.59375 2.71875 3.59375 6.8125q0 2.359375 -1.84375 4.125q-1.828125 1.75 -4.328125 1.75q-2.484375 0 -3.953125 -1.609375q-1.46875 -1.625 -1.46875 -4.265625q0 -1.3125 0.734375 -2.78125q0.734375 -1.46875 0.734375 -1.765625q0 -1.75 -3.21875 -1.75q-6.171875 0 -10.421875 8.0625q-4.25 8.0625 -7.484375 25.375l15.84375 0l-0.875 4.6875l-15.984375 0l-10.5625 46.9375q-4.546875 20.234375 -12.03125 30.859375q-7.468754 10.640625 -17.296879 10.640625q-4.84375 0 -8.21875 -2.640625q-3.375 -2.640625 -3.375 -6.3125q0 -2.484375 1.546875 -4.25q1.53125 -1.75 3.890625 -1.75q2.34375 0 4.03125 1.609375q1.6875 1.609375 1.6875 3.953125z" fill-rule="nonzero"/><path fill="#000000" d="m173.75932 190.39691q-10.671875 -13.453125 -18.046875 -31.5q-7.375 -18.046875 -7.375 -37.390625q0 -17.03125 5.515625 -32.640625q6.453125 -18.125 19.90625 -36.09375l9.234375 0q-8.65625 14.890625 -11.453125 21.265625q-4.359375 9.875 -6.875 20.625q-3.078125 13.390625 -3.078125 26.921875q0 34.4375 21.40625 68.8125l-9.234375 0zm154.90321 0l-9.25 0q21.421875 -34.375 21.421875 -68.8125q0 -13.46875 -3.078125 -26.703125q-2.4375 -10.75 -6.8125 -20.625q-2.796875 -6.453125 -11.53125 -21.484375l9.25 0q13.453125 17.96875 19.90625 36.09375q5.5 15.609375 5.5 32.640625q0 19.34375 -7.40625 37.390625q-7.40625 18.046875 -18.0 31.5z" fill-rule="nonzero"/><path fill="#000000" fill-opacity="0.0" d="m36.057743 205.90552l321.5118 0l0 95.33856l-321.5118 0z" fill-rule="evenodd"/><path fill="#000000" d="m87.16281 267.33115q0 1.796875 0.203125 2.875q0.203125 1.0625 0.609375 1.6875q0.40625 0.625 1.109375 0.984375q0.71875 0.359375 2.203125 0.6875l0 1.5l-13.421875 0l0 -1.5q1.890625 -0.484375 2.53125 -1.078125q0.65625 -0.609375 0.84375 -1.703125q0.203125 -1.109375 0.203125 -3.375l0 -26.453125q0 -2.109375 -0.15625 -3.078125q-0.15625 -0.96875 -0.515625 -1.5q-0.34375 -0.53125 -0.921875 -0.84375q-0.578125 -0.328125 -1.984375 -0.734375l0 -1.5l15.171875 0q7.15625 0 10.65625 2.75q3.515625 2.734375 3.515625 8.328125q0 3.1875 -1.109375 5.734375q-1.09375 2.53125 -3.125 4.15625q-2.015625 1.609375 -4.765625 2.3125q-2.75 0.703125 -5.78125 0.703125q-3.390625 0 -5.265625 -0.109375l0 10.15625zm0 -12.703125l3.546875 0q3.46875 0 5.703125 -0.890625q2.25 -0.90625 3.4375 -3.0q1.203125 -2.109375 1.203125 -5.5625q0 -2.625 -0.703125 -4.390625q-0.703125 -1.765625 -1.953125 -2.828125q-1.234375 -1.078125 -2.953125 -1.515625q-1.703125 -0.4375 -3.71875 -0.4375q-3.03125 0 -4.5625 0.109375l0 18.515625zm33.75255 -4.0l0.125 0.03125q2.375 -2.421875 3.765625 -3.390625q1.390625 -0.96875 2.75 -1.453125q1.375 -0.484375 2.9375 -0.484375q1.671875 0 2.984375 0.40625q1.328125 0.390625 2.3125 1.203125q1.0 0.796875 1.625 1.984375q0.625 1.171875 0.921875 2.8125q0.3125 1.640625 0.3125 4.140625l0 11.53125q0 2.671875 0.234375 3.640625q0.234375 0.953125 0.828125 1.5q0.59375 0.53125 2.40625 1.015625l0 1.5l-12.0625 0l0 -1.5q1.1875 -0.359375 1.703125 -0.640625q0.53125 -0.28125 0.875 -0.765625q0.359375 -0.484375 0.5625 -1.515625q0.203125 -1.03125 0.203125 -3.109375l0 -8.015625q0 -4.0625 -0.421875 -6.21875q-0.40625 -2.15625 -1.625 -3.21875q-1.203125 -1.078125 -3.375 -1.078125q-1.21875 0 -2.203125 0.4375q-0.984375 0.421875 -2.265625 1.53125q-1.28125 1.09375 -1.9375 2.25q-0.65625 1.15625 -0.65625 2.484375l0 11.703125q0 2.09375 0.09375 2.984375q0.109375 0.875 0.421875 1.484375q0.3125 0.59375 0.9375 0.984375q0.625 0.375 1.9375 0.703125l0 1.5l-12.109375 0l0 -1.5q1.34375 -0.359375 1.921875 -0.703125q0.578125 -0.34375 0.890625 -0.859375q0.328125 -0.515625 0.484375 -1.484375q0.15625 -0.984375 0.15625 -3.109375l0 -25.59375q0 -2.9375 -0.046875 -4.09375q-0.046875 -1.171875 -0.25 -1.984375q-0.1875 -0.8125 -0.546875 -1.265625q-0.34375 -0.46875 -0.953125 -0.734375q-0.59375 -0.28125 -2.15625 -0.5625l0 -1.578125l7.375 -0.3125l1.84375 0l0 19.34375zm35.11795 -16.796875l0 5.921875l-5.625 0l0 -5.921875l5.625 0zm-8.75 39.734375q1.1875 -0.359375 1.6875 -0.640625q0.515625 -0.28125 0.859375 -0.765625q0.359375 -0.484375 0.546875 -1.5q0.203125 -1.015625 0.203125 -3.15625l0 -13.328125q0 -1.96875 -0.0625 -3.15625q-0.046875 -1.1875 -0.421875 -1.90625q-0.359375 -0.71875 -1.109375 -1.0625q-0.75 -0.359375 -2.125 -0.609375l0 -1.625l7.125 -0.265625l1.859375 0l0 21.859375q0 2.640625 0.234375 3.671875q0.25 1.015625 0.9375 1.5625q0.703125 0.53125 2.25 0.921875l0 1.5l-11.984375 0l0 -1.5zm25.704788 0.578125l0 6.453125q0 2.0 0.125 2.96875q0.140625 0.984375 0.484375 1.546875q0.359375 0.5625 1.015625 0.921875q0.65625 0.375 2.125 0.6875l0 1.5l-12.46875 0l0 -1.5q1.09375 -0.3125 1.78125 -0.640625q0.6875 -0.3125 1.046875 -0.9375q0.375 -0.625 0.5 -1.703125q0.125 -1.0625 0.125 -2.84375l0 -26.25q0 -2.203125 -0.0625 -3.125q-0.0625 -0.9375 -0.25 -1.546875q-0.1875 -0.609375 -0.546875 -1.0q-0.34375 -0.40625 -0.9375 -0.671875q-0.59375 -0.28125 -1.96875 -0.5625l0 -1.625l7.1875 -0.265625l1.875 0l-0.40625 4.984375l0.453125 0.125q1.90625 -1.9375 3.0 -2.796875q1.109375 -0.875 2.28125 -1.453125q1.1875 -0.59375 2.265625 -0.828125q1.09375 -0.25 2.3125 -0.25q5.046875 0 7.75 3.78125q2.71875 3.765625 2.71875 11.046875q0 5.0625 -1.53125 8.5q-1.53125 3.4375 -4.453125 5.171875q-2.921875 1.71875 -6.96875 1.71875q-2.265625 0 -4.109375 -0.390625q-1.828125 -0.375 -3.34375 -1.015625zm0 -10.09375q0 2.9375 0.359375 4.53125q0.375 1.59375 1.296875 2.59375q0.9375 0.984375 2.203125 1.484375q1.265625 0.484375 3.359375 0.484375q3.703125 0 5.5625 -3.078125q1.859375 -3.078125 1.859375 -9.078125q0 -11.984375 -7.0 -11.984375q-1.71875 0 -2.953125 0.53125q-1.234375 0.53125 -2.46875 1.734375q-1.21875 1.1875 -1.71875 2.3125q-0.5 1.109375 -0.5 2.390625l0 8.078125zm34.84642 10.09375l0 6.453125q0 2.0 0.125 2.96875q0.140625 0.984375 0.484375 1.546875q0.359375 0.5625 1.015625 0.921875q0.65625 0.375 2.125 0.6875l0 1.5l-12.46875 0l0 -1.5q1.09375 -0.3125 1.78125 -0.640625q0.6875 -0.3125 1.046875 -0.9375q0.375 -0.625 0.5 -1.703125q0.125 -1.0625 0.125 -2.84375l0 -26.25q0 -2.203125 -0.0625 -3.125q-0.0625 -0.9375 -0.25 -1.546875q-0.1875 -0.609375 -0.546875 -1.0q-0.34375 -0.40625 -0.9375 -0.671875q-0.59375 -0.28125 -1.96875 -0.5625l0 -1.625l7.1875 -0.265625l1.875 0l-0.40625 4.984375l0.453125 0.125q1.90625 -1.9375 3.0 -2.796875q1.109375 -0.875 2.28125 -1.453125q1.1875 -0.59375 2.265625 -0.828125q1.09375 -0.25 2.3125 -0.25q5.046875 0 7.75 3.78125q2.71875 3.765625 2.71875 11.046875q0 5.0625 -1.53125 8.5q-1.53125 3.4375 -4.453125 5.171875q-2.921875 1.71875 -6.96875 1.71875q-2.265625 0 -4.109375 -0.390625q-1.828125 -0.375 -3.34375 -1.015625zm0 -10.09375q0 2.9375 0.359375 4.53125q0.375 1.59375 1.296875 2.59375q0.9375 0.984375 2.203125 1.484375q1.265625 0.484375 3.359375 0.484375q3.703125 0 5.5625 -3.078125q1.859375 -3.078125 1.859375 -9.078125q0 -11.984375 -7.0 -11.984375q-1.71875 0 -2.953125 0.53125q-1.234375 0.53125 -2.46875 1.734375q-1.21875 1.1875 -1.71875 2.3125q-0.5 1.109375 -0.5 2.390625l0 8.078125zm50.987045 5.8125q-1.953125 2.046875 -3.59375 3.21875q-1.625 1.15625 -3.59375 1.8125q-1.953125 0.65625 -4.3125 0.65625q-6.296875 0 -9.515625 -3.765625q-3.203125 -3.78125 -3.203125 -11.15625q0 -4.5625 1.625 -8.046875q1.640625 -3.484375 4.671875 -5.375q3.03125 -1.90625 6.96875 -1.90625q3.09375 0 5.265625 0.984375q2.171875 0.96875 3.46875 2.671875q1.3125 1.703125 2.03125 4.28125q0.71875 2.578125 0.8125 6.75l-19.28125 0l0 0.546875q0 3.609375 0.8125 6.078125q0.8125 2.453125 2.65625 3.84375q1.859375 1.390625 4.828125 1.390625q2.5 0 4.5 -0.921875q2.015625 -0.9375 4.0 -3.046875l1.859375 1.984375zm-5.140625 -12.421875q-0.171875 -3.296875 -0.828125 -5.390625q-0.640625 -2.109375 -1.921875 -3.21875q-1.28125 -1.109375 -3.359375 -1.109375q-3.15625 0 -5.046875 2.53125q-1.875 2.515625 -2.203125 7.1875l13.359375 0zm19.532043 -6.546875l0.421875 0.09375q1.6875 -2.046875 3.125 -3.21875q1.4375 -1.1875 3.09375 -1.828125q1.671875 -0.640625 3.78125 -0.640625q1.78125 0 3.21875 0.1875l0 7.03125l-3.453125 0q-0.734375 -1.65625 -1.5625 -2.40625q-0.828125 -0.75 -2.265625 -0.75q-1.109375 0 -2.203125 0.65625q-1.078125 0.640625 -2.09375 1.859375q-1.0 1.21875 -1.390625 2.296875q-0.375 1.0625 -0.375 2.53125l0 10.703125q0 2.796875 0.328125 3.859375q0.34375 1.046875 1.125 1.53125q0.78125 0.484375 2.34375 0.765625l0 1.5l-12.328125 0l0 -1.5q1.15625 -0.359375 1.65625 -0.640625q0.515625 -0.28125 0.875 -0.765625q0.375 -0.484375 0.546875 -1.5q0.1875 -1.015625 0.1875 -3.15625l0 -13.328125q0 -1.96875 -0.0625 -3.15625q-0.046875 -1.1875 -0.421875 -1.90625q-0.359375 -0.71875 -1.109375 -1.0625q-0.75 -0.359375 -2.125 -0.609375l0 -1.59375l7.15625 -0.296875l1.859375 0l-0.328125 5.34375zm30.58487 26.6875q-1.6875 3.78125 -3.28125 6.140625q-1.578125 2.359375 -3.5 3.546875q-1.90625 1.203125 -4.53125 1.203125q-1.6875 0 -3.796875 -0.40625l0 -6.0625l2.71875 0q0.375 1.265625 0.921875 1.75q0.546875 0.484375 1.59375 0.484375q0.90625 0 1.625 -0.359375q0.71875 -0.34375 1.5 -1.203125q0.78125 -0.84375 1.828125 -2.625q1.0625 -1.765625 2.390625 -4.5l-8.578125 -23.03125q-0.8125 -2.234375 -1.328125 -3.125q-0.5 -0.890625 -1.078125 -1.34375q-0.578125 -0.453125 -1.78125 -0.734375l0 -1.5l12.453125 0l0 1.5q-1.4375 0.34375 -2.015625 0.671875q-0.578125 0.3125 -0.859375 0.8125q-0.28125 0.5 -0.28125 1.296875q0 0.828125 0.203125 1.71875q0.203125 0.890625 0.625 2.078125l5.453125 15.328125l6.109375 -14.6875q0.53125 -1.21875 0.8125 -2.234375q0.296875 -1.03125 0.296875 -1.921875q0 -1.3125 -0.71875 -1.984375q-0.71875 -0.671875 -2.5 -1.078125l0 -1.5l11.453125 0l0 1.5q-1.203125 0.25 -1.84375 0.75q-0.640625 0.5 -1.28125 1.59375q-0.640625 1.078125 -1.53125 3.046875l-11.078125 24.875z" fill-rule="nonzero"/></g></svg>