<svg version="1.1" viewBox="0.0 0.0 399.08923884514434 248.03149606299212" fill="none" stroke="none" stroke-linecap="square" stroke-miterlimit="10" xmlns:xlink="http://www.w3.org/1999/xlink" xmlns="http://www.w3.org/2000/svg"><clipPath id="p.0"><path d="m0 0l399.08923 0l0 248.0315l-399.08923 0l0 -248.0315z" clip-rule="nonzero"/></clipPath><g clip-path="url(#p.0)"><path fill="#000000" fill-opacity="0.0" d="m0 0l399.08923 0l0 248.0315l-399.08923 0z" fill-rule="evenodd"/><defs><radialGradient id="p.1" gradientUnits="userSpaceOnUse" gradientTransform="matrix(6.719500927028236 0.0 0.0 6.719500927028236 0.0 0.0)" spreadMethod="pad" cx="41.441929934717464" cy="21.617649249655052" fx="41.441929934717464" fy="21.617649249655052" r="6.71950101852417"><stop offset="0.0" stop-color="#f2f2f2"/><stop offset="1.0" stop-color="#a6a6a6"/></radialGradient></defs><path fill="url(#p.1)" d="m252.20137 108.53541l52.535446 0l0 73.448814l-52.535446 0z" fill-rule="evenodd"/><path stroke="#000000" stroke-width="1.0" stroke-linejoin="round" stroke-linecap="butt" d="m252.20137 108.53541l52.535446 0l0 73.448814l-52.535446 0z" fill-rule="evenodd"/><defs><radialGradient id="p.2" gradientUnits="userSpaceOnUse" gradientTransform="matrix(5.4006314867834435 0.0 0.0 5.4006314867834435 0.0 0.0)" spreadMethod="pad" cx="51.5623195723777" cy="14.897320092084886" fx="51.5623195723777" fy="14.897320092084886" r="5.400631427764893"><stop offset="0.0" stop-color="#f2f2f2"/><stop offset="1.0" stop-color="#a6a6a6"/></radialGradient></defs><path fill="url(#p.2)" d="m252.20137 67.77777l52.535446 0l0 25.354332l-52.535446 0z" fill-rule="evenodd"/><path stroke="#000000" stroke-width="1.0" stroke-linejoin="round" stroke-linecap="butt" d="m252.20137 67.77777l52.535446 0l0 25.354332l-52.535446 0z" fill-rule="evenodd"/><defs><radialGradient id="p.3" gradientUnits="userSpaceOnUse" gradientTransform="matrix(6.284611553321995 0.0 0.0 6.284611553321995 0.0 0.0)" spreadMethod="pad" cx="34.20704154583769" cy="23.114040360231783" fx="34.20704154583769" fy="23.114040360231783" r="6.284611701965332"><stop offset="0.0" stop-color="#f2f2f2"/><stop offset="1.0" stop-color="#a6a6a6"/></radialGradient></defs><path fill="url(#p.3)" d="m200.44254 108.53835l29.070862 0l0 73.448814l-29.070862 0z" fill-rule="evenodd"/><path stroke="#000000" stroke-width="1.0" stroke-linejoin="round" stroke-linecap="butt" d="m200.44254 108.53835l29.070862 0l0 73.448814l-29.070862 0z" fill-rule="evenodd"/><path fill="#e6b8af" d="m236.7757 108.53481l8.472443 0l0 73.448814l-8.472443 0z" fill-rule="evenodd"/><path stroke="#000000" stroke-width="1.0" stroke-linejoin="round" stroke-linecap="butt" d="m236.7757 108.53481l8.472443 0l0 73.448814l-8.472443 0z" fill-rule="evenodd"/><path fill="#c9daf8" d="m200.43813 97.40805l29.070862 0l0 6.992119l-29.070862 0z" fill-rule="evenodd"/><path stroke="#000000" stroke-width="1.0" stroke-linejoin="round" stroke-linecap="butt" d="m200.43813 97.40805l29.070862 0l0 6.992119l-29.070862 0z" fill-rule="evenodd"/><path fill="#d9d2e9" d="m252.20137 97.40805l52.535446 0l0 6.992119l-52.535446 0z" fill-rule="evenodd"/><path stroke="#000000" stroke-width="1.0" stroke-linejoin="round" stroke-linecap="butt" d="m252.20137 97.40805l52.535446 0l0 6.992119l-52.535446 0z" fill-rule="evenodd"/><path fill="#d0e0e3" d="m236.77452 67.77777l8.472427 0l0 25.354332l-8.472427 0z" fill-rule="evenodd"/><path stroke="#000000" stroke-width="1.0" stroke-linejoin="round" stroke-linecap="butt" d="m236.77452 67.77777l8.472427 0l0 25.354332l-8.472427 0z" fill-rule="evenodd"/><path fill="#000000" fill-opacity="0.0" d="m577.5217 36.60766l57.574768 0l0 15.212597l-57.574768 0z" fill-rule="evenodd"/><path fill="#000000" fill-opacity="0.0" d="m169.84251 96.54415l30.960632 0l0 7.874016l-30.960632 0z" fill-rule="evenodd"/><path fill="#000000" fill-opacity="0.0" d="m564.1266 381.0748l0 -65.22836l18.771606 0l0 65.22836z" fill-rule="evenodd"/><path fill="#000000" fill-opacity="0.0" d="m220.61487 94.65409l0 -28.850395l8.472443 0l0 28.850395z" fill-rule="evenodd"/><path fill="#000000" fill-opacity="0.0" d="m743.95013 112.902596l57.57483 0l0 15.212593l-57.57483 0z" fill-rule="evenodd"/><path fill="#000000" fill-opacity="0.0" d="m845.6661 501.6234l57.57483 0l0 15.212585l-57.57483 0z" fill-rule="evenodd"/><path fill="#000000" fill-opacity="0.0" d="m48.946194 9.737533l395.71652 0l0 228.31496l-395.71652 0z" fill-rule="evenodd"/><path fill="#000000" d="m47.539944 180.50629q0 1.171875 -0.65625 2.265625q-0.671875 1.109375 -0.671875 1.703125q0 2.34375 2.9375 2.34375q9.390625 0 14.21875 -23.765625l12.906254 -61.59375l-13.187504 0l1.0156288 -4.6875l13.5 0q1.90625 -6.015625 3.296875 -9.96875q1.390625 -3.96875 4.09375 -9.53125q2.71875 -5.578125 5.65625 -8.953125q2.9375 -3.375 7.328125 -5.796875q4.40625 -2.421875 9.53125 -2.421875q5.4375 0 9.03125 2.71875q3.59375 2.71875 3.59375 6.8125q0 2.359375 -1.84375 4.125q-1.828125 1.75 -4.328125 1.75q-2.484375 0 -3.953125 -1.609375q-1.46875 -1.625 -1.46875 -4.265625q0 -1.3125 0.734375 -2.78125q0.734375 -1.46875 0.734375 -1.765625q0 -1.75 -3.21875 -1.75q-6.171875 0 -10.421875 8.0625q-4.25 8.0625 -7.484375 25.375l15.84375 0l-0.875 4.6875l-15.984375 0l-10.5625 46.9375q-4.546875 20.234375 -12.03125 30.859375q-7.468754 10.640625 -17.296879 10.640625q-4.84375 0 -8.21875 -2.640625q-3.375 -2.640625 -3.375 -6.3125q0 -2.484375 1.546875 -4.25q1.53125 -1.75 3.890625 -1.75q2.34375 0 4.03125 1.609375q1.6875 1.609375 1.6875 3.953125z" fill-rule="nonzero"/><path fill="#000000" d="m173.75932 190.39691q-10.671875 -13.453125 -18.046875 -31.5q-7.375 -18.046875 -7.375 -37.390625q0 -17.03125 5.515625 -32.640625q6.453125 -18.125 19.90625 -36.09375l9.234375 0q-8.65625 14.890625 -11.453125 21.265625q-4.359375 9.875 -6.875 20.625q-3.078125 13.390625 -3.078125 26.921875q0 34.4375 21.40625 68.8125l-9.234375 0zm154.90321 0l-9.25 0q21.421875 -34.375 21.421875 -68.8125q0 -13.46875 -3.078125 -26.703125q-2.4375 -10.75 -6.8125 -20.625q-2.796875 -6.453125 -11.53125 -21.484375l9.25 0q13.453125 17.96875 19.90625 36.09375q5.5 15.609375 5.5 32.640625q0 19.34375 -7.40625 37.390625q-7.40625 18.046875 -18.0 31.5z" fill-rule="nonzero"/></g></svg>